<?xml version="1.0" encoding="UTF-8" standalone="no"?>
<!DOCTYPE svg PUBLIC "-//W3C//DTD SVG 1.1//EN"
 "http://www.w3.org/Graphics/SVG/1.1/DTD/svg11.dtd">
<!-- Generated by graphviz version 14.1.2 (20260124.0452)
 -->
<!-- Title: states Pages: 1 -->
<svg width="5369pt" height="118pt"
 viewBox="0.00 0.00 5369.00 118.00" xmlns="http://www.w3.org/2000/svg" xmlns:xlink="http://www.w3.org/1999/xlink">
<g id="graph0" class="graph" transform="scale(1 1) rotate(0) translate(4 114)">
<title>states</title>
<polygon fill="white" stroke="none" points="-4,4 -4,-114 5365.12,-114 5365.12,4 -4,4"/>
<!-- None_nil_nil_nil_nil_nil -->
<g id="node1" class="node">
<title>None_nil_nil_nil_nil_nil</title>
<polygon fill="none" stroke="black" points="94.75,-110 0,-110 0,-72 94.75,-72 94.75,-110"/>
<text xml:space="preserve" text-anchor="middle" x="47.38" y="-92.7" font-family="Helvetica,sans-Serif" font-size="14.00">None</text>
<text xml:space="preserve" text-anchor="middle" x="47.38" y="-77.7" font-family="Helvetica,sans-Serif" font-size="14.00">(placeholder)</text>
</g>
<!-- Default_laptop_nil_nil_nil_nil -->
<g id="node2" class="node">
<title>Default_laptop_nil_nil_nil_nil</title>
<polygon fill="none" stroke="black" points="170,-109 112.75,-109 112.75,-73 170,-73 170,-109"/>
<text xml:space="preserve" text-anchor="middle" x="141.38" y="-85.2" font-family="Helvetica,sans-Serif" font-size="14.00">Laptop</text>
</g>
<!-- Default_desktop_0_ -->
<g id="node3" class="node">
<title>Default_desktop_0_</title>
<polygon fill="none" stroke="black" points="236.38,-36 100.38,-36 100.38,0 236.38,0 236.38,-36"/>
<text xml:space="preserve" text-anchor="middle" x="168.38" y="-12.2" font-family="Helvetica,sans-Serif" font-size="14.00">Default_desktop_0_</text>
</g>
<!-- &#45;1 -->
<g id="node4" class="node">
<title>&#45;1</title>
<polygon fill="none" stroke="black" points="3340.38,-109 3286.38,-109 3286.38,-73 3340.38,-73 3340.38,-109"/>
<text xml:space="preserve" text-anchor="middle" x="3313.38" y="-85.2" font-family="Helvetica,sans-Serif" font-size="14.00">&#45;1</text>
</g>
<!-- Default_desktop_1_1_ -->
<g id="node11" class="node">
<title>Default_desktop_1_1_</title>
<polygon fill="none" stroke="black" points="589.88,-36 438.88,-36 438.88,0 589.88,0 589.88,-36"/>
<text xml:space="preserve" text-anchor="middle" x="514.38" y="-12.2" font-family="Helvetica,sans-Serif" font-size="14.00">Default_desktop_1_1_</text>
</g>
<!-- &#45;1&#45;&gt;Default_desktop_1_1_ -->
<g id="edge3" class="edge">
<title>&#45;1&#45;&gt;Default_desktop_1_1_</title>
<path fill="none" stroke="black" d="M3286.07,-90.14C3038.81,-91.26 1182.77,-97.61 601.68,-36.23"/>
<polygon fill="black" stroke="black" points="602.11,-32.76 591.79,-35.16 601.36,-39.71 602.11,-32.76"/>
</g>
<!-- Default_desktop_1_2_ -->
<g id="node12" class="node">
<title>Default_desktop_1_2_</title>
<polygon fill="none" stroke="black" points="758.88,-36 607.88,-36 607.88,0 758.88,0 758.88,-36"/>
<text xml:space="preserve" text-anchor="middle" x="683.38" y="-12.2" font-family="Helvetica,sans-Serif" font-size="14.00">Default_desktop_1_2_</text>
</g>
<!-- &#45;1&#45;&gt;Default_desktop_1_2_ -->
<g id="edge4" class="edge">
<title>&#45;1&#45;&gt;Default_desktop_1_2_</title>
<path fill="none" stroke="black" d="M3285.9,-90.09C3046.79,-90.82 1314.75,-94.01 770.36,-36.2"/>
<polygon fill="black" stroke="black" points="771.11,-32.76 760.79,-35.16 770.35,-39.72 771.11,-32.76"/>
</g>
<!-- Default_desktop_1_3_ -->
<g id="node13" class="node">
<title>Default_desktop_1_3_</title>
<polygon fill="none" stroke="black" points="927.88,-36 776.88,-36 776.88,0 927.88,0 927.88,-36"/>
<text xml:space="preserve" text-anchor="middle" x="852.38" y="-12.2" font-family="Helvetica,sans-Serif" font-size="14.00">Default_desktop_1_3_</text>
</g>
<!-- &#45;1&#45;&gt;Default_desktop_1_3_ -->
<g id="edge5" class="edge">
<title>&#45;1&#45;&gt;Default_desktop_1_3_</title>
<path fill="none" stroke="black" d="M3285.93,-90.05C3056.11,-90.34 1448.38,-90.42 939.73,-36.24"/>
<polygon fill="black" stroke="black" points="940.11,-32.76 929.79,-35.15 939.35,-39.72 940.11,-32.76"/>
</g>
<!-- Default_desktop_1_4_ -->
<g id="node14" class="node">
<title>Default_desktop_1_4_</title>
<polygon fill="none" stroke="black" points="1096.88,-36 945.88,-36 945.88,0 1096.88,0 1096.88,-36"/>
<text xml:space="preserve" text-anchor="middle" x="1021.38" y="-12.2" font-family="Helvetica,sans-Serif" font-size="14.00">Default_desktop_1_4_</text>
</g>
<!-- &#45;1&#45;&gt;Default_desktop_1_4_ -->
<g id="edge6" class="edge">
<title>&#45;1&#45;&gt;Default_desktop_1_4_</title>
<path fill="none" stroke="black" d="M3286.15,-89.99C3066.6,-89.83 1581.12,-86.86 1108.6,-36.23"/>
<polygon fill="black" stroke="black" points="1109.11,-32.76 1098.79,-35.15 1108.35,-39.72 1109.11,-32.76"/>
</g>
<!-- Default_desktop_1_5_ -->
<g id="node15" class="node">
<title>Default_desktop_1_5_</title>
<polygon fill="none" stroke="black" points="1265.88,-36 1114.88,-36 1114.88,0 1265.88,0 1265.88,-36"/>
<text xml:space="preserve" text-anchor="middle" x="1190.38" y="-12.2" font-family="Helvetica,sans-Serif" font-size="14.00">Default_desktop_1_5_</text>
</g>
<!-- &#45;1&#45;&gt;Default_desktop_1_5_ -->
<g id="edge7" class="edge">
<title>&#45;1&#45;&gt;Default_desktop_1_5_</title>
<path fill="none" stroke="black" d="M3285.92,-89.93C3075.43,-89.27 1714.02,-83.28 1277.67,-36.24"/>
<polygon fill="black" stroke="black" points="1278.12,-32.76 1267.79,-35.14 1277.35,-39.72 1278.12,-32.76"/>
</g>
<!-- Default_desktop_1_6_ -->
<g id="node16" class="node">
<title>Default_desktop_1_6_</title>
<polygon fill="none" stroke="black" points="1434.88,-36 1283.88,-36 1283.88,0 1434.88,0 1434.88,-36"/>
<text xml:space="preserve" text-anchor="middle" x="1359.38" y="-12.2" font-family="Helvetica,sans-Serif" font-size="14.00">Default_desktop_1_6_</text>
</g>
<!-- &#45;1&#45;&gt;Default_desktop_1_6_ -->
<g id="edge8" class="edge">
<title>&#45;1&#45;&gt;Default_desktop_1_6_</title>
<path fill="none" stroke="black" d="M3286.01,-89.84C3086.1,-88.6 1847.67,-79.29 1446.61,-36.09"/>
<polygon fill="black" stroke="black" points="1447.1,-32.63 1436.78,-35.01 1446.33,-39.58 1447.1,-32.63"/>
</g>
<!-- Default_desktop_2_ -->
<g id="node17" class="node">
<title>Default_desktop_2_</title>
<polygon fill="none" stroke="black" points="1589.38,-36 1453.38,-36 1453.38,0 1589.38,0 1589.38,-36"/>
<text xml:space="preserve" text-anchor="middle" x="1521.38" y="-12.2" font-family="Helvetica,sans-Serif" font-size="14.00">Default_desktop_2_</text>
</g>
<!-- &#45;1&#45;&gt;Default_desktop_2_ -->
<g id="edge9" class="edge">
<title>&#45;1&#45;&gt;Default_desktop_2_</title>
<path fill="none" stroke="black" d="M3286.14,-89.84C3096.36,-88.59 1968.24,-79.5 1600.87,-36.13"/>
<polygon fill="black" stroke="black" points="1601.55,-32.69 1591.2,-34.96 1600.7,-39.64 1601.55,-32.69"/>
</g>
<!-- Default_desktop_3_ -->
<g id="node18" class="node">
<title>Default_desktop_3_</title>
<polygon fill="none" stroke="black" points="1743.38,-36 1607.38,-36 1607.38,0 1743.38,0 1743.38,-36"/>
<text xml:space="preserve" text-anchor="middle" x="1675.38" y="-12.2" font-family="Helvetica,sans-Serif" font-size="14.00">Default_desktop_3_</text>
</g>
<!-- &#45;1&#45;&gt;Default_desktop_3_ -->
<g id="edge10" class="edge">
<title>&#45;1&#45;&gt;Default_desktop_3_</title>
<path fill="none" stroke="black" d="M3286.02,-89.74C3106.07,-87.91 2089.33,-75.99 1754.83,-36.13"/>
<polygon fill="black" stroke="black" points="1755.55,-32.69 1745.2,-34.95 1754.7,-39.64 1755.55,-32.69"/>
</g>
<!-- Default_desktop_4_ -->
<g id="node19" class="node">
<title>Default_desktop_4_</title>
<polygon fill="none" stroke="black" points="1897.38,-36 1761.38,-36 1761.38,0 1897.38,0 1897.38,-36"/>
<text xml:space="preserve" text-anchor="middle" x="1829.38" y="-12.2" font-family="Helvetica,sans-Serif" font-size="14.00">Default_desktop_4_</text>
</g>
<!-- &#45;1&#45;&gt;Default_desktop_4_ -->
<g id="edge11" class="edge">
<title>&#45;1&#45;&gt;Default_desktop_4_</title>
<path fill="none" stroke="black" d="M3286.01,-89.62C3116.84,-87.16 2211.04,-72.53 1909.04,-36.16"/>
<polygon fill="black" stroke="black" points="1909.56,-32.7 1899.2,-34.94 1908.69,-39.65 1909.56,-32.7"/>
</g>
<!-- Default_desktop_5_ -->
<g id="node20" class="node">
<title>Default_desktop_5_</title>
<polygon fill="none" stroke="black" points="2051.38,-36 1915.38,-36 1915.38,0 2051.38,0 2051.38,-36"/>
<text xml:space="preserve" text-anchor="middle" x="1983.38" y="-12.2" font-family="Helvetica,sans-Serif" font-size="14.00">Default_desktop_5_</text>
</g>
<!-- &#45;1&#45;&gt;Default_desktop_5_ -->
<g id="edge12" class="edge">
<title>&#45;1&#45;&gt;Default_desktop_5_</title>
<path fill="none" stroke="black" d="M3285.96,-89.47C3128.02,-86.31 2332.19,-69.07 2062.97,-36.16"/>
<polygon fill="black" stroke="black" points="2063.56,-32.71 2053.2,-34.92 2062.68,-39.65 2063.56,-32.71"/>
</g>
<!-- Default_desktop_6_ -->
<g id="node21" class="node">
<title>Default_desktop_6_</title>
<polygon fill="none" stroke="black" points="2205.38,-36 2069.38,-36 2069.38,0 2205.38,0 2205.38,-36"/>
<text xml:space="preserve" text-anchor="middle" x="2137.38" y="-12.2" font-family="Helvetica,sans-Serif" font-size="14.00">Default_desktop_6_</text>
</g>
<!-- &#45;1&#45;&gt;Default_desktop_6_ -->
<g id="edge13" class="edge">
<title>&#45;1&#45;&gt;Default_desktop_6_</title>
<path fill="none" stroke="black" d="M3286.03,-90.34C3162.89,-91.54 2647.4,-92.8 2216.82,-36.19"/>
<polygon fill="black" stroke="black" points="2217.58,-32.76 2207.2,-34.91 2216.65,-39.7 2217.58,-32.76"/>
</g>
<!-- Default_desktop_7_0_ -->
<g id="node22" class="node">
<title>Default_desktop_7_0_</title>
<polygon fill="none" stroke="black" points="2374.88,-36 2223.88,-36 2223.88,0 2374.88,0 2374.88,-36"/>
<text xml:space="preserve" text-anchor="middle" x="2299.38" y="-12.2" font-family="Helvetica,sans-Serif" font-size="14.00">Default_desktop_7_0_</text>
</g>
<!-- &#45;1&#45;&gt;Default_desktop_7_0_ -->
<g id="edge14" class="edge">
<title>&#45;1&#45;&gt;Default_desktop_7_0_</title>
<path fill="none" stroke="black" d="M3286.23,-89.83C3175.52,-88.83 2747.15,-82.12 2386.49,-36.3"/>
<polygon fill="black" stroke="black" points="2387.17,-32.86 2376.8,-35.06 2386.27,-39.81 2387.17,-32.86"/>
</g>
<!-- Default_desktop_7_1_ -->
<g id="node23" class="node">
<title>Default_desktop_7_1_</title>
<polygon fill="none" stroke="black" points="2543.88,-36 2392.88,-36 2392.88,0 2543.88,0 2543.88,-36"/>
<text xml:space="preserve" text-anchor="middle" x="2468.38" y="-12.2" font-family="Helvetica,sans-Serif" font-size="14.00">Default_desktop_7_1_</text>
</g>
<!-- &#45;1&#45;&gt;Default_desktop_7_1_ -->
<g id="edge15" class="edge">
<title>&#45;1&#45;&gt;Default_desktop_7_1_</title>
<path fill="none" stroke="black" d="M3285.94,-89.33C3188.01,-86.67 2846.32,-75.1 2555.5,-36.33"/>
<polygon fill="black" stroke="black" points="2556.18,-32.89 2545.81,-35.03 2555.25,-39.83 2556.18,-32.89"/>
</g>
<!-- Default_desktop_7_2_ -->
<g id="node24" class="node">
<title>Default_desktop_7_2_</title>
<polygon fill="none" stroke="black" points="2712.88,-36 2561.88,-36 2561.88,0 2712.88,0 2712.88,-36"/>
<text xml:space="preserve" text-anchor="middle" x="2637.38" y="-12.2" font-family="Helvetica,sans-Serif" font-size="14.00">Default_desktop_7_2_</text>
</g>
<!-- &#45;1&#45;&gt;Default_desktop_7_2_ -->
<g id="edge16" class="edge">
<title>&#45;1&#45;&gt;Default_desktop_7_2_</title>
<path fill="none" stroke="black" d="M3286.11,-88.57C3203.18,-84 2946.58,-68.22 2724.53,-36.38"/>
<polygon fill="black" stroke="black" points="2725.21,-32.94 2714.81,-34.97 2724.21,-39.87 2725.21,-32.94"/>
</g>
<!-- Default_desktop_7_3_ -->
<g id="node25" class="node">
<title>Default_desktop_7_3_</title>
<polygon fill="none" stroke="black" points="2881.88,-36 2730.88,-36 2730.88,0 2881.88,0 2881.88,-36"/>
<text xml:space="preserve" text-anchor="middle" x="2806.38" y="-12.2" font-family="Helvetica,sans-Serif" font-size="14.00">Default_desktop_7_3_</text>
</g>
<!-- &#45;1&#45;&gt;Default_desktop_7_3_ -->
<g id="edge17" class="edge">
<title>&#45;1&#45;&gt;Default_desktop_7_3_</title>
<path fill="none" stroke="black" d="M3286.06,-87.21C3220.22,-80.34 3047.39,-61.41 2893.39,-36.44"/>
<polygon fill="black" stroke="black" points="2894.26,-33.04 2883.83,-34.87 2893.13,-39.94 2894.26,-33.04"/>
</g>
<!-- Default_desktop_7_4_ -->
<g id="node26" class="node">
<title>Default_desktop_7_4_</title>
<polygon fill="none" stroke="black" points="3050.88,-36 2899.88,-36 2899.88,0 3050.88,0 3050.88,-36"/>
<text xml:space="preserve" text-anchor="middle" x="2975.38" y="-12.2" font-family="Helvetica,sans-Serif" font-size="14.00">Default_desktop_7_4_</text>
</g>
<!-- &#45;1&#45;&gt;Default_desktop_7_4_ -->
<g id="edge18" class="edge">
<title>&#45;1&#45;&gt;Default_desktop_7_4_</title>
<path fill="none" stroke="black" d="M3286,-84.25C3237.87,-74.14 3136.17,-52.78 3062.21,-37.24"/>
<polygon fill="black" stroke="black" points="3063.04,-33.84 3052.53,-35.21 3061.6,-40.69 3063.04,-33.84"/>
</g>
<!-- Default_desktop_7_5_ -->
<g id="node27" class="node">
<title>Default_desktop_7_5_</title>
<polygon fill="none" stroke="black" points="3219.88,-36 3068.88,-36 3068.88,0 3219.88,0 3219.88,-36"/>
<text xml:space="preserve" text-anchor="middle" x="3144.38" y="-12.2" font-family="Helvetica,sans-Serif" font-size="14.00">Default_desktop_7_5_</text>
</g>
<!-- &#45;1&#45;&gt;Default_desktop_7_5_ -->
<g id="edge19" class="edge">
<title>&#45;1&#45;&gt;Default_desktop_7_5_</title>
<path fill="none" stroke="black" d="M3286.22,-78.59C3262.12,-68.47 3226.24,-53.39 3196.6,-40.94"/>
<polygon fill="black" stroke="black" points="3197.96,-37.72 3187.39,-37.07 3195.25,-44.17 3197.96,-37.72"/>
</g>
<!-- Default_desktop_7_6_ -->
<g id="node28" class="node">
<title>Default_desktop_7_6_</title>
<polygon fill="none" stroke="black" points="3388.88,-36 3237.88,-36 3237.88,0 3388.88,0 3388.88,-36"/>
<text xml:space="preserve" text-anchor="middle" x="3313.38" y="-12.2" font-family="Helvetica,sans-Serif" font-size="14.00">Default_desktop_7_6_</text>
</g>
<!-- &#45;1&#45;&gt;Default_desktop_7_6_ -->
<g id="edge20" class="edge">
<title>&#45;1&#45;&gt;Default_desktop_7_6_</title>
<path fill="none" stroke="black" d="M3313.38,-72.81C3313.38,-65.23 3313.38,-56.1 3313.38,-47.54"/>
<polygon fill="black" stroke="black" points="3316.88,-47.54 3313.38,-37.54 3309.88,-47.54 3316.88,-47.54"/>
</g>
<!-- Default_desktop_7_10_ -->
<g id="node29" class="node">
<title>Default_desktop_7_10_</title>
<polygon fill="none" stroke="black" points="3565.62,-36 3407.12,-36 3407.12,0 3565.62,0 3565.62,-36"/>
<text xml:space="preserve" text-anchor="middle" x="3486.38" y="-12.2" font-family="Helvetica,sans-Serif" font-size="14.00">Default_desktop_7_10_</text>
</g>
<!-- &#45;1&#45;&gt;Default_desktop_7_10_ -->
<g id="edge21" class="edge">
<title>&#45;1&#45;&gt;Default_desktop_7_10_</title>
<path fill="none" stroke="black" d="M3340.77,-75.97C3343.65,-74.59 3346.56,-73.24 3349.38,-72 3374.67,-60.81 3403.12,-49.59 3427.51,-40.38"/>
<polygon fill="black" stroke="black" points="3428.5,-43.74 3436.63,-36.95 3426.04,-37.19 3428.5,-43.74"/>
</g>
<!-- Default_desktop_7_11_ -->
<g id="node30" class="node">
<title>Default_desktop_7_11_</title>
<polygon fill="none" stroke="black" points="3742.62,-36 3584.12,-36 3584.12,0 3742.62,0 3742.62,-36"/>
<text xml:space="preserve" text-anchor="middle" x="3663.38" y="-12.2" font-family="Helvetica,sans-Serif" font-size="14.00">Default_desktop_7_11_</text>
</g>
<!-- &#45;1&#45;&gt;Default_desktop_7_11_ -->
<g id="edge22" class="edge">
<title>&#45;1&#45;&gt;Default_desktop_7_11_</title>
<path fill="none" stroke="black" d="M3340.53,-75.35C3343.46,-74.09 3346.45,-72.94 3349.38,-72 3442.39,-42.09 3472.52,-52.68 3572.6,-36.23"/>
<polygon fill="black" stroke="black" points="3573.06,-39.7 3582.33,-34.57 3571.88,-32.8 3573.06,-39.7"/>
</g>
<!-- Default_desktop_7_12_ -->
<g id="node31" class="node">
<title>Default_desktop_7_12_</title>
<polygon fill="none" stroke="black" points="3919.62,-36 3761.12,-36 3761.12,0 3919.62,0 3919.62,-36"/>
<text xml:space="preserve" text-anchor="middle" x="3840.38" y="-12.2" font-family="Helvetica,sans-Serif" font-size="14.00">Default_desktop_7_12_</text>
</g>
<!-- &#45;1&#45;&gt;Default_desktop_7_12_ -->
<g id="edge23" class="edge">
<title>&#45;1&#45;&gt;Default_desktop_7_12_</title>
<path fill="none" stroke="black" d="M3340.87,-74.97C3343.69,-73.82 3346.55,-72.8 3349.38,-72 3518.41,-24.04 3571.55,-59.34 3749.52,-36.13"/>
<polygon fill="black" stroke="black" points="3749.92,-39.61 3759.36,-34.8 3748.98,-32.67 3749.92,-39.61"/>
</g>
<!-- Default_desktop_8_ -->
<g id="node32" class="node">
<title>Default_desktop_8_</title>
<polygon fill="none" stroke="black" points="4073.38,-36 3937.38,-36 3937.38,0 4073.38,0 4073.38,-36"/>
<text xml:space="preserve" text-anchor="middle" x="4005.38" y="-12.2" font-family="Helvetica,sans-Serif" font-size="14.00">Default_desktop_8_</text>
</g>
<!-- &#45;1&#45;&gt;Default_desktop_8_ -->
<g id="edge24" class="edge">
<title>&#45;1&#45;&gt;Default_desktop_8_</title>
<path fill="none" stroke="black" d="M3340.84,-74.89C3343.67,-73.76 3346.54,-72.76 3349.38,-72 3594.82,-5.95 3670.91,-70.03 3925.94,-36.18"/>
<polygon fill="black" stroke="black" points="3926.11,-39.69 3935.54,-34.87 3925.16,-32.76 3926.11,-39.69"/>
</g>
<!-- Default_desktop_9_ -->
<g id="node33" class="node">
<title>Default_desktop_9_</title>
<polygon fill="none" stroke="black" points="4227.38,-36 4091.38,-36 4091.38,0 4227.38,0 4227.38,-36"/>
<text xml:space="preserve" text-anchor="middle" x="4159.38" y="-12.2" font-family="Helvetica,sans-Serif" font-size="14.00">Default_desktop_9_</text>
</g>
<!-- &#45;1&#45;&gt;Default_desktop_9_ -->
<g id="edge25" class="edge">
<title>&#45;1&#45;&gt;Default_desktop_9_</title>
<path fill="none" stroke="black" d="M3340.83,-74.85C3343.66,-73.73 3346.54,-72.74 3349.38,-72 3503.74,-31.54 3903.08,-56.53 4079.74,-36.12"/>
<polygon fill="black" stroke="black" points="4080.06,-39.61 4089.55,-34.9 4079.19,-32.66 4080.06,-39.61"/>
</g>
<!-- Default_desktop_10_ -->
<g id="node34" class="node">
<title>Default_desktop_10_</title>
<polygon fill="none" stroke="black" points="4389.12,-36 4245.62,-36 4245.62,0 4389.12,0 4389.12,-36"/>
<text xml:space="preserve" text-anchor="middle" x="4317.38" y="-12.2" font-family="Helvetica,sans-Serif" font-size="14.00">Default_desktop_10_</text>
</g>
<!-- &#45;1&#45;&gt;Default_desktop_10_ -->
<g id="edge26" class="edge">
<title>&#45;1&#45;&gt;Default_desktop_10_</title>
<path fill="none" stroke="black" d="M3320.34,-72.56C3321.02,-72.36 3321.7,-72.17 3322.38,-72 3513.41,-22.79 4013.61,-60.34 4209.38,-36 4217.31,-35.01 4225.62,-33.65 4234.04,-32.13"/>
<polygon fill="black" stroke="black" points="4234.49,-35.61 4243.67,-30.32 4233.2,-28.72 4234.49,-35.61"/>
</g>
<!-- &#45;1&#45;&gt;Default_desktop_10_ -->
<g id="edge27" class="edge">
<title>&#45;1&#45;&gt;Default_desktop_10_</title>
<path fill="none" stroke="black" d="M3338.34,-72.56C3339.02,-72.36 3339.7,-72.17 3340.38,-72 3531.41,-22.79 4031.61,-60.34 4227.38,-36 4229.57,-35.73 4231.79,-35.43 4234.03,-35.1"/>
<polygon fill="black" stroke="black" points="4234.53,-38.56 4243.86,-33.53 4233.43,-31.65 4234.53,-38.56"/>
</g>
<!-- &#45;1&#45;&gt;Default_desktop_10_ -->
<g id="edge28" class="edge">
<title>&#45;1&#45;&gt;Default_desktop_10_</title>
<path fill="none" stroke="black" d="M3340.48,-78.9C3346.31,-76.14 3352.42,-73.53 3358.38,-72 3545.78,-23.73 4030.68,-58.95 4233.87,-37.32"/>
<polygon fill="black" stroke="black" points="4234.05,-40.83 4243.58,-36.21 4233.25,-33.87 4234.05,-40.83"/>
</g>
<!-- &#45;1&#45;&gt;Default_desktop_10_ -->
<g id="edge29" class="edge">
<title>&#45;1&#45;&gt;Default_desktop_10_</title>
<path fill="none" stroke="black" d="M3340.86,-85.4C3354.33,-81.04 3365.62,-74.77 3376.38,-72 3562.59,-24.03 4042.53,-58.5 4247.96,-37.73"/>
<polygon fill="black" stroke="black" points="4248.25,-41.22 4257.81,-36.65 4247.49,-34.26 4248.25,-41.22"/>
</g>
<!-- Default_desktop_11_ -->
<g id="node35" class="node">
<title>Default_desktop_11_</title>
<polygon fill="none" stroke="black" points="4551.12,-36 4407.62,-36 4407.62,0 4551.12,0 4551.12,-36"/>
<text xml:space="preserve" text-anchor="middle" x="4479.38" y="-12.2" font-family="Helvetica,sans-Serif" font-size="14.00">Default_desktop_11_</text>
</g>
<!-- &#45;1&#45;&gt;Default_desktop_11_ -->
<g id="edge30" class="edge">
<title>&#45;1&#45;&gt;Default_desktop_11_</title>
<path fill="none" stroke="black" d="M3340.82,-74.81C3343.65,-73.69 3346.53,-72.72 3349.38,-72 3572.01,-15.39 4149,-62.58 4396.33,-36.03"/>
<polygon fill="black" stroke="black" points="4396.45,-39.54 4405.99,-34.93 4395.66,-32.59 4396.45,-39.54"/>
</g>
<!-- Default_desktop_12_ -->
<g id="node36" class="node">
<title>Default_desktop_12_</title>
<polygon fill="none" stroke="black" points="4713.12,-36 4569.62,-36 4569.62,0 4713.12,0 4713.12,-36"/>
<text xml:space="preserve" text-anchor="middle" x="4641.38" y="-12.2" font-family="Helvetica,sans-Serif" font-size="14.00">Default_desktop_12_</text>
</g>
<!-- &#45;1&#45;&gt;Default_desktop_12_ -->
<g id="edge31" class="edge">
<title>&#45;1&#45;&gt;Default_desktop_12_</title>
<path fill="none" stroke="black" d="M3340.82,-74.8C3343.65,-73.68 3346.53,-72.72 3349.38,-72 3607.01,-7.12 4275.1,-66.17 4558.35,-36.03"/>
<polygon fill="black" stroke="black" points="4558.45,-39.54 4567.99,-34.94 4557.66,-32.59 4558.45,-39.54"/>
</g>
<!-- Default_desktop_13_ -->
<g id="node37" class="node">
<title>Default_desktop_13_</title>
<polygon fill="none" stroke="black" points="4875.12,-36 4731.62,-36 4731.62,0 4875.12,0 4875.12,-36"/>
<text xml:space="preserve" text-anchor="middle" x="4803.38" y="-12.2" font-family="Helvetica,sans-Serif" font-size="14.00">Default_desktop_13_</text>
</g>
<!-- &#45;1&#45;&gt;Default_desktop_13_ -->
<g id="edge32" class="edge">
<title>&#45;1&#45;&gt;Default_desktop_13_</title>
<path fill="none" stroke="black" d="M3329.34,-72.55C3330.02,-72.35 3330.7,-72.17 3331.38,-72 3627.48,2.01 4401.23,-71.49 4704.38,-36 4709.54,-35.39 4714.87,-34.62 4720.26,-33.74"/>
<polygon fill="black" stroke="black" points="4720.64,-37.22 4729.89,-32.05 4719.43,-30.33 4720.64,-37.22"/>
</g>
<!-- &#45;1&#45;&gt;Default_desktop_13_ -->
<g id="edge33" class="edge">
<title>&#45;1&#45;&gt;Default_desktop_13_</title>
<path fill="none" stroke="black" d="M3340.82,-74.79C3343.65,-73.67 3346.53,-72.71 3349.38,-72 3642.01,1.14 4401.16,-69.79 4720.33,-36.03"/>
<polygon fill="black" stroke="black" points="4720.44,-39.54 4729.99,-34.96 4719.67,-32.59 4720.44,-39.54"/>
</g>
<!-- &#45;1&#45;&gt;Default_desktop_13_ -->
<g id="edge34" class="edge">
<title>&#45;1&#45;&gt;Default_desktop_13_</title>
<path fill="none" stroke="black" d="M3340.62,-82.63C3349.7,-78.67 3358.7,-74.17 3367.38,-72 3658.58,0.79 4411.75,-69.1 4724.94,-37.67"/>
<polygon fill="black" stroke="black" points="4725.27,-41.16 4734.85,-36.62 4724.53,-34.2 4725.27,-41.16"/>
</g>
<!-- Default_desktop_28_ -->
<g id="node41" class="node">
<title>Default_desktop_28_</title>
<polygon fill="none" stroke="black" points="5037.12,-36 4893.62,-36 4893.62,0 5037.12,0 5037.12,-36"/>
<text xml:space="preserve" text-anchor="middle" x="4965.38" y="-12.2" font-family="Helvetica,sans-Serif" font-size="14.00">Default_desktop_28_</text>
</g>
<!-- &#45;1&#45;&gt;Default_desktop_28_ -->
<g id="edge35" class="edge">
<title>&#45;1&#45;&gt;Default_desktop_28_</title>
<path fill="none" stroke="black" d="M3340.82,-74.78C3343.64,-73.67 3346.53,-72.71 3349.38,-72 3511.79,-31.64 4669.58,-54.68 4882.2,-35.94"/>
<polygon fill="black" stroke="black" points="4882.39,-39.44 4891.99,-34.95 4881.69,-32.47 4882.39,-39.44"/>
</g>
<!-- Default_desktop_29_ -->
<g id="node42" class="node">
<title>Default_desktop_29_</title>
<polygon fill="none" stroke="black" points="5199.12,-36 5055.62,-36 5055.62,0 5199.12,0 5199.12,-36"/>
<text xml:space="preserve" text-anchor="middle" x="5127.38" y="-12.2" font-family="Helvetica,sans-Serif" font-size="14.00">Default_desktop_29_</text>
</g>
<!-- &#45;1&#45;&gt;Default_desktop_29_ -->
<g id="edge36" class="edge">
<title>&#45;1&#45;&gt;Default_desktop_29_</title>
<path fill="none" stroke="black" d="M3340.81,-74.77C3343.64,-73.66 3346.53,-72.7 3349.38,-72 3529.24,-27.52 4812.72,-56.4 5044.1,-35.95"/>
<polygon fill="black" stroke="black" points="5044.39,-39.44 5053.99,-34.96 5043.69,-32.48 5044.39,-39.44"/>
</g>
<!-- Default_desktop_30_ -->
<g id="node43" class="node">
<title>Default_desktop_30_</title>
<polygon fill="none" stroke="black" points="5361.12,-36 5217.62,-36 5217.62,0 5361.12,0 5361.12,-36"/>
<text xml:space="preserve" text-anchor="middle" x="5289.38" y="-12.2" font-family="Helvetica,sans-Serif" font-size="14.00">Default_desktop_30_</text>
</g>
<!-- &#45;1&#45;&gt;Default_desktop_30_ -->
<g id="edge37" class="edge">
<title>&#45;1&#45;&gt;Default_desktop_30_</title>
<path fill="none" stroke="black" d="M3340.81,-74.77C3343.64,-73.66 3346.53,-72.7 3349.38,-72 3546.74,-23.39 4956.6,-58.16 5206.18,-35.95"/>
<polygon fill="black" stroke="black" points="5206.39,-39.45 5215.99,-34.97 5205.69,-32.48 5206.39,-39.45"/>
</g>
<!-- _ -->
<g id="node5" class="node">
<title>_</title>
<polygon fill="none" stroke="black" points="3412.38,-109 3358.38,-109 3358.38,-73 3412.38,-73 3412.38,-109"/>
<text xml:space="preserve" text-anchor="middle" x="3385.38" y="-85.2" font-family="Helvetica,sans-Serif" font-size="14.00">_</text>
</g>
<!-- _Chrome -->
<g id="node6" class="node">
<title>_Chrome</title>
<polygon fill="none" stroke="black" points="3494.75,-110 3430,-110 3430,-72 3494.75,-72 3494.75,-110"/>
<text xml:space="preserve" text-anchor="middle" x="3462.38" y="-92.7" font-family="Helvetica,sans-Serif" font-size="14.00">InApp</text>
<text xml:space="preserve" text-anchor="middle" x="3462.38" y="-77.7" font-family="Helvetica,sans-Serif" font-size="14.00">Chrome</text>
</g>
<!-- _VSCode -->
<g id="node7" class="node">
<title>_VSCode</title>
<polygon fill="none" stroke="black" points="3579.5,-110 3513.25,-110 3513.25,-72 3579.5,-72 3579.5,-110"/>
<text xml:space="preserve" text-anchor="middle" x="3546.38" y="-92.7" font-family="Helvetica,sans-Serif" font-size="14.00">InApp</text>
<text xml:space="preserve" text-anchor="middle" x="3546.38" y="-77.7" font-family="Helvetica,sans-Serif" font-size="14.00">VSCode</text>
</g>
<!-- _iTerm -->
<g id="node8" class="node">
<title>_iTerm</title>
<polygon fill="none" stroke="black" points="3651.38,-110 3597.38,-110 3597.38,-72 3651.38,-72 3651.38,-110"/>
<text xml:space="preserve" text-anchor="middle" x="3624.38" y="-92.7" font-family="Helvetica,sans-Serif" font-size="14.00">InApp</text>
<text xml:space="preserve" text-anchor="middle" x="3624.38" y="-77.7" font-family="Helvetica,sans-Serif" font-size="14.00">iTerm</text>
</g>
<!-- _nil -->
<g id="node9" class="node">
<title>_nil</title>
<polygon fill="none" stroke="black" points="3727.38,-109 3669.38,-109 3669.38,-73 3727.38,-73 3727.38,-109"/>
<text xml:space="preserve" text-anchor="middle" x="3698.38" y="-85.2" font-family="Helvetica,sans-Serif" font-size="14.00">L&#45;Exec</text>
</g>
<!-- Default_desktop_1_0_ -->
<g id="node10" class="node">
<title>Default_desktop_1_0_</title>
<polygon fill="none" stroke="black" points="3896.88,-109 3745.88,-109 3745.88,-73 3896.88,-73 3896.88,-109"/>
<text xml:space="preserve" text-anchor="middle" x="3821.38" y="-85.2" font-family="Helvetica,sans-Serif" font-size="14.00">Default_desktop_1_0_</text>
</g>
<!-- _0_nil -->
<g id="node38" class="node">
<title>_0_nil</title>
<polygon fill="none" stroke="black" points="3997.75,-110 3915,-110 3915,-72 3997.75,-72 3997.75,-110"/>
<text xml:space="preserve" text-anchor="middle" x="3956.38" y="-92.7" font-family="Helvetica,sans-Serif" font-size="14.00">Label</text>
<text xml:space="preserve" text-anchor="middle" x="3956.38" y="-77.7" font-family="Helvetica,sans-Serif" font-size="14.00">return&#45;to=0</text>
</g>
<!-- _1_nil -->
<g id="node39" class="node">
<title>_1_nil</title>
<polygon fill="none" stroke="black" points="4098.75,-110 4016,-110 4016,-72 4098.75,-72 4098.75,-110"/>
<text xml:space="preserve" text-anchor="middle" x="4057.38" y="-92.7" font-family="Helvetica,sans-Serif" font-size="14.00">Label</text>
<text xml:space="preserve" text-anchor="middle" x="4057.38" y="-77.7" font-family="Helvetica,sans-Serif" font-size="14.00">return&#45;to=1</text>
</g>
<!-- _7_nil -->
<g id="node40" class="node">
<title>_7_nil</title>
<polygon fill="none" stroke="black" points="4199.75,-110 4117,-110 4117,-72 4199.75,-72 4199.75,-110"/>
<text xml:space="preserve" text-anchor="middle" x="4158.38" y="-92.7" font-family="Helvetica,sans-Serif" font-size="14.00">Label</text>
<text xml:space="preserve" text-anchor="middle" x="4158.38" y="-77.7" font-family="Helvetica,sans-Serif" font-size="14.00">return&#45;to=7</text>
</g>
<!-- none_nil_nil_nil_nil -->
<g id="node44" class="node">
<title>none_nil_nil_nil_nil</title>
<polygon fill="none" stroke="black" points="318.38,-109 188.38,-109 188.38,-73 318.38,-73 318.38,-109"/>
<text xml:space="preserve" text-anchor="middle" x="253.38" y="-85.2" font-family="Helvetica,sans-Serif" font-size="14.00">none_nil_nil_nil_nil</text>
</g>
<!-- none_nil_nil_nil_nil&#45;&gt;Default_desktop_0_ -->
<g id="edge2" class="edge">
<title>none_nil_nil_nil_nil&#45;&gt;Default_desktop_0_</title>
<path fill="none" stroke="black" d="M232.8,-72.81C222.23,-63.98 209.16,-53.07 197.57,-43.39"/>
<polygon fill="black" stroke="black" points="200.14,-40.97 190.22,-37.25 195.65,-46.34 200.14,-40.97"/>
</g>
<!-- Default_laptop_nil_nil_nil -->
<g id="node45" class="node">
<title>Default_laptop_nil_nil_nil</title>
<polygon fill="none" stroke="black" points="420.38,-36 254.38,-36 254.38,0 420.38,0 420.38,-36"/>
<text xml:space="preserve" text-anchor="middle" x="337.38" y="-12.2" font-family="Helvetica,sans-Serif" font-size="14.00">Default_laptop_nil_nil_nil</text>
</g>
<!-- none_nil_nil_nil_nil&#45;&gt;Default_laptop_nil_nil_nil -->
<g id="edge1" class="edge">
<title>none_nil_nil_nil_nil&#45;&gt;Default_laptop_nil_nil_nil</title>
<path fill="none" stroke="black" d="M273.71,-72.81C284.05,-64.07 296.81,-53.28 308.19,-43.67"/>
<polygon fill="black" stroke="black" points="310.4,-46.38 315.78,-37.25 305.88,-41.03 310.4,-46.38"/>
</g>
</g>
</svg>
