<?xml version="1.0" encoding="UTF-8" standalone="no"?>
<!DOCTYPE svg PUBLIC "-//W3C//DTD SVG 1.1//EN"
 "http://www.w3.org/Graphics/SVG/1.1/DTD/svg11.dtd">
<!-- Generated by graphviz version 14.1.2 (20260124.0452)
 -->
<!-- Title: states Pages: 1 -->
<svg width="5191pt" height="118pt"
 viewBox="0.00 0.00 5191.00 118.00" xmlns="http://www.w3.org/2000/svg" xmlns:xlink="http://www.w3.org/1999/xlink">
<g id="graph0" class="graph" transform="scale(1 1) rotate(0) translate(4 114)">
<title>states</title>
<polygon fill="white" stroke="none" points="-4,4 -4,-114 5187.12,-114 5187.12,4 -4,4"/>
<!-- None_nil_nil_nil_nil_nil -->
<g id="node1" class="node">
<title>None_nil_nil_nil_nil_nil</title>
<polygon fill="none" stroke="black" points="94.75,-110 0,-110 0,-72 94.75,-72 94.75,-110"/>
<text xml:space="preserve" text-anchor="middle" x="47.38" y="-92.7" font-family="Helvetica,sans-Serif" font-size="14.00">None</text>
<text xml:space="preserve" text-anchor="middle" x="47.38" y="-77.7" font-family="Helvetica,sans-Serif" font-size="14.00">(placeholder)</text>
</g>
<!-- Default_laptop_nil_nil_nil_nil -->
<g id="node2" class="node">
<title>Default_laptop_nil_nil_nil_nil</title>
<polygon fill="none" stroke="black" points="170,-109 112.75,-109 112.75,-73 170,-73 170,-109"/>
<text xml:space="preserve" text-anchor="middle" x="141.38" y="-85.2" font-family="Helvetica,sans-Serif" font-size="14.00">Laptop</text>
</g>
<!-- Default_desktop_0_ -->
<g id="node3" class="node">
<title>Default_desktop_0_</title>
<polygon fill="none" stroke="black" points="236.38,-36 100.38,-36 100.38,0 236.38,0 236.38,-36"/>
<text xml:space="preserve" text-anchor="middle" x="168.38" y="-12.2" font-family="Helvetica,sans-Serif" font-size="14.00">Default_desktop_0_</text>
</g>
<!-- &#45;1 -->
<g id="node4" class="node">
<title>&#45;1</title>
<polygon fill="none" stroke="black" points="3178.38,-109 3124.38,-109 3124.38,-73 3178.38,-73 3178.38,-109"/>
<text xml:space="preserve" text-anchor="middle" x="3151.38" y="-85.2" font-family="Helvetica,sans-Serif" font-size="14.00">&#45;1</text>
</g>
<!-- Default_desktop_1_1_ -->
<g id="node11" class="node">
<title>Default_desktop_1_1_</title>
<polygon fill="none" stroke="black" points="589.88,-36 438.88,-36 438.88,0 589.88,0 589.88,-36"/>
<text xml:space="preserve" text-anchor="middle" x="514.38" y="-12.2" font-family="Helvetica,sans-Serif" font-size="14.00">Default_desktop_1_1_</text>
</g>
<!-- &#45;1&#45;&gt;Default_desktop_1_1_ -->
<g id="edge3" class="edge">
<title>&#45;1&#45;&gt;Default_desktop_1_1_</title>
<path fill="none" stroke="black" d="M3124.21,-90.1C2885.89,-90.83 1147.55,-94.18 601.39,-36.2"/>
<polygon fill="black" stroke="black" points="602.11,-32.76 591.79,-35.16 601.35,-39.72 602.11,-32.76"/>
</g>
<!-- Default_desktop_1_2_ -->
<g id="node12" class="node">
<title>Default_desktop_1_2_</title>
<polygon fill="none" stroke="black" points="758.88,-36 607.88,-36 607.88,0 758.88,0 758.88,-36"/>
<text xml:space="preserve" text-anchor="middle" x="683.38" y="-12.2" font-family="Helvetica,sans-Serif" font-size="14.00">Default_desktop_1_2_</text>
</g>
<!-- &#45;1&#45;&gt;Default_desktop_1_2_ -->
<g id="edge4" class="edge">
<title>&#45;1&#45;&gt;Default_desktop_1_2_</title>
<path fill="none" stroke="black" d="M3124.21,-90.05C2895.01,-90.36 1280.38,-90.59 770.39,-36.2"/>
<polygon fill="black" stroke="black" points="771.11,-32.76 760.79,-35.15 770.35,-39.72 771.11,-32.76"/>
</g>
<!-- Default_desktop_1_3_ -->
<g id="node13" class="node">
<title>Default_desktop_1_3_</title>
<polygon fill="none" stroke="black" points="927.88,-36 776.88,-36 776.88,0 927.88,0 927.88,-36"/>
<text xml:space="preserve" text-anchor="middle" x="852.38" y="-12.2" font-family="Helvetica,sans-Serif" font-size="14.00">Default_desktop_1_3_</text>
</g>
<!-- &#45;1&#45;&gt;Default_desktop_1_3_ -->
<g id="edge5" class="edge">
<title>&#45;1&#45;&gt;Default_desktop_1_3_</title>
<path fill="none" stroke="black" d="M3124.07,-89.99C2903.81,-89.85 1413.63,-87.01 939.63,-36.23"/>
<polygon fill="black" stroke="black" points="940.11,-32.76 929.79,-35.15 939.35,-39.72 940.11,-32.76"/>
</g>
<!-- Default_desktop_1_4_ -->
<g id="node14" class="node">
<title>Default_desktop_1_4_</title>
<polygon fill="none" stroke="black" points="1096.88,-36 945.88,-36 945.88,0 1096.88,0 1096.88,-36"/>
<text xml:space="preserve" text-anchor="middle" x="1021.38" y="-12.2" font-family="Helvetica,sans-Serif" font-size="14.00">Default_desktop_1_4_</text>
</g>
<!-- &#45;1&#45;&gt;Default_desktop_1_4_ -->
<g id="edge6" class="edge">
<title>&#45;1&#45;&gt;Default_desktop_1_4_</title>
<path fill="none" stroke="black" d="M3124.17,-89.93C2914.07,-89.3 1546.77,-83.45 1108.72,-36.24"/>
<polygon fill="black" stroke="black" points="1109.12,-32.76 1098.79,-35.14 1108.35,-39.72 1109.12,-32.76"/>
</g>
<!-- Default_desktop_1_5_ -->
<g id="node15" class="node">
<title>Default_desktop_1_5_</title>
<polygon fill="none" stroke="black" points="1265.88,-36 1114.88,-36 1114.88,0 1265.88,0 1265.88,-36"/>
<text xml:space="preserve" text-anchor="middle" x="1190.38" y="-12.2" font-family="Helvetica,sans-Serif" font-size="14.00">Default_desktop_1_5_</text>
</g>
<!-- &#45;1&#45;&gt;Default_desktop_1_5_ -->
<g id="edge7" class="edge">
<title>&#45;1&#45;&gt;Default_desktop_1_5_</title>
<path fill="none" stroke="black" d="M3123.89,-89.85C2923.11,-88.7 1679.35,-79.88 1277.64,-36.24"/>
<polygon fill="black" stroke="black" points="1278.12,-32.77 1267.79,-35.14 1277.34,-39.73 1278.12,-32.77"/>
</g>
<!-- Default_desktop_1_6_ -->
<g id="node16" class="node">
<title>Default_desktop_1_6_</title>
<polygon fill="none" stroke="black" points="1434.88,-36 1283.88,-36 1283.88,0 1434.88,0 1434.88,-36"/>
<text xml:space="preserve" text-anchor="middle" x="1359.38" y="-12.2" font-family="Helvetica,sans-Serif" font-size="14.00">Default_desktop_1_6_</text>
</g>
<!-- &#45;1&#45;&gt;Default_desktop_1_6_ -->
<g id="edge8" class="edge">
<title>&#45;1&#45;&gt;Default_desktop_1_6_</title>
<path fill="none" stroke="black" d="M3123.97,-89.76C2934.28,-87.98 1813.27,-75.94 1446.69,-36.11"/>
<polygon fill="black" stroke="black" points="1447.11,-32.63 1436.78,-35 1446.33,-39.59 1447.11,-32.63"/>
</g>
<!-- Default_desktop_1_10_ -->
<g id="node17" class="node">
<title>Default_desktop_1_10_</title>
<polygon fill="none" stroke="black" points="1611.62,-36 1453.12,-36 1453.12,0 1611.62,0 1611.62,-36"/>
<text xml:space="preserve" text-anchor="middle" x="1532.38" y="-12.2" font-family="Helvetica,sans-Serif" font-size="14.00">Default_desktop_1_10_</text>
</g>
<!-- &#45;1&#45;&gt;Default_desktop_1_10_ -->
<g id="edge9" class="edge">
<title>&#45;1&#45;&gt;Default_desktop_1_10_</title>
<path fill="none" stroke="black" d="M3123.98,-89.62C2946.06,-87.04 1951.94,-71.33 1623.32,-36.2"/>
<polygon fill="black" stroke="black" points="1623.74,-32.72 1613.42,-35.11 1622.98,-39.68 1623.74,-32.72"/>
</g>
<!-- Default_desktop_2_ -->
<g id="node18" class="node">
<title>Default_desktop_2_</title>
<polygon fill="none" stroke="black" points="1765.38,-36 1629.38,-36 1629.38,0 1765.38,0 1765.38,-36"/>
<text xml:space="preserve" text-anchor="middle" x="1697.38" y="-12.2" font-family="Helvetica,sans-Serif" font-size="14.00">Default_desktop_2_</text>
</g>
<!-- &#45;1&#45;&gt;Default_desktop_2_ -->
<g id="edge10" class="edge">
<title>&#45;1&#45;&gt;Default_desktop_2_</title>
<path fill="none" stroke="black" d="M3124.05,-89.59C2957.09,-87 2072.2,-71.85 1776.8,-36.13"/>
<polygon fill="black" stroke="black" points="1777.56,-32.7 1767.2,-34.93 1776.69,-39.65 1777.56,-32.7"/>
</g>
<!-- Default_desktop_3_ -->
<g id="node19" class="node">
<title>Default_desktop_3_</title>
<polygon fill="none" stroke="black" points="1919.38,-36 1783.38,-36 1783.38,0 1919.38,0 1919.38,-36"/>
<text xml:space="preserve" text-anchor="middle" x="1851.38" y="-12.2" font-family="Helvetica,sans-Serif" font-size="14.00">Default_desktop_3_</text>
</g>
<!-- &#45;1&#45;&gt;Default_desktop_3_ -->
<g id="edge11" class="edge">
<title>&#45;1&#45;&gt;Default_desktop_3_</title>
<path fill="none" stroke="black" d="M3124.11,-89.44C2968.83,-86.15 2194.14,-68.42 1931.09,-36.18"/>
<polygon fill="black" stroke="black" points="1931.56,-32.71 1921.2,-34.92 1930.68,-39.65 1931.56,-32.71"/>
</g>
<!-- Default_desktop_4_ -->
<g id="node20" class="node">
<title>Default_desktop_4_</title>
<polygon fill="none" stroke="black" points="2073.38,-36 1937.38,-36 1937.38,0 2073.38,0 2073.38,-36"/>
<text xml:space="preserve" text-anchor="middle" x="2005.38" y="-12.2" font-family="Helvetica,sans-Serif" font-size="14.00">Default_desktop_4_</text>
</g>
<!-- &#45;1&#45;&gt;Default_desktop_4_ -->
<g id="edge12" class="edge">
<title>&#45;1&#45;&gt;Default_desktop_4_</title>
<path fill="none" stroke="black" d="M3123.96,-90.29C3002.79,-91.23 2503.12,-91.43 2085.11,-36.23"/>
<polygon fill="black" stroke="black" points="2085.58,-32.76 2075.2,-34.91 2084.65,-39.7 2085.58,-32.76"/>
</g>
<!-- Default_desktop_5_ -->
<g id="node21" class="node">
<title>Default_desktop_5_</title>
<polygon fill="none" stroke="black" points="2227.38,-36 2091.38,-36 2091.38,0 2227.38,0 2227.38,-36"/>
<text xml:space="preserve" text-anchor="middle" x="2159.38" y="-12.2" font-family="Helvetica,sans-Serif" font-size="14.00">Default_desktop_5_</text>
</g>
<!-- &#45;1&#45;&gt;Default_desktop_5_ -->
<g id="edge13" class="edge">
<title>&#45;1&#45;&gt;Default_desktop_5_</title>
<path fill="none" stroke="black" d="M3123.9,-89.96C3013.73,-89.48 2593.27,-84.47 2238.96,-36.23"/>
<polygon fill="black" stroke="black" points="2239.59,-32.78 2229.21,-34.88 2238.64,-39.71 2239.59,-32.78"/>
</g>
<!-- Default_desktop_6_ -->
<g id="node22" class="node">
<title>Default_desktop_6_</title>
<polygon fill="none" stroke="black" points="2381.38,-36 2245.38,-36 2245.38,0 2381.38,0 2381.38,-36"/>
<text xml:space="preserve" text-anchor="middle" x="2313.38" y="-12.2" font-family="Helvetica,sans-Serif" font-size="14.00">Default_desktop_6_</text>
</g>
<!-- &#45;1&#45;&gt;Default_desktop_6_ -->
<g id="edge14" class="edge">
<title>&#45;1&#45;&gt;Default_desktop_6_</title>
<path fill="none" stroke="black" d="M3123.92,-89.5C3025.9,-87.42 2683.98,-77.57 2392.92,-36.24"/>
<polygon fill="black" stroke="black" points="2393.61,-32.81 2383.21,-34.85 2392.61,-39.73 2393.61,-32.81"/>
</g>
<!-- Default_desktop_7_0_ -->
<g id="node23" class="node">
<title>Default_desktop_7_0_</title>
<polygon fill="none" stroke="black" points="2550.88,-36 2399.88,-36 2399.88,0 2550.88,0 2550.88,-36"/>
<text xml:space="preserve" text-anchor="middle" x="2475.38" y="-12.2" font-family="Helvetica,sans-Serif" font-size="14.00">Default_desktop_7_0_</text>
</g>
<!-- &#45;1&#45;&gt;Default_desktop_7_0_ -->
<g id="edge15" class="edge">
<title>&#45;1&#45;&gt;Default_desktop_7_0_</title>
<path fill="none" stroke="black" d="M3124.11,-88.57C3041.18,-84 2784.58,-68.22 2562.53,-36.38"/>
<polygon fill="black" stroke="black" points="2563.21,-32.94 2552.81,-34.97 2562.21,-39.87 2563.21,-32.94"/>
</g>
<!-- Default_desktop_7_1_ -->
<g id="node24" class="node">
<title>Default_desktop_7_1_</title>
<polygon fill="none" stroke="black" points="2719.88,-36 2568.88,-36 2568.88,0 2719.88,0 2719.88,-36"/>
<text xml:space="preserve" text-anchor="middle" x="2644.38" y="-12.2" font-family="Helvetica,sans-Serif" font-size="14.00">Default_desktop_7_1_</text>
</g>
<!-- &#45;1&#45;&gt;Default_desktop_7_1_ -->
<g id="edge16" class="edge">
<title>&#45;1&#45;&gt;Default_desktop_7_1_</title>
<path fill="none" stroke="black" d="M3124.06,-87.21C3058.22,-80.34 2885.39,-61.41 2731.39,-36.44"/>
<polygon fill="black" stroke="black" points="2732.26,-33.04 2721.83,-34.87 2731.13,-39.94 2732.26,-33.04"/>
</g>
<!-- Default_desktop_7_2_ -->
<g id="node25" class="node">
<title>Default_desktop_7_2_</title>
<polygon fill="none" stroke="black" points="2888.88,-36 2737.88,-36 2737.88,0 2888.88,0 2888.88,-36"/>
<text xml:space="preserve" text-anchor="middle" x="2813.38" y="-12.2" font-family="Helvetica,sans-Serif" font-size="14.00">Default_desktop_7_2_</text>
</g>
<!-- &#45;1&#45;&gt;Default_desktop_7_2_ -->
<g id="edge17" class="edge">
<title>&#45;1&#45;&gt;Default_desktop_7_2_</title>
<path fill="none" stroke="black" d="M3124,-84.25C3075.87,-74.14 2974.17,-52.78 2900.21,-37.24"/>
<polygon fill="black" stroke="black" points="2901.04,-33.84 2890.53,-35.21 2899.6,-40.69 2901.04,-33.84"/>
</g>
<!-- Default_desktop_7_3_ -->
<g id="node26" class="node">
<title>Default_desktop_7_3_</title>
<polygon fill="none" stroke="black" points="3057.88,-36 2906.88,-36 2906.88,0 3057.88,0 3057.88,-36"/>
<text xml:space="preserve" text-anchor="middle" x="2982.38" y="-12.2" font-family="Helvetica,sans-Serif" font-size="14.00">Default_desktop_7_3_</text>
</g>
<!-- &#45;1&#45;&gt;Default_desktop_7_3_ -->
<g id="edge18" class="edge">
<title>&#45;1&#45;&gt;Default_desktop_7_3_</title>
<path fill="none" stroke="black" d="M3124.22,-78.59C3100.12,-68.47 3064.24,-53.39 3034.6,-40.94"/>
<polygon fill="black" stroke="black" points="3035.96,-37.72 3025.39,-37.07 3033.25,-44.17 3035.96,-37.72"/>
</g>
<!-- Default_desktop_7_4_ -->
<g id="node27" class="node">
<title>Default_desktop_7_4_</title>
<polygon fill="none" stroke="black" points="3226.88,-36 3075.88,-36 3075.88,0 3226.88,0 3226.88,-36"/>
<text xml:space="preserve" text-anchor="middle" x="3151.38" y="-12.2" font-family="Helvetica,sans-Serif" font-size="14.00">Default_desktop_7_4_</text>
</g>
<!-- &#45;1&#45;&gt;Default_desktop_7_4_ -->
<g id="edge19" class="edge">
<title>&#45;1&#45;&gt;Default_desktop_7_4_</title>
<path fill="none" stroke="black" d="M3151.38,-72.81C3151.38,-65.23 3151.38,-56.1 3151.38,-47.54"/>
<polygon fill="black" stroke="black" points="3154.88,-47.54 3151.38,-37.54 3147.88,-47.54 3154.88,-47.54"/>
</g>
<!-- Default_desktop_7_5_ -->
<g id="node28" class="node">
<title>Default_desktop_7_5_</title>
<polygon fill="none" stroke="black" points="3395.88,-36 3244.88,-36 3244.88,0 3395.88,0 3395.88,-36"/>
<text xml:space="preserve" text-anchor="middle" x="3320.38" y="-12.2" font-family="Helvetica,sans-Serif" font-size="14.00">Default_desktop_7_5_</text>
</g>
<!-- &#45;1&#45;&gt;Default_desktop_7_5_ -->
<g id="edge20" class="edge">
<title>&#45;1&#45;&gt;Default_desktop_7_5_</title>
<path fill="none" stroke="black" d="M3178.78,-76C3181.66,-74.61 3184.57,-73.26 3187.38,-72 3211.96,-60.98 3239.57,-49.79 3263.24,-40.55"/>
<polygon fill="black" stroke="black" points="3264.34,-43.87 3272.4,-36.99 3261.81,-37.35 3264.34,-43.87"/>
</g>
<!-- Default_desktop_7_6_ -->
<g id="node29" class="node">
<title>Default_desktop_7_6_</title>
<polygon fill="none" stroke="black" points="3564.88,-36 3413.88,-36 3413.88,0 3564.88,0 3564.88,-36"/>
<text xml:space="preserve" text-anchor="middle" x="3489.38" y="-12.2" font-family="Helvetica,sans-Serif" font-size="14.00">Default_desktop_7_6_</text>
</g>
<!-- &#45;1&#45;&gt;Default_desktop_7_6_ -->
<g id="edge21" class="edge">
<title>&#45;1&#45;&gt;Default_desktop_7_6_</title>
<path fill="none" stroke="black" d="M3178.53,-75.36C3181.47,-74.1 3184.45,-72.95 3187.38,-72 3277.41,-42.8 3306.68,-52.93 3402.35,-36.47"/>
<polygon fill="black" stroke="black" points="3402.67,-39.97 3411.9,-34.77 3401.44,-33.08 3402.67,-39.97"/>
</g>
<!-- Default_desktop_7_10_ -->
<g id="node30" class="node">
<title>Default_desktop_7_10_</title>
<polygon fill="none" stroke="black" points="3741.62,-36 3583.12,-36 3583.12,0 3741.62,0 3741.62,-36"/>
<text xml:space="preserve" text-anchor="middle" x="3662.38" y="-12.2" font-family="Helvetica,sans-Serif" font-size="14.00">Default_desktop_7_10_</text>
</g>
<!-- &#45;1&#45;&gt;Default_desktop_7_10_ -->
<g id="edge22" class="edge">
<title>&#45;1&#45;&gt;Default_desktop_7_10_</title>
<path fill="none" stroke="black" d="M3178.87,-74.98C3181.69,-73.83 3184.55,-72.81 3187.38,-72 3349.91,-25.58 3401.17,-58.91 3571.42,-36.3"/>
<polygon fill="black" stroke="black" points="3571.88,-39.77 3581.31,-34.94 3570.92,-32.84 3571.88,-39.77"/>
</g>
<!-- Default_desktop_8_ -->
<g id="node31" class="node">
<title>Default_desktop_8_</title>
<polygon fill="none" stroke="black" points="3895.38,-36 3759.38,-36 3759.38,0 3895.38,0 3895.38,-36"/>
<text xml:space="preserve" text-anchor="middle" x="3827.38" y="-12.2" font-family="Helvetica,sans-Serif" font-size="14.00">Default_desktop_8_</text>
</g>
<!-- &#45;1&#45;&gt;Default_desktop_8_ -->
<g id="edge23" class="edge">
<title>&#45;1&#45;&gt;Default_desktop_8_</title>
<path fill="none" stroke="black" d="M3178.85,-74.9C3181.67,-73.76 3184.54,-72.77 3187.38,-72 3425.89,-7.59 3499.95,-69.27 3747.87,-36.2"/>
<polygon fill="black" stroke="black" points="3748.11,-39.7 3757.54,-34.86 3747.16,-32.76 3748.11,-39.7"/>
</g>
<!-- Default_desktop_9_ -->
<g id="node32" class="node">
<title>Default_desktop_9_</title>
<polygon fill="none" stroke="black" points="4049.38,-36 3913.38,-36 3913.38,0 4049.38,0 4049.38,-36"/>
<text xml:space="preserve" text-anchor="middle" x="3981.38" y="-12.2" font-family="Helvetica,sans-Serif" font-size="14.00">Default_desktop_9_</text>
</g>
<!-- &#45;1&#45;&gt;Default_desktop_9_ -->
<g id="edge24" class="edge">
<title>&#45;1&#45;&gt;Default_desktop_9_</title>
<path fill="none" stroke="black" d="M3178.84,-74.86C3181.66,-73.73 3184.54,-72.75 3187.38,-72 3492.36,8.12 3585.97,-76.51 3901.72,-36.19"/>
<polygon fill="black" stroke="black" points="3902.09,-39.68 3911.55,-34.9 3901.18,-32.74 3902.09,-39.68"/>
</g>
<!-- Default_desktop_10_ -->
<g id="node33" class="node">
<title>Default_desktop_10_</title>
<polygon fill="none" stroke="black" points="4211.12,-36 4067.62,-36 4067.62,0 4211.12,0 4211.12,-36"/>
<text xml:space="preserve" text-anchor="middle" x="4139.38" y="-12.2" font-family="Helvetica,sans-Serif" font-size="14.00">Default_desktop_10_</text>
</g>
<!-- &#45;1&#45;&gt;Default_desktop_10_ -->
<g id="edge25" class="edge">
<title>&#45;1&#45;&gt;Default_desktop_10_</title>
<path fill="none" stroke="black" d="M3158.34,-72.56C3159.02,-72.36 3159.7,-72.17 3160.38,-72 3347.95,-23.61 3839.14,-59.98 4031.38,-36 4039.31,-35.01 4047.62,-33.65 4056.04,-32.12"/>
<polygon fill="black" stroke="black" points="4056.49,-35.6 4065.67,-30.32 4055.2,-28.72 4056.49,-35.6"/>
</g>
<!-- &#45;1&#45;&gt;Default_desktop_10_ -->
<g id="edge26" class="edge">
<title>&#45;1&#45;&gt;Default_desktop_10_</title>
<path fill="none" stroke="black" d="M3176.34,-72.56C3177.02,-72.36 3177.7,-72.17 3178.38,-72 3365.95,-23.61 3857.14,-59.98 4049.38,-36 4051.57,-35.73 4053.79,-35.42 4056.03,-35.1"/>
<polygon fill="black" stroke="black" points="4056.53,-38.56 4065.85,-33.53 4055.43,-31.65 4056.53,-38.56"/>
</g>
<!-- &#45;1&#45;&gt;Default_desktop_10_ -->
<g id="edge27" class="edge">
<title>&#45;1&#45;&gt;Default_desktop_10_</title>
<path fill="none" stroke="black" d="M3178.48,-78.9C3184.31,-76.14 3190.42,-73.54 3196.38,-72 3380.29,-24.55 3856.08,-58.59 4055.78,-37.34"/>
<polygon fill="black" stroke="black" points="4056.06,-40.83 4065.59,-36.21 4055.26,-33.87 4056.06,-40.83"/>
</g>
<!-- &#45;1&#45;&gt;Default_desktop_10_ -->
<g id="edge28" class="edge">
<title>&#45;1&#45;&gt;Default_desktop_10_</title>
<path fill="none" stroke="black" d="M3178.86,-85.4C3192.34,-81.05 3203.62,-74.78 3214.38,-72 3397.22,-24.83 3868.52,-58.19 4070.24,-37.7"/>
<polygon fill="black" stroke="black" points="4070.33,-41.22 4079.89,-36.65 4069.56,-34.26 4070.33,-41.22"/>
</g>
<!-- Default_desktop_11_ -->
<g id="node34" class="node">
<title>Default_desktop_11_</title>
<polygon fill="none" stroke="black" points="4373.12,-36 4229.62,-36 4229.62,0 4373.12,0 4373.12,-36"/>
<text xml:space="preserve" text-anchor="middle" x="4301.38" y="-12.2" font-family="Helvetica,sans-Serif" font-size="14.00">Default_desktop_11_</text>
</g>
<!-- &#45;1&#45;&gt;Default_desktop_11_ -->
<g id="edge29" class="edge">
<title>&#45;1&#45;&gt;Default_desktop_11_</title>
<path fill="none" stroke="black" d="M3178.82,-74.81C3181.65,-73.69 3184.53,-72.72 3187.38,-72 3406.49,-16.23 3974.24,-62.21 4218.13,-36.06"/>
<polygon fill="black" stroke="black" points="4218.45,-39.54 4227.99,-34.93 4217.66,-32.59 4218.45,-39.54"/>
</g>
<!-- Default_desktop_12_ -->
<g id="node35" class="node">
<title>Default_desktop_12_</title>
<polygon fill="none" stroke="black" points="4535.12,-36 4391.62,-36 4391.62,0 4535.12,0 4535.12,-36"/>
<text xml:space="preserve" text-anchor="middle" x="4463.38" y="-12.2" font-family="Helvetica,sans-Serif" font-size="14.00">Default_desktop_12_</text>
</g>
<!-- &#45;1&#45;&gt;Default_desktop_12_ -->
<g id="edge30" class="edge">
<title>&#45;1&#45;&gt;Default_desktop_12_</title>
<path fill="none" stroke="black" d="M3178.82,-74.8C3181.65,-73.68 3184.53,-72.72 3187.38,-72 3441.47,-7.96 4100.22,-65.78 4380.08,-36.06"/>
<polygon fill="black" stroke="black" points="4380.45,-39.54 4389.99,-34.94 4379.66,-32.59 4380.45,-39.54"/>
</g>
<!-- Default_desktop_13_ -->
<g id="node36" class="node">
<title>Default_desktop_13_</title>
<polygon fill="none" stroke="black" points="4697.12,-36 4553.62,-36 4553.62,0 4697.12,0 4697.12,-36"/>
<text xml:space="preserve" text-anchor="middle" x="4625.38" y="-12.2" font-family="Helvetica,sans-Serif" font-size="14.00">Default_desktop_13_</text>
</g>
<!-- &#45;1&#45;&gt;Default_desktop_13_ -->
<g id="edge31" class="edge">
<title>&#45;1&#45;&gt;Default_desktop_13_</title>
<path fill="none" stroke="black" d="M3176.34,-72.55C3177.02,-72.35 3177.7,-72.17 3178.38,-72 3471.02,1.19 4235.77,-71.12 4535.38,-36 4537.57,-35.74 4539.79,-35.46 4542.03,-35.14"/>
<polygon fill="black" stroke="black" points="4542.52,-38.61 4551.87,-33.61 4541.45,-31.69 4542.52,-38.61"/>
</g>
<!-- &#45;1&#45;&gt;Default_desktop_13_ -->
<g id="edge32" class="edge">
<title>&#45;1&#45;&gt;Default_desktop_13_</title>
<path fill="none" stroke="black" d="M3178.86,-78.66C3184.57,-75.97 3190.55,-73.46 3196.38,-72 3485.31,0.27 4234.43,-69.31 4541.75,-37.29"/>
<polygon fill="black" stroke="black" points="4541.88,-40.79 4551.43,-36.22 4541.11,-33.84 4541.88,-40.79"/>
</g>
<!-- Default_desktop_28_ -->
<g id="node39" class="node">
<title>Default_desktop_28_</title>
<polygon fill="none" stroke="black" points="4859.12,-36 4715.62,-36 4715.62,0 4859.12,0 4859.12,-36"/>
<text xml:space="preserve" text-anchor="middle" x="4787.38" y="-12.2" font-family="Helvetica,sans-Serif" font-size="14.00">Default_desktop_28_</text>
</g>
<!-- &#45;1&#45;&gt;Default_desktop_28_ -->
<g id="edge33" class="edge">
<title>&#45;1&#45;&gt;Default_desktop_28_</title>
<path fill="none" stroke="black" d="M3178.82,-74.78C3181.64,-73.67 3184.53,-72.71 3187.38,-72 3348.09,-32.04 4493.82,-54.52 4704.31,-35.93"/>
<polygon fill="black" stroke="black" points="4704.39,-39.44 4713.99,-34.95 4703.69,-32.47 4704.39,-39.44"/>
</g>
<!-- Default_desktop_29_ -->
<g id="node40" class="node">
<title>Default_desktop_29_</title>
<polygon fill="none" stroke="black" points="5021.12,-36 4877.62,-36 4877.62,0 5021.12,0 5021.12,-36"/>
<text xml:space="preserve" text-anchor="middle" x="4949.38" y="-12.2" font-family="Helvetica,sans-Serif" font-size="14.00">Default_desktop_29_</text>
</g>
<!-- &#45;1&#45;&gt;Default_desktop_29_ -->
<g id="edge34" class="edge">
<title>&#45;1&#45;&gt;Default_desktop_29_</title>
<path fill="none" stroke="black" d="M3178.81,-74.77C3181.64,-73.66 3184.53,-72.7 3187.38,-72 3365.54,-27.92 4636.92,-56.24 4866.21,-35.94"/>
<polygon fill="black" stroke="black" points="4866.39,-39.44 4875.99,-34.96 4865.69,-32.48 4866.39,-39.44"/>
</g>
<!-- Default_desktop_30_ -->
<g id="node41" class="node">
<title>Default_desktop_30_</title>
<polygon fill="none" stroke="black" points="5183.12,-36 5039.62,-36 5039.62,0 5183.12,0 5183.12,-36"/>
<text xml:space="preserve" text-anchor="middle" x="5111.38" y="-12.2" font-family="Helvetica,sans-Serif" font-size="14.00">Default_desktop_30_</text>
</g>
<!-- &#45;1&#45;&gt;Default_desktop_30_ -->
<g id="edge35" class="edge">
<title>&#45;1&#45;&gt;Default_desktop_30_</title>
<path fill="none" stroke="black" d="M3178.81,-74.77C3181.64,-73.66 3184.53,-72.7 3187.38,-72 3383.04,-23.79 4780.77,-57.99 5028.28,-35.94"/>
<polygon fill="black" stroke="black" points="5028.39,-39.45 5037.99,-34.97 5027.69,-32.48 5028.39,-39.45"/>
</g>
<!-- _ -->
<g id="node5" class="node">
<title>_</title>
<polygon fill="none" stroke="black" points="3250.38,-109 3196.38,-109 3196.38,-73 3250.38,-73 3250.38,-109"/>
<text xml:space="preserve" text-anchor="middle" x="3223.38" y="-85.2" font-family="Helvetica,sans-Serif" font-size="14.00">_</text>
</g>
<!-- _Chrome -->
<g id="node6" class="node">
<title>_Chrome</title>
<polygon fill="none" stroke="black" points="3332.75,-110 3268,-110 3268,-72 3332.75,-72 3332.75,-110"/>
<text xml:space="preserve" text-anchor="middle" x="3300.38" y="-92.7" font-family="Helvetica,sans-Serif" font-size="14.00">InApp</text>
<text xml:space="preserve" text-anchor="middle" x="3300.38" y="-77.7" font-family="Helvetica,sans-Serif" font-size="14.00">Chrome</text>
</g>
<!-- _VSCode -->
<g id="node7" class="node">
<title>_VSCode</title>
<polygon fill="none" stroke="black" points="3417.5,-110 3351.25,-110 3351.25,-72 3417.5,-72 3417.5,-110"/>
<text xml:space="preserve" text-anchor="middle" x="3384.38" y="-92.7" font-family="Helvetica,sans-Serif" font-size="14.00">InApp</text>
<text xml:space="preserve" text-anchor="middle" x="3384.38" y="-77.7" font-family="Helvetica,sans-Serif" font-size="14.00">VSCode</text>
</g>
<!-- _iTerm -->
<g id="node8" class="node">
<title>_iTerm</title>
<polygon fill="none" stroke="black" points="3489.38,-110 3435.38,-110 3435.38,-72 3489.38,-72 3489.38,-110"/>
<text xml:space="preserve" text-anchor="middle" x="3462.38" y="-92.7" font-family="Helvetica,sans-Serif" font-size="14.00">InApp</text>
<text xml:space="preserve" text-anchor="middle" x="3462.38" y="-77.7" font-family="Helvetica,sans-Serif" font-size="14.00">iTerm</text>
</g>
<!-- _nil -->
<g id="node9" class="node">
<title>_nil</title>
<polygon fill="none" stroke="black" points="3565.38,-109 3507.38,-109 3507.38,-73 3565.38,-73 3565.38,-109"/>
<text xml:space="preserve" text-anchor="middle" x="3536.38" y="-85.2" font-family="Helvetica,sans-Serif" font-size="14.00">L&#45;Exec</text>
</g>
<!-- Default_desktop_1_0_ -->
<g id="node10" class="node">
<title>Default_desktop_1_0_</title>
<polygon fill="none" stroke="black" points="3734.88,-109 3583.88,-109 3583.88,-73 3734.88,-73 3734.88,-109"/>
<text xml:space="preserve" text-anchor="middle" x="3659.38" y="-85.2" font-family="Helvetica,sans-Serif" font-size="14.00">Default_desktop_1_0_</text>
</g>
<!-- _0_nil -->
<g id="node37" class="node">
<title>_0_nil</title>
<polygon fill="none" stroke="black" points="3835.75,-110 3753,-110 3753,-72 3835.75,-72 3835.75,-110"/>
<text xml:space="preserve" text-anchor="middle" x="3794.38" y="-92.7" font-family="Helvetica,sans-Serif" font-size="14.00">Label</text>
<text xml:space="preserve" text-anchor="middle" x="3794.38" y="-77.7" font-family="Helvetica,sans-Serif" font-size="14.00">return&#45;to=0</text>
</g>
<!-- _1_nil -->
<g id="node38" class="node">
<title>_1_nil</title>
<polygon fill="none" stroke="black" points="3936.75,-110 3854,-110 3854,-72 3936.75,-72 3936.75,-110"/>
<text xml:space="preserve" text-anchor="middle" x="3895.38" y="-92.7" font-family="Helvetica,sans-Serif" font-size="14.00">Label</text>
<text xml:space="preserve" text-anchor="middle" x="3895.38" y="-77.7" font-family="Helvetica,sans-Serif" font-size="14.00">return&#45;to=1</text>
</g>
<!-- none_nil_nil_nil_nil -->
<g id="node42" class="node">
<title>none_nil_nil_nil_nil</title>
<polygon fill="none" stroke="black" points="318.38,-109 188.38,-109 188.38,-73 318.38,-73 318.38,-109"/>
<text xml:space="preserve" text-anchor="middle" x="253.38" y="-85.2" font-family="Helvetica,sans-Serif" font-size="14.00">none_nil_nil_nil_nil</text>
</g>
<!-- none_nil_nil_nil_nil&#45;&gt;Default_desktop_0_ -->
<g id="edge2" class="edge">
<title>none_nil_nil_nil_nil&#45;&gt;Default_desktop_0_</title>
<path fill="none" stroke="black" d="M232.8,-72.81C222.23,-63.98 209.16,-53.07 197.57,-43.39"/>
<polygon fill="black" stroke="black" points="200.14,-40.97 190.22,-37.25 195.65,-46.34 200.14,-40.97"/>
</g>
<!-- Default_laptop_nil_nil_nil -->
<g id="node43" class="node">
<title>Default_laptop_nil_nil_nil</title>
<polygon fill="none" stroke="black" points="420.38,-36 254.38,-36 254.38,0 420.38,0 420.38,-36"/>
<text xml:space="preserve" text-anchor="middle" x="337.38" y="-12.2" font-family="Helvetica,sans-Serif" font-size="14.00">Default_laptop_nil_nil_nil</text>
</g>
<!-- none_nil_nil_nil_nil&#45;&gt;Default_laptop_nil_nil_nil -->
<g id="edge1" class="edge">
<title>none_nil_nil_nil_nil&#45;&gt;Default_laptop_nil_nil_nil</title>
<path fill="none" stroke="black" d="M273.71,-72.81C284.05,-64.07 296.81,-53.28 308.19,-43.67"/>
<polygon fill="black" stroke="black" points="310.4,-46.38 315.78,-37.25 305.88,-41.03 310.4,-46.38"/>
</g>
</g>
</svg>
