<?xml version="1.0" encoding="UTF-8" standalone="no"?>
<!DOCTYPE svg PUBLIC "-//W3C//DTD SVG 1.1//EN"
 "http://www.w3.org/Graphics/SVG/1.1/DTD/svg11.dtd">
<!-- Generated by graphviz version 14.1.2 (20260124.0452)
 -->
<!-- Title: states Pages: 1 -->
<svg width="5545pt" height="118pt"
 viewBox="0.00 0.00 5545.00 118.00" xmlns="http://www.w3.org/2000/svg" xmlns:xlink="http://www.w3.org/1999/xlink">
<g id="graph0" class="graph" transform="scale(1 1) rotate(0) translate(4 114)">
<title>states</title>
<polygon fill="white" stroke="none" points="-4,4 -4,-114 5541.12,-114 5541.12,4 -4,4"/>
<!-- None_nil_nil_nil_nil_nil -->
<g id="node1" class="node">
<title>None_nil_nil_nil_nil_nil</title>
<polygon fill="none" stroke="black" points="94.75,-110 0,-110 0,-72 94.75,-72 94.75,-110"/>
<text xml:space="preserve" text-anchor="middle" x="47.38" y="-92.7" font-family="Helvetica,sans-Serif" font-size="14.00">None</text>
<text xml:space="preserve" text-anchor="middle" x="47.38" y="-77.7" font-family="Helvetica,sans-Serif" font-size="14.00">(placeholder)</text>
</g>
<!-- Default_laptop_nil_nil_nil_nil -->
<g id="node2" class="node">
<title>Default_laptop_nil_nil_nil_nil</title>
<polygon fill="none" stroke="black" points="170,-109 112.75,-109 112.75,-73 170,-73 170,-109"/>
<text xml:space="preserve" text-anchor="middle" x="141.38" y="-85.2" font-family="Helvetica,sans-Serif" font-size="14.00">Laptop</text>
</g>
<!-- Default_desktop_0_ -->
<g id="node3" class="node">
<title>Default_desktop_0_</title>
<polygon fill="none" stroke="black" points="236.38,-36 100.38,-36 100.38,0 236.38,0 236.38,-36"/>
<text xml:space="preserve" text-anchor="middle" x="168.38" y="-12.2" font-family="Helvetica,sans-Serif" font-size="14.00">Default_desktop_0_</text>
</g>
<!-- &#45;1 -->
<g id="node4" class="node">
<title>&#45;1</title>
<polygon fill="none" stroke="black" points="3355.38,-109 3301.38,-109 3301.38,-73 3355.38,-73 3355.38,-109"/>
<text xml:space="preserve" text-anchor="middle" x="3328.38" y="-85.2" font-family="Helvetica,sans-Serif" font-size="14.00">&#45;1</text>
</g>
<!-- Default_desktop_1_1_ -->
<g id="node11" class="node">
<title>Default_desktop_1_1_</title>
<polygon fill="none" stroke="black" points="589.88,-36 438.88,-36 438.88,0 589.88,0 589.88,-36"/>
<text xml:space="preserve" text-anchor="middle" x="514.38" y="-12.2" font-family="Helvetica,sans-Serif" font-size="14.00">Default_desktop_1_1_</text>
</g>
<!-- &#45;1&#45;&gt;Default_desktop_1_1_ -->
<g id="edge3" class="edge">
<title>&#45;1&#45;&gt;Default_desktop_1_1_</title>
<path fill="none" stroke="black" d="M3300.92,-90.14C3052.23,-91.31 1185.09,-97.92 601.31,-36.19"/>
<polygon fill="black" stroke="black" points="602.11,-32.76 591.79,-35.16 601.36,-39.72 602.11,-32.76"/>
</g>
<!-- Default_desktop_1_2_ -->
<g id="node12" class="node">
<title>Default_desktop_1_2_</title>
<polygon fill="none" stroke="black" points="758.88,-36 607.88,-36 607.88,0 758.88,0 758.88,-36"/>
<text xml:space="preserve" text-anchor="middle" x="683.38" y="-12.2" font-family="Helvetica,sans-Serif" font-size="14.00">Default_desktop_1_2_</text>
</g>
<!-- &#45;1&#45;&gt;Default_desktop_1_2_ -->
<g id="edge4" class="edge">
<title>&#45;1&#45;&gt;Default_desktop_1_2_</title>
<path fill="none" stroke="black" d="M3301.12,-90.1C3062.06,-90.86 1318.27,-94.34 770.43,-36.2"/>
<polygon fill="black" stroke="black" points="771.11,-32.76 760.79,-35.16 770.35,-39.72 771.11,-32.76"/>
</g>
<!-- Default_desktop_1_3_ -->
<g id="node13" class="node">
<title>Default_desktop_1_3_</title>
<polygon fill="none" stroke="black" points="927.88,-36 776.88,-36 776.88,0 927.88,0 927.88,-36"/>
<text xml:space="preserve" text-anchor="middle" x="852.38" y="-12.2" font-family="Helvetica,sans-Serif" font-size="14.00">Default_desktop_1_3_</text>
</g>
<!-- &#45;1&#45;&gt;Default_desktop_1_3_ -->
<g id="edge5" class="edge">
<title>&#45;1&#45;&gt;Default_desktop_1_3_</title>
<path fill="none" stroke="black" d="M3301.12,-90.05C3071.15,-90.38 1451.1,-90.76 939.43,-36.21"/>
<polygon fill="black" stroke="black" points="940.11,-32.76 929.79,-35.15 939.35,-39.72 940.11,-32.76"/>
</g>
<!-- Default_desktop_1_4_ -->
<g id="node14" class="node">
<title>Default_desktop_1_4_</title>
<polygon fill="none" stroke="black" points="1096.88,-36 945.88,-36 945.88,0 1096.88,0 1096.88,-36"/>
<text xml:space="preserve" text-anchor="middle" x="1021.38" y="-12.2" font-family="Helvetica,sans-Serif" font-size="14.00">Default_desktop_1_4_</text>
</g>
<!-- &#45;1&#45;&gt;Default_desktop_1_4_ -->
<g id="edge6" class="edge">
<title>&#45;1&#45;&gt;Default_desktop_1_4_</title>
<path fill="none" stroke="black" d="M3300.97,-90C3079.92,-89.87 1584.36,-87.17 1108.67,-36.23"/>
<polygon fill="black" stroke="black" points="1109.11,-32.76 1098.79,-35.15 1108.35,-39.72 1109.11,-32.76"/>
</g>
<!-- Default_desktop_1_5_ -->
<g id="node15" class="node">
<title>Default_desktop_1_5_</title>
<polygon fill="none" stroke="black" points="1265.88,-36 1114.88,-36 1114.88,0 1265.88,0 1265.88,-36"/>
<text xml:space="preserve" text-anchor="middle" x="1190.38" y="-12.2" font-family="Helvetica,sans-Serif" font-size="14.00">Default_desktop_1_5_</text>
</g>
<!-- &#45;1&#45;&gt;Default_desktop_1_5_ -->
<g id="edge7" class="edge">
<title>&#45;1&#45;&gt;Default_desktop_1_5_</title>
<path fill="none" stroke="black" d="M3301.06,-89.93C3090.1,-89.32 1716.82,-83.61 1277.44,-36.21"/>
<polygon fill="black" stroke="black" points="1278.12,-32.77 1267.79,-35.14 1277.35,-39.72 1278.12,-32.77"/>
</g>
<!-- Default_desktop_1_6_ -->
<g id="node16" class="node">
<title>Default_desktop_1_6_</title>
<polygon fill="none" stroke="black" points="1434.88,-36 1283.88,-36 1283.88,0 1434.88,0 1434.88,-36"/>
<text xml:space="preserve" text-anchor="middle" x="1359.38" y="-12.2" font-family="Helvetica,sans-Serif" font-size="14.00">Default_desktop_1_6_</text>
</g>
<!-- &#45;1&#45;&gt;Default_desktop_1_6_ -->
<g id="edge8" class="edge">
<title>&#45;1&#45;&gt;Default_desktop_1_6_</title>
<path fill="none" stroke="black" d="M3301.11,-89.85C3100.61,-88.66 1851.13,-79.61 1446.7,-36.1"/>
<polygon fill="black" stroke="black" points="1447.1,-32.63 1436.78,-35.01 1446.33,-39.58 1447.1,-32.63"/>
</g>
<!-- Default_desktop_1_10_ -->
<g id="node17" class="node">
<title>Default_desktop_1_10_</title>
<polygon fill="none" stroke="black" points="1611.62,-36 1453.12,-36 1453.12,0 1611.62,0 1611.62,-36"/>
<text xml:space="preserve" text-anchor="middle" x="1532.38" y="-12.2" font-family="Helvetica,sans-Serif" font-size="14.00">Default_desktop_1_10_</text>
</g>
<!-- &#45;1&#45;&gt;Default_desktop_1_10_ -->
<g id="edge9" class="edge">
<title>&#45;1&#45;&gt;Default_desktop_1_10_</title>
<path fill="none" stroke="black" d="M3300.98,-89.72C3111.3,-87.72 1990.44,-74.47 1623.29,-36.05"/>
<polygon fill="black" stroke="black" points="1623.68,-32.58 1613.36,-34.99 1622.93,-39.54 1623.68,-32.58"/>
</g>
<!-- Default_desktop_1_11_ -->
<g id="node18" class="node">
<title>Default_desktop_1_11_</title>
<polygon fill="none" stroke="black" points="1788.62,-36 1630.12,-36 1630.12,0 1788.62,0 1788.62,-36"/>
<text xml:space="preserve" text-anchor="middle" x="1709.38" y="-12.2" font-family="Helvetica,sans-Serif" font-size="14.00">Default_desktop_1_11_</text>
</g>
<!-- &#45;1&#45;&gt;Default_desktop_1_11_ -->
<g id="edge10" class="edge">
<title>&#45;1&#45;&gt;Default_desktop_1_11_</title>
<path fill="none" stroke="black" d="M3300.98,-89.62C3123.06,-87.04 2128.94,-71.33 1800.32,-36.2"/>
<polygon fill="black" stroke="black" points="1800.74,-32.72 1790.42,-35.11 1799.98,-39.68 1800.74,-32.72"/>
</g>
<!-- Default_desktop_2_ -->
<g id="node19" class="node">
<title>Default_desktop_2_</title>
<polygon fill="none" stroke="black" points="1942.38,-36 1806.38,-36 1806.38,0 1942.38,0 1942.38,-36"/>
<text xml:space="preserve" text-anchor="middle" x="1874.38" y="-12.2" font-family="Helvetica,sans-Serif" font-size="14.00">Default_desktop_2_</text>
</g>
<!-- &#45;1&#45;&gt;Default_desktop_2_ -->
<g id="edge11" class="edge">
<title>&#45;1&#45;&gt;Default_desktop_2_</title>
<path fill="none" stroke="black" d="M3301.05,-89.59C3134.09,-87 2249.2,-71.85 1953.8,-36.13"/>
<polygon fill="black" stroke="black" points="1954.56,-32.7 1944.2,-34.93 1953.69,-39.65 1954.56,-32.7"/>
</g>
<!-- Default_desktop_3_ -->
<g id="node20" class="node">
<title>Default_desktop_3_</title>
<polygon fill="none" stroke="black" points="2096.38,-36 1960.38,-36 1960.38,0 2096.38,0 2096.38,-36"/>
<text xml:space="preserve" text-anchor="middle" x="2028.38" y="-12.2" font-family="Helvetica,sans-Serif" font-size="14.00">Default_desktop_3_</text>
</g>
<!-- &#45;1&#45;&gt;Default_desktop_3_ -->
<g id="edge12" class="edge">
<title>&#45;1&#45;&gt;Default_desktop_3_</title>
<path fill="none" stroke="black" d="M3301.11,-89.44C3145.83,-86.15 2371.14,-68.42 2108.09,-36.18"/>
<polygon fill="black" stroke="black" points="2108.56,-32.71 2098.2,-34.92 2107.68,-39.65 2108.56,-32.71"/>
</g>
<!-- Default_desktop_4_ -->
<g id="node21" class="node">
<title>Default_desktop_4_</title>
<polygon fill="none" stroke="black" points="2250.38,-36 2114.38,-36 2114.38,0 2250.38,0 2250.38,-36"/>
<text xml:space="preserve" text-anchor="middle" x="2182.38" y="-12.2" font-family="Helvetica,sans-Serif" font-size="14.00">Default_desktop_4_</text>
</g>
<!-- &#45;1&#45;&gt;Default_desktop_4_ -->
<g id="edge13" class="edge">
<title>&#45;1&#45;&gt;Default_desktop_4_</title>
<path fill="none" stroke="black" d="M3300.96,-90.29C3179.79,-91.23 2680.12,-91.43 2262.11,-36.23"/>
<polygon fill="black" stroke="black" points="2262.58,-32.76 2252.2,-34.91 2261.65,-39.7 2262.58,-32.76"/>
</g>
<!-- Default_desktop_5_ -->
<g id="node22" class="node">
<title>Default_desktop_5_</title>
<polygon fill="none" stroke="black" points="2404.38,-36 2268.38,-36 2268.38,0 2404.38,0 2404.38,-36"/>
<text xml:space="preserve" text-anchor="middle" x="2336.38" y="-12.2" font-family="Helvetica,sans-Serif" font-size="14.00">Default_desktop_5_</text>
</g>
<!-- &#45;1&#45;&gt;Default_desktop_5_ -->
<g id="edge14" class="edge">
<title>&#45;1&#45;&gt;Default_desktop_5_</title>
<path fill="none" stroke="black" d="M3300.9,-89.96C3190.73,-89.48 2770.27,-84.47 2415.96,-36.23"/>
<polygon fill="black" stroke="black" points="2416.59,-32.78 2406.21,-34.88 2415.64,-39.71 2416.59,-32.78"/>
</g>
<!-- Default_desktop_6_ -->
<g id="node23" class="node">
<title>Default_desktop_6_</title>
<polygon fill="none" stroke="black" points="2558.38,-36 2422.38,-36 2422.38,0 2558.38,0 2558.38,-36"/>
<text xml:space="preserve" text-anchor="middle" x="2490.38" y="-12.2" font-family="Helvetica,sans-Serif" font-size="14.00">Default_desktop_6_</text>
</g>
<!-- &#45;1&#45;&gt;Default_desktop_6_ -->
<g id="edge15" class="edge">
<title>&#45;1&#45;&gt;Default_desktop_6_</title>
<path fill="none" stroke="black" d="M3300.92,-89.5C3202.9,-87.42 2860.98,-77.57 2569.92,-36.24"/>
<polygon fill="black" stroke="black" points="2570.61,-32.81 2560.21,-34.85 2569.61,-39.73 2570.61,-32.81"/>
</g>
<!-- Default_desktop_7_0_ -->
<g id="node24" class="node">
<title>Default_desktop_7_0_</title>
<polygon fill="none" stroke="black" points="2727.88,-36 2576.88,-36 2576.88,0 2727.88,0 2727.88,-36"/>
<text xml:space="preserve" text-anchor="middle" x="2652.38" y="-12.2" font-family="Helvetica,sans-Serif" font-size="14.00">Default_desktop_7_0_</text>
</g>
<!-- &#45;1&#45;&gt;Default_desktop_7_0_ -->
<g id="edge16" class="edge">
<title>&#45;1&#45;&gt;Default_desktop_7_0_</title>
<path fill="none" stroke="black" d="M3301.11,-88.57C3218.18,-84 2961.58,-68.22 2739.53,-36.38"/>
<polygon fill="black" stroke="black" points="2740.21,-32.94 2729.81,-34.97 2739.21,-39.87 2740.21,-32.94"/>
</g>
<!-- Default_desktop_7_1_ -->
<g id="node25" class="node">
<title>Default_desktop_7_1_</title>
<polygon fill="none" stroke="black" points="2896.88,-36 2745.88,-36 2745.88,0 2896.88,0 2896.88,-36"/>
<text xml:space="preserve" text-anchor="middle" x="2821.38" y="-12.2" font-family="Helvetica,sans-Serif" font-size="14.00">Default_desktop_7_1_</text>
</g>
<!-- &#45;1&#45;&gt;Default_desktop_7_1_ -->
<g id="edge17" class="edge">
<title>&#45;1&#45;&gt;Default_desktop_7_1_</title>
<path fill="none" stroke="black" d="M3301.06,-87.21C3235.22,-80.34 3062.39,-61.41 2908.39,-36.44"/>
<polygon fill="black" stroke="black" points="2909.26,-33.04 2898.83,-34.87 2908.13,-39.94 2909.26,-33.04"/>
</g>
<!-- Default_desktop_7_2_ -->
<g id="node26" class="node">
<title>Default_desktop_7_2_</title>
<polygon fill="none" stroke="black" points="3065.88,-36 2914.88,-36 2914.88,0 3065.88,0 3065.88,-36"/>
<text xml:space="preserve" text-anchor="middle" x="2990.38" y="-12.2" font-family="Helvetica,sans-Serif" font-size="14.00">Default_desktop_7_2_</text>
</g>
<!-- &#45;1&#45;&gt;Default_desktop_7_2_ -->
<g id="edge18" class="edge">
<title>&#45;1&#45;&gt;Default_desktop_7_2_</title>
<path fill="none" stroke="black" d="M3301,-84.25C3252.87,-74.14 3151.17,-52.78 3077.21,-37.24"/>
<polygon fill="black" stroke="black" points="3078.04,-33.84 3067.53,-35.21 3076.6,-40.69 3078.04,-33.84"/>
</g>
<!-- Default_desktop_7_3_ -->
<g id="node27" class="node">
<title>Default_desktop_7_3_</title>
<polygon fill="none" stroke="black" points="3234.88,-36 3083.88,-36 3083.88,0 3234.88,0 3234.88,-36"/>
<text xml:space="preserve" text-anchor="middle" x="3159.38" y="-12.2" font-family="Helvetica,sans-Serif" font-size="14.00">Default_desktop_7_3_</text>
</g>
<!-- &#45;1&#45;&gt;Default_desktop_7_3_ -->
<g id="edge19" class="edge">
<title>&#45;1&#45;&gt;Default_desktop_7_3_</title>
<path fill="none" stroke="black" d="M3301.22,-78.59C3277.12,-68.47 3241.24,-53.39 3211.6,-40.94"/>
<polygon fill="black" stroke="black" points="3212.96,-37.72 3202.39,-37.07 3210.25,-44.17 3212.96,-37.72"/>
</g>
<!-- Default_desktop_7_4_ -->
<g id="node28" class="node">
<title>Default_desktop_7_4_</title>
<polygon fill="none" stroke="black" points="3403.88,-36 3252.88,-36 3252.88,0 3403.88,0 3403.88,-36"/>
<text xml:space="preserve" text-anchor="middle" x="3328.38" y="-12.2" font-family="Helvetica,sans-Serif" font-size="14.00">Default_desktop_7_4_</text>
</g>
<!-- &#45;1&#45;&gt;Default_desktop_7_4_ -->
<g id="edge20" class="edge">
<title>&#45;1&#45;&gt;Default_desktop_7_4_</title>
<path fill="none" stroke="black" d="M3328.38,-72.81C3328.38,-65.23 3328.38,-56.1 3328.38,-47.54"/>
<polygon fill="black" stroke="black" points="3331.88,-47.54 3328.38,-37.54 3324.88,-47.54 3331.88,-47.54"/>
</g>
<!-- Default_desktop_7_5_ -->
<g id="node29" class="node">
<title>Default_desktop_7_5_</title>
<polygon fill="none" stroke="black" points="3572.88,-36 3421.88,-36 3421.88,0 3572.88,0 3572.88,-36"/>
<text xml:space="preserve" text-anchor="middle" x="3497.38" y="-12.2" font-family="Helvetica,sans-Serif" font-size="14.00">Default_desktop_7_5_</text>
</g>
<!-- &#45;1&#45;&gt;Default_desktop_7_5_ -->
<g id="edge21" class="edge">
<title>&#45;1&#45;&gt;Default_desktop_7_5_</title>
<path fill="none" stroke="black" d="M3355.78,-76C3358.66,-74.61 3361.57,-73.26 3364.38,-72 3388.96,-60.98 3416.57,-49.79 3440.24,-40.55"/>
<polygon fill="black" stroke="black" points="3441.34,-43.87 3449.4,-36.99 3438.81,-37.35 3441.34,-43.87"/>
</g>
<!-- Default_desktop_7_6_ -->
<g id="node30" class="node">
<title>Default_desktop_7_6_</title>
<polygon fill="none" stroke="black" points="3741.88,-36 3590.88,-36 3590.88,0 3741.88,0 3741.88,-36"/>
<text xml:space="preserve" text-anchor="middle" x="3666.38" y="-12.2" font-family="Helvetica,sans-Serif" font-size="14.00">Default_desktop_7_6_</text>
</g>
<!-- &#45;1&#45;&gt;Default_desktop_7_6_ -->
<g id="edge22" class="edge">
<title>&#45;1&#45;&gt;Default_desktop_7_6_</title>
<path fill="none" stroke="black" d="M3355.53,-75.36C3358.47,-74.1 3361.45,-72.95 3364.38,-72 3454.41,-42.8 3483.68,-52.93 3579.35,-36.47"/>
<polygon fill="black" stroke="black" points="3579.67,-39.97 3588.9,-34.77 3578.44,-33.08 3579.67,-39.97"/>
</g>
<!-- Default_desktop_7_10_ -->
<g id="node31" class="node">
<title>Default_desktop_7_10_</title>
<polygon fill="none" stroke="black" points="3918.62,-36 3760.12,-36 3760.12,0 3918.62,0 3918.62,-36"/>
<text xml:space="preserve" text-anchor="middle" x="3839.38" y="-12.2" font-family="Helvetica,sans-Serif" font-size="14.00">Default_desktop_7_10_</text>
</g>
<!-- &#45;1&#45;&gt;Default_desktop_7_10_ -->
<g id="edge23" class="edge">
<title>&#45;1&#45;&gt;Default_desktop_7_10_</title>
<path fill="none" stroke="black" d="M3355.87,-74.98C3358.69,-73.83 3361.55,-72.81 3364.38,-72 3526.91,-25.58 3578.17,-58.91 3748.42,-36.3"/>
<polygon fill="black" stroke="black" points="3748.88,-39.77 3758.31,-34.94 3747.92,-32.84 3748.88,-39.77"/>
</g>
<!-- Default_desktop_7_11_ -->
<g id="node32" class="node">
<title>Default_desktop_7_11_</title>
<polygon fill="none" stroke="black" points="4095.62,-36 3937.12,-36 3937.12,0 4095.62,0 4095.62,-36"/>
<text xml:space="preserve" text-anchor="middle" x="4016.38" y="-12.2" font-family="Helvetica,sans-Serif" font-size="14.00">Default_desktop_7_11_</text>
</g>
<!-- &#45;1&#45;&gt;Default_desktop_7_11_ -->
<g id="edge24" class="edge">
<title>&#45;1&#45;&gt;Default_desktop_7_11_</title>
<path fill="none" stroke="black" d="M3355.85,-74.9C3358.67,-73.76 3361.54,-72.77 3364.38,-72 3602.89,-7.59 3676.49,-65.82 3925.65,-36.08"/>
<polygon fill="black" stroke="black" points="3925.88,-39.58 3935.38,-34.88 3925.02,-32.63 3925.88,-39.58"/>
</g>
<!-- Default_desktop_8_ -->
<g id="node33" class="node">
<title>Default_desktop_8_</title>
<polygon fill="none" stroke="black" points="4249.38,-36 4113.38,-36 4113.38,0 4249.38,0 4249.38,-36"/>
<text xml:space="preserve" text-anchor="middle" x="4181.38" y="-12.2" font-family="Helvetica,sans-Serif" font-size="14.00">Default_desktop_8_</text>
</g>
<!-- &#45;1&#45;&gt;Default_desktop_8_ -->
<g id="edge25" class="edge">
<title>&#45;1&#45;&gt;Default_desktop_8_</title>
<path fill="none" stroke="black" d="M3355.83,-74.85C3358.66,-73.73 3361.54,-72.74 3364.38,-72 3520.22,-31.19 3923.37,-56.67 4101.64,-36.13"/>
<polygon fill="black" stroke="black" points="4102.06,-39.61 4111.55,-34.9 4101.19,-32.66 4102.06,-39.61"/>
</g>
<!-- Default_desktop_9_ -->
<g id="node34" class="node">
<title>Default_desktop_9_</title>
<polygon fill="none" stroke="black" points="4403.38,-36 4267.38,-36 4267.38,0 4403.38,0 4403.38,-36"/>
<text xml:space="preserve" text-anchor="middle" x="4335.38" y="-12.2" font-family="Helvetica,sans-Serif" font-size="14.00">Default_desktop_9_</text>
</g>
<!-- &#45;1&#45;&gt;Default_desktop_9_ -->
<g id="edge26" class="edge">
<title>&#45;1&#45;&gt;Default_desktop_9_</title>
<path fill="none" stroke="black" d="M3355.83,-74.83C3358.65,-73.71 3361.53,-72.73 3364.38,-72 3553.54,-23.31 4043.56,-60.19 4255.92,-36.09"/>
<polygon fill="black" stroke="black" points="4256.04,-39.61 4265.55,-34.92 4255.2,-32.66 4256.04,-39.61"/>
</g>
<!-- Default_desktop_10_ -->
<g id="node35" class="node">
<title>Default_desktop_10_</title>
<polygon fill="none" stroke="black" points="4565.12,-36 4421.62,-36 4421.62,0 4565.12,0 4565.12,-36"/>
<text xml:space="preserve" text-anchor="middle" x="4493.38" y="-12.2" font-family="Helvetica,sans-Serif" font-size="14.00">Default_desktop_10_</text>
</g>
<!-- &#45;1&#45;&gt;Default_desktop_10_ -->
<g id="edge27" class="edge">
<title>&#45;1&#45;&gt;Default_desktop_10_</title>
<path fill="none" stroke="black" d="M3335.34,-72.56C3336.02,-72.36 3336.7,-72.17 3337.38,-72 3563.21,-14.58 4154.04,-64.04 4385.38,-36 4393.31,-35.04 4401.62,-33.69 4410.05,-32.17"/>
<polygon fill="black" stroke="black" points="4410.49,-35.65 4419.68,-30.37 4409.21,-28.77 4410.49,-35.65"/>
</g>
<!-- &#45;1&#45;&gt;Default_desktop_10_ -->
<g id="edge28" class="edge">
<title>&#45;1&#45;&gt;Default_desktop_10_</title>
<path fill="none" stroke="black" d="M3353.34,-72.56C3354.02,-72.36 3354.7,-72.17 3355.38,-72 3581.21,-14.58 4172.04,-64.04 4403.38,-36 4405.57,-35.73 4407.79,-35.44 4410.03,-35.12"/>
<polygon fill="black" stroke="black" points="4410.53,-38.58 4419.86,-33.57 4409.44,-31.67 4410.53,-38.58"/>
</g>
<!-- &#45;1&#45;&gt;Default_desktop_10_ -->
<g id="edge29" class="edge">
<title>&#45;1&#45;&gt;Default_desktop_10_</title>
<path fill="none" stroke="black" d="M3355.87,-78.69C3361.58,-76 3367.55,-73.48 3373.38,-72 3595.58,-15.5 4171.1,-62.47 4409.92,-37.3"/>
<polygon fill="black" stroke="black" points="4409.99,-40.81 4419.53,-36.21 4409.2,-33.85 4409.99,-40.81"/>
</g>
<!-- &#45;1&#45;&gt;Default_desktop_10_ -->
<g id="edge30" class="edge">
<title>&#45;1&#45;&gt;Default_desktop_10_</title>
<path fill="none" stroke="black" d="M3355.86,-85.38C3369.33,-81.02 3380.61,-74.74 3391.38,-72 3612.38,-15.8 4182.93,-61.97 4424.04,-37.69"/>
<polygon fill="black" stroke="black" points="4424.2,-41.2 4433.77,-36.65 4423.45,-34.24 4424.2,-41.2"/>
</g>
<!-- Default_desktop_11_ -->
<g id="node36" class="node">
<title>Default_desktop_11_</title>
<polygon fill="none" stroke="black" points="4727.12,-36 4583.62,-36 4583.62,0 4727.12,0 4727.12,-36"/>
<text xml:space="preserve" text-anchor="middle" x="4655.38" y="-12.2" font-family="Helvetica,sans-Serif" font-size="14.00">Default_desktop_11_</text>
</g>
<!-- &#45;1&#45;&gt;Default_desktop_11_ -->
<g id="edge31" class="edge">
<title>&#45;1&#45;&gt;Default_desktop_11_</title>
<path fill="none" stroke="black" d="M3355.82,-74.8C3358.65,-73.68 3361.53,-72.72 3364.38,-72 3621.8,-7.17 4289.34,-66.15 4572.36,-36.03"/>
<polygon fill="black" stroke="black" points="4572.45,-39.54 4581.99,-34.94 4571.66,-32.59 4572.45,-39.54"/>
</g>
<!-- Default_desktop_12_ -->
<g id="node37" class="node">
<title>Default_desktop_12_</title>
<polygon fill="none" stroke="black" points="4889.12,-36 4745.62,-36 4745.62,0 4889.12,0 4889.12,-36"/>
<text xml:space="preserve" text-anchor="middle" x="4817.38" y="-12.2" font-family="Helvetica,sans-Serif" font-size="14.00">Default_desktop_12_</text>
</g>
<!-- &#45;1&#45;&gt;Default_desktop_12_ -->
<g id="edge32" class="edge">
<title>&#45;1&#45;&gt;Default_desktop_12_</title>
<path fill="none" stroke="black" d="M3355.82,-74.79C3358.65,-73.67 3361.53,-72.71 3364.38,-72 3656.8,1.09 4415.39,-69.77 4734.34,-36.03"/>
<polygon fill="black" stroke="black" points="4734.44,-39.54 4743.99,-34.96 4733.67,-32.59 4734.44,-39.54"/>
</g>
<!-- Default_desktop_13_ -->
<g id="node38" class="node">
<title>Default_desktop_13_</title>
<polygon fill="none" stroke="black" points="5051.12,-36 4907.62,-36 4907.62,0 5051.12,0 5051.12,-36"/>
<text xml:space="preserve" text-anchor="middle" x="4979.38" y="-12.2" font-family="Helvetica,sans-Serif" font-size="14.00">Default_desktop_13_</text>
</g>
<!-- &#45;1&#45;&gt;Default_desktop_13_ -->
<g id="edge33" class="edge">
<title>&#45;1&#45;&gt;Default_desktop_13_</title>
<path fill="none" stroke="black" d="M3353.34,-72.55C3354.02,-72.35 3354.7,-72.17 3355.38,-72 3520.83,-30.89 4720.01,-55.59 4889.38,-36 4891.57,-35.75 4893.79,-35.46 4896.04,-35.15"/>
<polygon fill="black" stroke="black" points="4896.52,-38.62 4905.87,-33.63 4895.45,-31.7 4896.52,-38.62"/>
</g>
<!-- &#45;1&#45;&gt;Default_desktop_13_ -->
<g id="edge34" class="edge">
<title>&#45;1&#45;&gt;Default_desktop_13_</title>
<path fill="none" stroke="black" d="M3355.86,-78.65C3361.57,-75.96 3367.54,-73.45 3373.38,-72 3535.44,-31.73 4689.29,-54.61 4895.68,-37.15"/>
<polygon fill="black" stroke="black" points="4896.01,-40.63 4905.62,-36.18 4895.33,-33.67 4896.01,-40.63"/>
</g>
<!-- Default_desktop_28_ -->
<g id="node41" class="node">
<title>Default_desktop_28_</title>
<polygon fill="none" stroke="black" points="5213.12,-36 5069.62,-36 5069.62,0 5213.12,0 5213.12,-36"/>
<text xml:space="preserve" text-anchor="middle" x="5141.38" y="-12.2" font-family="Helvetica,sans-Serif" font-size="14.00">Default_desktop_28_</text>
</g>
<!-- &#45;1&#45;&gt;Default_desktop_28_ -->
<g id="edge35" class="edge">
<title>&#45;1&#45;&gt;Default_desktop_28_</title>
<path fill="none" stroke="black" d="M3355.81,-74.77C3358.64,-73.66 3361.53,-72.7 3364.38,-72 3544.13,-27.55 4826.86,-56.39 5058.11,-35.95"/>
<polygon fill="black" stroke="black" points="5058.39,-39.44 5067.99,-34.96 5057.69,-32.48 5058.39,-39.44"/>
</g>
<!-- Default_desktop_29_ -->
<g id="node42" class="node">
<title>Default_desktop_29_</title>
<polygon fill="none" stroke="black" points="5375.12,-36 5231.62,-36 5231.62,0 5375.12,0 5375.12,-36"/>
<text xml:space="preserve" text-anchor="middle" x="5303.38" y="-12.2" font-family="Helvetica,sans-Serif" font-size="14.00">Default_desktop_29_</text>
</g>
<!-- &#45;1&#45;&gt;Default_desktop_29_ -->
<g id="edge36" class="edge">
<title>&#45;1&#45;&gt;Default_desktop_29_</title>
<path fill="none" stroke="black" d="M3355.81,-74.77C3358.64,-73.66 3361.53,-72.7 3364.38,-72 3561.64,-23.41 4970.73,-58.15 5220.19,-35.95"/>
<polygon fill="black" stroke="black" points="5220.39,-39.45 5229.99,-34.97 5219.69,-32.48 5220.39,-39.45"/>
</g>
<!-- Default_desktop_30_ -->
<g id="node43" class="node">
<title>Default_desktop_30_</title>
<polygon fill="none" stroke="black" points="5537.12,-36 5393.62,-36 5393.62,0 5537.12,0 5537.12,-36"/>
<text xml:space="preserve" text-anchor="middle" x="5465.38" y="-12.2" font-family="Helvetica,sans-Serif" font-size="14.00">Default_desktop_30_</text>
</g>
<!-- &#45;1&#45;&gt;Default_desktop_30_ -->
<g id="edge37" class="edge">
<title>&#45;1&#45;&gt;Default_desktop_30_</title>
<path fill="none" stroke="black" d="M3355.81,-74.76C3358.64,-73.65 3361.52,-72.7 3364.38,-72 3579.19,-19.26 5115.34,-59.94 5382.44,-35.93"/>
<polygon fill="black" stroke="black" points="5382.4,-39.46 5391.99,-34.97 5381.69,-32.49 5382.4,-39.46"/>
</g>
<!-- _ -->
<g id="node5" class="node">
<title>_</title>
<polygon fill="none" stroke="black" points="3427.38,-109 3373.38,-109 3373.38,-73 3427.38,-73 3427.38,-109"/>
<text xml:space="preserve" text-anchor="middle" x="3400.38" y="-85.2" font-family="Helvetica,sans-Serif" font-size="14.00">_</text>
</g>
<!-- _Chrome -->
<g id="node6" class="node">
<title>_Chrome</title>
<polygon fill="none" stroke="black" points="3509.75,-110 3445,-110 3445,-72 3509.75,-72 3509.75,-110"/>
<text xml:space="preserve" text-anchor="middle" x="3477.38" y="-92.7" font-family="Helvetica,sans-Serif" font-size="14.00">InApp</text>
<text xml:space="preserve" text-anchor="middle" x="3477.38" y="-77.7" font-family="Helvetica,sans-Serif" font-size="14.00">Chrome</text>
</g>
<!-- _VSCode -->
<g id="node7" class="node">
<title>_VSCode</title>
<polygon fill="none" stroke="black" points="3594.5,-110 3528.25,-110 3528.25,-72 3594.5,-72 3594.5,-110"/>
<text xml:space="preserve" text-anchor="middle" x="3561.38" y="-92.7" font-family="Helvetica,sans-Serif" font-size="14.00">InApp</text>
<text xml:space="preserve" text-anchor="middle" x="3561.38" y="-77.7" font-family="Helvetica,sans-Serif" font-size="14.00">VSCode</text>
</g>
<!-- _iTerm -->
<g id="node8" class="node">
<title>_iTerm</title>
<polygon fill="none" stroke="black" points="3666.38,-110 3612.38,-110 3612.38,-72 3666.38,-72 3666.38,-110"/>
<text xml:space="preserve" text-anchor="middle" x="3639.38" y="-92.7" font-family="Helvetica,sans-Serif" font-size="14.00">InApp</text>
<text xml:space="preserve" text-anchor="middle" x="3639.38" y="-77.7" font-family="Helvetica,sans-Serif" font-size="14.00">iTerm</text>
</g>
<!-- _nil -->
<g id="node9" class="node">
<title>_nil</title>
<polygon fill="none" stroke="black" points="3742.38,-109 3684.38,-109 3684.38,-73 3742.38,-73 3742.38,-109"/>
<text xml:space="preserve" text-anchor="middle" x="3713.38" y="-85.2" font-family="Helvetica,sans-Serif" font-size="14.00">L&#45;Exec</text>
</g>
<!-- Default_desktop_1_0_ -->
<g id="node10" class="node">
<title>Default_desktop_1_0_</title>
<polygon fill="none" stroke="black" points="3911.88,-109 3760.88,-109 3760.88,-73 3911.88,-73 3911.88,-109"/>
<text xml:space="preserve" text-anchor="middle" x="3836.38" y="-85.2" font-family="Helvetica,sans-Serif" font-size="14.00">Default_desktop_1_0_</text>
</g>
<!-- _0_nil -->
<g id="node39" class="node">
<title>_0_nil</title>
<polygon fill="none" stroke="black" points="4012.75,-110 3930,-110 3930,-72 4012.75,-72 4012.75,-110"/>
<text xml:space="preserve" text-anchor="middle" x="3971.38" y="-92.7" font-family="Helvetica,sans-Serif" font-size="14.00">Label</text>
<text xml:space="preserve" text-anchor="middle" x="3971.38" y="-77.7" font-family="Helvetica,sans-Serif" font-size="14.00">return&#45;to=0</text>
</g>
<!-- _1_nil -->
<g id="node40" class="node">
<title>_1_nil</title>
<polygon fill="none" stroke="black" points="4113.75,-110 4031,-110 4031,-72 4113.75,-72 4113.75,-110"/>
<text xml:space="preserve" text-anchor="middle" x="4072.38" y="-92.7" font-family="Helvetica,sans-Serif" font-size="14.00">Label</text>
<text xml:space="preserve" text-anchor="middle" x="4072.38" y="-77.7" font-family="Helvetica,sans-Serif" font-size="14.00">return&#45;to=1</text>
</g>
<!-- none_nil_nil_nil_nil -->
<g id="node44" class="node">
<title>none_nil_nil_nil_nil</title>
<polygon fill="none" stroke="black" points="318.38,-109 188.38,-109 188.38,-73 318.38,-73 318.38,-109"/>
<text xml:space="preserve" text-anchor="middle" x="253.38" y="-85.2" font-family="Helvetica,sans-Serif" font-size="14.00">none_nil_nil_nil_nil</text>
</g>
<!-- none_nil_nil_nil_nil&#45;&gt;Default_desktop_0_ -->
<g id="edge2" class="edge">
<title>none_nil_nil_nil_nil&#45;&gt;Default_desktop_0_</title>
<path fill="none" stroke="black" d="M232.8,-72.81C222.23,-63.98 209.16,-53.07 197.57,-43.39"/>
<polygon fill="black" stroke="black" points="200.14,-40.97 190.22,-37.25 195.65,-46.34 200.14,-40.97"/>
</g>
<!-- Default_laptop_nil_nil_nil -->
<g id="node45" class="node">
<title>Default_laptop_nil_nil_nil</title>
<polygon fill="none" stroke="black" points="420.38,-36 254.38,-36 254.38,0 420.38,0 420.38,-36"/>
<text xml:space="preserve" text-anchor="middle" x="337.38" y="-12.2" font-family="Helvetica,sans-Serif" font-size="14.00">Default_laptop_nil_nil_nil</text>
</g>
<!-- none_nil_nil_nil_nil&#45;&gt;Default_laptop_nil_nil_nil -->
<g id="edge1" class="edge">
<title>none_nil_nil_nil_nil&#45;&gt;Default_laptop_nil_nil_nil</title>
<path fill="none" stroke="black" d="M273.71,-72.81C284.05,-64.07 296.81,-53.28 308.19,-43.67"/>
<polygon fill="black" stroke="black" points="310.4,-46.38 315.78,-37.25 305.88,-41.03 310.4,-46.38"/>
</g>
</g>
</svg>
