<?xml version="1.0" encoding="UTF-8" standalone="no"?>
<!DOCTYPE svg PUBLIC "-//W3C//DTD SVG 1.1//EN"
 "http://www.w3.org/Graphics/SVG/1.1/DTD/svg11.dtd">
<!-- Generated by graphviz version 14.1.2 (20260124.0452)
 -->
<!-- Title: states Pages: 1 -->
<svg width="5899pt" height="118pt"
 viewBox="0.00 0.00 5899.00 118.00" xmlns="http://www.w3.org/2000/svg" xmlns:xlink="http://www.w3.org/1999/xlink">
<g id="graph0" class="graph" transform="scale(1 1) rotate(0) translate(4 114)">
<title>states</title>
<polygon fill="white" stroke="none" points="-4,4 -4,-114 5895.12,-114 5895.12,4 -4,4"/>
<!-- None_nil_nil_nil_nil_nil -->
<g id="node1" class="node">
<title>None_nil_nil_nil_nil_nil</title>
<polygon fill="none" stroke="black" points="94.75,-110 0,-110 0,-72 94.75,-72 94.75,-110"/>
<text xml:space="preserve" text-anchor="middle" x="47.38" y="-92.7" font-family="Helvetica,sans-Serif" font-size="14.00">None</text>
<text xml:space="preserve" text-anchor="middle" x="47.38" y="-77.7" font-family="Helvetica,sans-Serif" font-size="14.00">(placeholder)</text>
</g>
<!-- Default_laptop_nil_nil_nil_nil -->
<g id="node2" class="node">
<title>Default_laptop_nil_nil_nil_nil</title>
<polygon fill="none" stroke="black" points="170,-109 112.75,-109 112.75,-73 170,-73 170,-109"/>
<text xml:space="preserve" text-anchor="middle" x="141.38" y="-85.2" font-family="Helvetica,sans-Serif" font-size="14.00">Laptop</text>
</g>
<!-- Default_desktop_0_ -->
<g id="node3" class="node">
<title>Default_desktop_0_</title>
<polygon fill="none" stroke="black" points="236.38,-36 100.38,-36 100.38,0 236.38,0 236.38,-36"/>
<text xml:space="preserve" text-anchor="middle" x="168.38" y="-12.2" font-family="Helvetica,sans-Serif" font-size="14.00">Default_desktop_0_</text>
</g>
<!-- &#45;1 -->
<g id="node4" class="node">
<title>&#45;1</title>
<polygon fill="none" stroke="black" points="3616.38,-109 3562.38,-109 3562.38,-73 3616.38,-73 3616.38,-109"/>
<text xml:space="preserve" text-anchor="middle" x="3589.38" y="-85.2" font-family="Helvetica,sans-Serif" font-size="14.00">&#45;1</text>
</g>
<!-- Default_desktop_1_1_ -->
<g id="node11" class="node">
<title>Default_desktop_1_1_</title>
<polygon fill="none" stroke="black" points="589.88,-36 438.88,-36 438.88,0 589.88,0 589.88,-36"/>
<text xml:space="preserve" text-anchor="middle" x="514.38" y="-12.2" font-family="Helvetica,sans-Serif" font-size="14.00">Default_desktop_1_1_</text>
</g>
<!-- &#45;1&#45;&gt;Default_desktop_1_1_ -->
<g id="edge3" class="edge">
<title>&#45;1&#45;&gt;Default_desktop_1_1_</title>
<path fill="none" stroke="black" d="M3562.11,-89.81C3283.75,-87.83 960.97,-70.35 601.53,-36.15"/>
<polygon fill="black" stroke="black" points="602.09,-32.69 591.79,-35.16 601.38,-39.65 602.09,-32.69"/>
</g>
<!-- Default_desktop_1_2_ -->
<g id="node12" class="node">
<title>Default_desktop_1_2_</title>
<polygon fill="none" stroke="black" points="758.88,-36 607.88,-36 607.88,0 758.88,0 758.88,-36"/>
<text xml:space="preserve" text-anchor="middle" x="683.38" y="-12.2" font-family="Helvetica,sans-Serif" font-size="14.00">Default_desktop_1_2_</text>
</g>
<!-- &#45;1&#45;&gt;Default_desktop_1_2_ -->
<g id="edge4" class="edge">
<title>&#45;1&#45;&gt;Default_desktop_1_2_</title>
<path fill="none" stroke="black" d="M3561.97,-89.78C3292.02,-87.54 1111.9,-68.59 770.64,-36.16"/>
<polygon fill="black" stroke="black" points="771.09,-32.69 760.79,-35.16 770.38,-39.65 771.09,-32.69"/>
</g>
<!-- Default_desktop_1_3_ -->
<g id="node13" class="node">
<title>Default_desktop_1_3_</title>
<polygon fill="none" stroke="black" points="927.88,-36 776.88,-36 776.88,0 927.88,0 927.88,-36"/>
<text xml:space="preserve" text-anchor="middle" x="852.38" y="-12.2" font-family="Helvetica,sans-Serif" font-size="14.00">Default_desktop_1_3_</text>
</g>
<!-- &#45;1&#45;&gt;Default_desktop_1_3_ -->
<g id="edge5" class="edge">
<title>&#45;1&#45;&gt;Default_desktop_1_3_</title>
<path fill="none" stroke="black" d="M3561.92,-90.12C3317.26,-91.1 1506.8,-96.28 939.41,-36.2"/>
<polygon fill="black" stroke="black" points="940.11,-32.76 929.79,-35.16 939.36,-39.72 940.11,-32.76"/>
</g>
<!-- Default_desktop_1_4_ -->
<g id="node14" class="node">
<title>Default_desktop_1_4_</title>
<polygon fill="none" stroke="black" points="1096.88,-36 945.88,-36 945.88,0 1096.88,0 1096.88,-36"/>
<text xml:space="preserve" text-anchor="middle" x="1021.38" y="-12.2" font-family="Helvetica,sans-Serif" font-size="14.00">Default_desktop_1_4_</text>
</g>
<!-- &#45;1&#45;&gt;Default_desktop_1_4_ -->
<g id="edge6" class="edge">
<title>&#45;1&#45;&gt;Default_desktop_1_4_</title>
<path fill="none" stroke="black" d="M3562.2,-90.08C3327.55,-90.64 1639.95,-92.71 1108.48,-36.21"/>
<polygon fill="black" stroke="black" points="1109.11,-32.76 1098.79,-35.16 1108.35,-39.72 1109.11,-32.76"/>
</g>
<!-- Default_desktop_1_5_ -->
<g id="node15" class="node">
<title>Default_desktop_1_5_</title>
<polygon fill="none" stroke="black" points="1265.88,-36 1114.88,-36 1114.88,0 1265.88,0 1265.88,-36"/>
<text xml:space="preserve" text-anchor="middle" x="1190.38" y="-12.2" font-family="Helvetica,sans-Serif" font-size="14.00">Default_desktop_1_5_</text>
</g>
<!-- &#45;1&#45;&gt;Default_desktop_1_5_ -->
<g id="edge7" class="edge">
<title>&#45;1&#45;&gt;Default_desktop_1_5_</title>
<path fill="none" stroke="black" d="M3561.93,-90.03C3335.5,-90.15 1772.48,-89.11 1277.42,-36.21"/>
<polygon fill="black" stroke="black" points="1278.11,-32.76 1267.79,-35.15 1277.35,-39.72 1278.11,-32.76"/>
</g>
<!-- Default_desktop_1_6_ -->
<g id="node16" class="node">
<title>Default_desktop_1_6_</title>
<polygon fill="none" stroke="black" points="1434.88,-36 1283.88,-36 1283.88,0 1434.88,0 1434.88,-36"/>
<text xml:space="preserve" text-anchor="middle" x="1359.38" y="-12.2" font-family="Helvetica,sans-Serif" font-size="14.00">Default_desktop_1_6_</text>
</g>
<!-- &#45;1&#45;&gt;Default_desktop_1_6_ -->
<g id="edge8" class="edge">
<title>&#45;1&#45;&gt;Default_desktop_1_6_</title>
<path fill="none" stroke="black" d="M3561.9,-89.96C3345.09,-89.55 1906.55,-85.02 1446.62,-36.09"/>
<polygon fill="black" stroke="black" points="1447.1,-32.62 1436.78,-35.02 1446.34,-39.58 1447.1,-32.62"/>
</g>
<!-- Default_desktop_1_10_ -->
<g id="node17" class="node">
<title>Default_desktop_1_10_</title>
<polygon fill="none" stroke="black" points="1611.62,-36 1453.12,-36 1453.12,0 1611.62,0 1611.62,-36"/>
<text xml:space="preserve" text-anchor="middle" x="1532.38" y="-12.2" font-family="Helvetica,sans-Serif" font-size="14.00">Default_desktop_1_10_</text>
</g>
<!-- &#45;1&#45;&gt;Default_desktop_1_10_ -->
<g id="edge9" class="edge">
<title>&#45;1&#45;&gt;Default_desktop_1_10_</title>
<path fill="none" stroke="black" d="M3561.9,-89.86C3355.59,-88.68 2045.88,-79.63 1623.19,-36.04"/>
<polygon fill="black" stroke="black" points="1623.67,-32.57 1613.36,-35 1622.94,-39.53 1623.67,-32.57"/>
</g>
<!-- Default_desktop_1_11_ -->
<g id="node18" class="node">
<title>Default_desktop_1_11_</title>
<polygon fill="none" stroke="black" points="1788.62,-36 1630.12,-36 1630.12,0 1788.62,0 1788.62,-36"/>
<text xml:space="preserve" text-anchor="middle" x="1709.38" y="-12.2" font-family="Helvetica,sans-Serif" font-size="14.00">Default_desktop_1_11_</text>
</g>
<!-- &#45;1&#45;&gt;Default_desktop_1_11_ -->
<g id="edge10" class="edge">
<title>&#45;1&#45;&gt;Default_desktop_1_11_</title>
<path fill="none" stroke="black" d="M3561.9,-89.77C3366.61,-88.05 2185.31,-76.12 1800.29,-36.05"/>
<polygon fill="black" stroke="black" points="1800.68,-32.57 1790.36,-34.99 1799.93,-39.53 1800.68,-32.57"/>
</g>
<!-- Default_desktop_1_12_ -->
<g id="node19" class="node">
<title>Default_desktop_1_12_</title>
<polygon fill="none" stroke="black" points="1965.62,-36 1807.12,-36 1807.12,0 1965.62,0 1965.62,-36"/>
<text xml:space="preserve" text-anchor="middle" x="1886.38" y="-12.2" font-family="Helvetica,sans-Serif" font-size="14.00">Default_desktop_1_12_</text>
</g>
<!-- &#45;1&#45;&gt;Default_desktop_1_12_ -->
<g id="edge11" class="edge">
<title>&#45;1&#45;&gt;Default_desktop_1_12_</title>
<path fill="none" stroke="black" d="M3561.98,-89.67C3378.37,-87.41 2323.56,-72.99 1977.19,-36.18"/>
<polygon fill="black" stroke="black" points="1977.74,-32.72 1967.42,-35.11 1976.98,-39.68 1977.74,-32.72"/>
</g>
<!-- Default_desktop_2_ -->
<g id="node20" class="node">
<title>Default_desktop_2_</title>
<polygon fill="none" stroke="black" points="2119.38,-36 1983.38,-36 1983.38,0 2119.38,0 2119.38,-36"/>
<text xml:space="preserve" text-anchor="middle" x="2051.38" y="-12.2" font-family="Helvetica,sans-Serif" font-size="14.00">Default_desktop_2_</text>
</g>
<!-- &#45;1&#45;&gt;Default_desktop_2_ -->
<g id="edge12" class="edge">
<title>&#45;1&#45;&gt;Default_desktop_2_</title>
<path fill="none" stroke="black" d="M3562.1,-89.66C3389.33,-87.44 2444.53,-73.75 2131.03,-36.16"/>
<polygon fill="black" stroke="black" points="2131.55,-32.7 2121.2,-34.94 2130.69,-39.64 2131.55,-32.7"/>
</g>
<!-- Default_desktop_3_ -->
<g id="node21" class="node">
<title>Default_desktop_3_</title>
<polygon fill="none" stroke="black" points="2273.38,-36 2137.38,-36 2137.38,0 2273.38,0 2273.38,-36"/>
<text xml:space="preserve" text-anchor="middle" x="2205.38" y="-12.2" font-family="Helvetica,sans-Serif" font-size="14.00">Default_desktop_3_</text>
</g>
<!-- &#45;1&#45;&gt;Default_desktop_3_ -->
<g id="edge13" class="edge">
<title>&#45;1&#45;&gt;Default_desktop_3_</title>
<path fill="none" stroke="black" d="M3562.12,-89.53C3400.54,-86.63 2565.9,-70.29 2285.05,-36.17"/>
<polygon fill="black" stroke="black" points="2285.56,-32.7 2275.2,-34.93 2284.68,-39.65 2285.56,-32.7"/>
</g>
<!-- Default_desktop_4_ -->
<g id="node22" class="node">
<title>Default_desktop_4_</title>
<polygon fill="none" stroke="black" points="2427.38,-36 2291.38,-36 2291.38,0 2427.38,0 2427.38,-36"/>
<text xml:space="preserve" text-anchor="middle" x="2359.38" y="-12.2" font-family="Helvetica,sans-Serif" font-size="14.00">Default_desktop_4_</text>
</g>
<!-- &#45;1&#45;&gt;Default_desktop_4_ -->
<g id="edge14" class="edge">
<title>&#45;1&#45;&gt;Default_desktop_4_</title>
<path fill="none" stroke="black" d="M3562.2,-89.36C3412.52,-85.72 2686.77,-66.86 2438.79,-36.14"/>
<polygon fill="black" stroke="black" points="2439.57,-32.71 2429.2,-34.91 2438.67,-39.66 2439.57,-32.71"/>
</g>
<!-- Default_desktop_5_ -->
<g id="node23" class="node">
<title>Default_desktop_5_</title>
<polygon fill="none" stroke="black" points="2581.38,-36 2445.38,-36 2445.38,0 2581.38,0 2581.38,-36"/>
<text xml:space="preserve" text-anchor="middle" x="2513.38" y="-12.2" font-family="Helvetica,sans-Serif" font-size="14.00">Default_desktop_5_</text>
</g>
<!-- &#45;1&#45;&gt;Default_desktop_5_ -->
<g id="edge15" class="edge">
<title>&#45;1&#45;&gt;Default_desktop_5_</title>
<path fill="none" stroke="black" d="M3562.2,-90.15C3446.35,-90.47 2982.24,-88.3 2592.91,-36.21"/>
<polygon fill="black" stroke="black" points="2593.58,-32.77 2583.2,-34.9 2592.64,-39.7 2593.58,-32.77"/>
</g>
<!-- Default_desktop_6_ -->
<g id="node24" class="node">
<title>Default_desktop_6_</title>
<polygon fill="none" stroke="black" points="2735.38,-36 2599.38,-36 2599.38,0 2735.38,0 2735.38,-36"/>
<text xml:space="preserve" text-anchor="middle" x="2667.38" y="-12.2" font-family="Helvetica,sans-Serif" font-size="14.00">Default_desktop_6_</text>
</g>
<!-- &#45;1&#45;&gt;Default_desktop_6_ -->
<g id="edge16" class="edge">
<title>&#45;1&#45;&gt;Default_desktop_6_</title>
<path fill="none" stroke="black" d="M3562.22,-89.78C3457.88,-88.6 3072.65,-81.37 2746.79,-36.21"/>
<polygon fill="black" stroke="black" points="2747.6,-32.79 2737.21,-34.87 2746.63,-39.72 2747.6,-32.79"/>
</g>
<!-- Default_desktop_7_0_ -->
<g id="node25" class="node">
<title>Default_desktop_7_0_</title>
<polygon fill="none" stroke="black" points="2904.88,-36 2753.88,-36 2753.88,0 2904.88,0 2904.88,-36"/>
<text xml:space="preserve" text-anchor="middle" x="2829.38" y="-12.2" font-family="Helvetica,sans-Serif" font-size="14.00">Default_desktop_7_0_</text>
</g>
<!-- &#45;1&#45;&gt;Default_desktop_7_0_ -->
<g id="edge17" class="edge">
<title>&#45;1&#45;&gt;Default_desktop_7_0_</title>
<path fill="none" stroke="black" d="M3561.88,-88.99C3471.11,-85.4 3172.67,-71.62 2916.7,-36.38"/>
<polygon fill="black" stroke="black" points="2917.2,-32.91 2906.81,-35 2916.23,-39.85 2917.2,-32.91"/>
</g>
<!-- Default_desktop_7_1_ -->
<g id="node26" class="node">
<title>Default_desktop_7_1_</title>
<polygon fill="none" stroke="black" points="3073.88,-36 2922.88,-36 2922.88,0 3073.88,0 3073.88,-36"/>
<text xml:space="preserve" text-anchor="middle" x="2998.38" y="-12.2" font-family="Helvetica,sans-Serif" font-size="14.00">Default_desktop_7_1_</text>
</g>
<!-- &#45;1&#45;&gt;Default_desktop_7_1_ -->
<g id="edge18" class="edge">
<title>&#45;1&#45;&gt;Default_desktop_7_1_</title>
<path fill="none" stroke="black" d="M3562.05,-88C3487.33,-82.32 3273.15,-64.78 3085.51,-36.41"/>
<polygon fill="black" stroke="black" points="3086.23,-32.98 3075.82,-34.93 3085.18,-39.9 3086.23,-32.98"/>
</g>
<!-- Default_desktop_7_2_ -->
<g id="node27" class="node">
<title>Default_desktop_7_2_</title>
<polygon fill="none" stroke="black" points="3242.88,-36 3091.88,-36 3091.88,0 3242.88,0 3242.88,-36"/>
<text xml:space="preserve" text-anchor="middle" x="3167.38" y="-12.2" font-family="Helvetica,sans-Serif" font-size="14.00">Default_desktop_7_2_</text>
</g>
<!-- &#45;1&#45;&gt;Default_desktop_7_2_ -->
<g id="edge19" class="edge">
<title>&#45;1&#45;&gt;Default_desktop_7_2_</title>
<path fill="none" stroke="black" d="M3562.15,-86.04C3506.37,-77.84 3374.86,-58.09 3254.58,-36.55"/>
<polygon fill="black" stroke="black" points="3255.31,-33.12 3244.84,-34.79 3254.06,-40.01 3255.31,-33.12"/>
</g>
<!-- Default_desktop_7_3_ -->
<g id="node28" class="node">
<title>Default_desktop_7_3_</title>
<polygon fill="none" stroke="black" points="3411.88,-36 3260.88,-36 3260.88,0 3411.88,0 3411.88,-36"/>
<text xml:space="preserve" text-anchor="middle" x="3336.38" y="-12.2" font-family="Helvetica,sans-Serif" font-size="14.00">Default_desktop_7_3_</text>
</g>
<!-- &#45;1&#45;&gt;Default_desktop_7_3_ -->
<g id="edge20" class="edge">
<title>&#45;1&#45;&gt;Default_desktop_7_3_</title>
<path fill="none" stroke="black" d="M3562.3,-82.4C3526.14,-72.25 3460.69,-53.89 3409.51,-39.52"/>
<polygon fill="black" stroke="black" points="3410.52,-36.17 3399.95,-36.84 3408.63,-42.91 3410.52,-36.17"/>
</g>
<!-- Default_desktop_7_4_ -->
<g id="node29" class="node">
<title>Default_desktop_7_4_</title>
<polygon fill="none" stroke="black" points="3580.88,-36 3429.88,-36 3429.88,0 3580.88,0 3580.88,-36"/>
<text xml:space="preserve" text-anchor="middle" x="3505.38" y="-12.2" font-family="Helvetica,sans-Serif" font-size="14.00">Default_desktop_7_4_</text>
</g>
<!-- &#45;1&#45;&gt;Default_desktop_7_4_ -->
<g id="edge21" class="edge">
<title>&#45;1&#45;&gt;Default_desktop_7_4_</title>
<path fill="none" stroke="black" d="M3569.04,-72.81C3558.7,-64.07 3545.94,-53.28 3534.56,-43.67"/>
<polygon fill="black" stroke="black" points="3536.87,-41.03 3526.97,-37.25 3532.35,-46.38 3536.87,-41.03"/>
</g>
<!-- Default_desktop_7_5_ -->
<g id="node30" class="node">
<title>Default_desktop_7_5_</title>
<polygon fill="none" stroke="black" points="3749.88,-36 3598.88,-36 3598.88,0 3749.88,0 3749.88,-36"/>
<text xml:space="preserve" text-anchor="middle" x="3674.38" y="-12.2" font-family="Helvetica,sans-Serif" font-size="14.00">Default_desktop_7_5_</text>
</g>
<!-- &#45;1&#45;&gt;Default_desktop_7_5_ -->
<g id="edge22" class="edge">
<title>&#45;1&#45;&gt;Default_desktop_7_5_</title>
<path fill="none" stroke="black" d="M3609.95,-72.81C3620.52,-63.98 3633.59,-53.07 3645.18,-43.39"/>
<polygon fill="black" stroke="black" points="3647.1,-46.34 3652.53,-37.25 3642.61,-40.97 3647.1,-46.34"/>
</g>
<!-- Default_desktop_7_6_ -->
<g id="node31" class="node">
<title>Default_desktop_7_6_</title>
<polygon fill="none" stroke="black" points="3918.88,-36 3767.88,-36 3767.88,0 3918.88,0 3918.88,-36"/>
<text xml:space="preserve" text-anchor="middle" x="3843.38" y="-12.2" font-family="Helvetica,sans-Serif" font-size="14.00">Default_desktop_7_6_</text>
</g>
<!-- &#45;1&#45;&gt;Default_desktop_7_6_ -->
<g id="edge23" class="edge">
<title>&#45;1&#45;&gt;Default_desktop_7_6_</title>
<path fill="none" stroke="black" d="M3616.61,-75.59C3619.53,-74.28 3622.49,-73.06 3625.38,-72 3649.52,-63.16 3706.73,-49.34 3756.49,-38.03"/>
<polygon fill="black" stroke="black" points="3757.18,-41.46 3766.16,-35.85 3755.63,-34.64 3757.18,-41.46"/>
</g>
<!-- Default_desktop_7_10_ -->
<g id="node32" class="node">
<title>Default_desktop_7_10_</title>
<polygon fill="none" stroke="black" points="4095.62,-36 3937.12,-36 3937.12,0 4095.62,0 4095.62,-36"/>
<text xml:space="preserve" text-anchor="middle" x="4016.38" y="-12.2" font-family="Helvetica,sans-Serif" font-size="14.00">Default_desktop_7_10_</text>
</g>
<!-- &#45;1&#45;&gt;Default_desktop_7_10_ -->
<g id="edge24" class="edge">
<title>&#45;1&#45;&gt;Default_desktop_7_10_</title>
<path fill="none" stroke="black" d="M3616.49,-75.23C3619.43,-73.99 3622.43,-72.88 3625.38,-72 3751.86,-34.12 3792.25,-55.66 3925.74,-36.31"/>
<polygon fill="black" stroke="black" points="3925.93,-39.82 3935.3,-34.87 3924.89,-32.9 3925.93,-39.82"/>
</g>
<!-- Default_desktop_7_11_ -->
<g id="node33" class="node">
<title>Default_desktop_7_11_</title>
<polygon fill="none" stroke="black" points="4272.62,-36 4114.12,-36 4114.12,0 4272.62,0 4272.62,-36"/>
<text xml:space="preserve" text-anchor="middle" x="4193.38" y="-12.2" font-family="Helvetica,sans-Serif" font-size="14.00">Default_desktop_7_11_</text>
</g>
<!-- &#45;1&#45;&gt;Default_desktop_7_11_ -->
<g id="edge25" class="edge">
<title>&#45;1&#45;&gt;Default_desktop_7_11_</title>
<path fill="none" stroke="black" d="M3616.86,-74.93C3619.68,-73.79 3622.55,-72.78 3625.38,-72 3827.65,-16.16 3890.59,-62.43 4102.67,-36.09"/>
<polygon fill="black" stroke="black" points="4102.9,-39.59 4112.37,-34.84 4102.01,-32.65 4102.9,-39.59"/>
</g>
<!-- Default_desktop_7_12_ -->
<g id="node34" class="node">
<title>Default_desktop_7_12_</title>
<polygon fill="none" stroke="black" points="4449.62,-36 4291.12,-36 4291.12,0 4449.62,0 4449.62,-36"/>
<text xml:space="preserve" text-anchor="middle" x="4370.38" y="-12.2" font-family="Helvetica,sans-Serif" font-size="14.00">Default_desktop_7_12_</text>
</g>
<!-- &#45;1&#45;&gt;Default_desktop_7_12_ -->
<g id="edge26" class="edge">
<title>&#45;1&#45;&gt;Default_desktop_7_12_</title>
<path fill="none" stroke="black" d="M3616.84,-74.87C3619.66,-73.74 3622.54,-72.75 3625.38,-72 3904.03,1.9 3989.38,-69.61 4279.58,-36.08"/>
<polygon fill="black" stroke="black" points="4279.86,-39.57 4289.38,-34.91 4279.03,-32.62 4279.86,-39.57"/>
</g>
<!-- Default_desktop_8_ -->
<g id="node35" class="node">
<title>Default_desktop_8_</title>
<polygon fill="none" stroke="black" points="4603.38,-36 4467.38,-36 4467.38,0 4603.38,0 4603.38,-36"/>
<text xml:space="preserve" text-anchor="middle" x="4535.38" y="-12.2" font-family="Helvetica,sans-Serif" font-size="14.00">Default_desktop_8_</text>
</g>
<!-- &#45;1&#45;&gt;Default_desktop_8_ -->
<g id="edge27" class="edge">
<title>&#45;1&#45;&gt;Default_desktop_8_</title>
<path fill="none" stroke="black" d="M3616.83,-74.84C3619.66,-73.71 3622.53,-72.74 3625.38,-72 3801.33,-26.43 4256.87,-58.78 4455.76,-36.11"/>
<polygon fill="black" stroke="black" points="4456.05,-39.61 4465.55,-34.92 4455.2,-32.66 4456.05,-39.61"/>
</g>
<!-- Default_desktop_9_ -->
<g id="node36" class="node">
<title>Default_desktop_9_</title>
<polygon fill="none" stroke="black" points="4757.38,-36 4621.38,-36 4621.38,0 4757.38,0 4757.38,-36"/>
<text xml:space="preserve" text-anchor="middle" x="4689.38" y="-12.2" font-family="Helvetica,sans-Serif" font-size="14.00">Default_desktop_9_</text>
</g>
<!-- &#45;1&#45;&gt;Default_desktop_9_ -->
<g id="edge28" class="edge">
<title>&#45;1&#45;&gt;Default_desktop_9_</title>
<path fill="none" stroke="black" d="M3616.82,-74.82C3619.65,-73.7 3622.53,-72.73 3625.38,-72 3834.6,-18.56 4376.81,-62.31 4609.86,-36.1"/>
<polygon fill="black" stroke="black" points="4610.04,-39.6 4619.55,-34.94 4609.2,-32.65 4610.04,-39.6"/>
</g>
<!-- Default_desktop_10_ -->
<g id="node37" class="node">
<title>Default_desktop_10_</title>
<polygon fill="none" stroke="black" points="4919.12,-36 4775.62,-36 4775.62,0 4919.12,0 4919.12,-36"/>
<text xml:space="preserve" text-anchor="middle" x="4847.38" y="-12.2" font-family="Helvetica,sans-Serif" font-size="14.00">Default_desktop_10_</text>
</g>
<!-- &#45;1&#45;&gt;Default_desktop_10_ -->
<g id="edge29" class="edge">
<title>&#45;1&#45;&gt;Default_desktop_10_</title>
<path fill="none" stroke="black" d="M3596.34,-72.55C3597.02,-72.36 3597.7,-72.17 3598.38,-72 3844.32,-9.83 4487.49,-66.17 4739.38,-36 4747.31,-35.05 4755.62,-33.71 4764.05,-32.19"/>
<polygon fill="black" stroke="black" points="4764.49,-35.67 4773.68,-30.4 4763.21,-28.79 4764.49,-35.67"/>
</g>
<!-- &#45;1&#45;&gt;Default_desktop_10_ -->
<g id="edge30" class="edge">
<title>&#45;1&#45;&gt;Default_desktop_10_</title>
<path fill="none" stroke="black" d="M3614.34,-72.55C3615.02,-72.36 3615.7,-72.17 3616.38,-72 3862.32,-9.83 4505.49,-66.17 4757.38,-36 4759.57,-35.74 4761.79,-35.44 4764.03,-35.13"/>
<polygon fill="black" stroke="black" points="4764.53,-38.59 4773.86,-33.58 4763.44,-31.68 4764.53,-38.59"/>
</g>
<!-- &#45;1&#45;&gt;Default_desktop_10_ -->
<g id="edge31" class="edge">
<title>&#45;1&#45;&gt;Default_desktop_10_</title>
<path fill="none" stroke="black" d="M3616.87,-78.68C3622.57,-75.99 3628.55,-73.47 3634.38,-72 3876.6,-10.77 4504.12,-64.49 4763.68,-37.31"/>
<polygon fill="black" stroke="black" points="4763.95,-40.8 4773.5,-36.21 4763.17,-33.85 4763.95,-40.8"/>
</g>
<!-- &#45;1&#45;&gt;Default_desktop_10_ -->
<g id="edge32" class="edge">
<title>&#45;1&#45;&gt;Default_desktop_10_</title>
<path fill="none" stroke="black" d="M3616.86,-85.38C3630.32,-81.01 3641.6,-74.72 3652.38,-72 3893.42,-11.07 4516,-63.97 4777.85,-37.7"/>
<polygon fill="black" stroke="black" points="4778.21,-41.18 4787.78,-36.64 4777.46,-34.22 4778.21,-41.18"/>
</g>
<!-- Default_desktop_11_ -->
<g id="node38" class="node">
<title>Default_desktop_11_</title>
<polygon fill="none" stroke="black" points="5081.12,-36 4937.62,-36 4937.62,0 5081.12,0 5081.12,-36"/>
<text xml:space="preserve" text-anchor="middle" x="5009.38" y="-12.2" font-family="Helvetica,sans-Serif" font-size="14.00">Default_desktop_11_</text>
</g>
<!-- &#45;1&#45;&gt;Default_desktop_11_ -->
<g id="edge33" class="edge">
<title>&#45;1&#45;&gt;Default_desktop_11_</title>
<path fill="none" stroke="black" d="M3616.82,-74.79C3619.65,-73.68 3622.53,-72.71 3625.38,-72 3902.92,-2.42 4622.84,-68.24 4926.43,-36.02"/>
<polygon fill="black" stroke="black" points="4926.44,-39.54 4935.99,-34.95 4925.66,-32.59 4926.44,-39.54"/>
</g>
<!-- Default_desktop_12_ -->
<g id="node39" class="node">
<title>Default_desktop_12_</title>
<polygon fill="none" stroke="black" points="5243.12,-36 5099.62,-36 5099.62,0 5243.12,0 5243.12,-36"/>
<text xml:space="preserve" text-anchor="middle" x="5171.38" y="-12.2" font-family="Helvetica,sans-Serif" font-size="14.00">Default_desktop_12_</text>
</g>
<!-- &#45;1&#45;&gt;Default_desktop_12_ -->
<g id="edge34" class="edge">
<title>&#45;1&#45;&gt;Default_desktop_12_</title>
<path fill="none" stroke="black" d="M3616.82,-74.78C3619.64,-73.67 3622.53,-72.71 3625.38,-72 3780.21,-33.43 4883.18,-53.94 5088.08,-35.95"/>
<polygon fill="black" stroke="black" points="5088.39,-39.43 5097.99,-34.95 5087.69,-32.47 5088.39,-39.43"/>
</g>
<!-- Default_desktop_13_ -->
<g id="node40" class="node">
<title>Default_desktop_13_</title>
<polygon fill="none" stroke="black" points="5405.12,-36 5261.62,-36 5261.62,0 5405.12,0 5405.12,-36"/>
<text xml:space="preserve" text-anchor="middle" x="5333.38" y="-12.2" font-family="Helvetica,sans-Serif" font-size="14.00">Default_desktop_13_</text>
</g>
<!-- &#45;1&#45;&gt;Default_desktop_13_ -->
<g id="edge35" class="edge">
<title>&#45;1&#45;&gt;Default_desktop_13_</title>
<path fill="none" stroke="black" d="M3605.34,-72.55C3606.02,-72.35 3606.7,-72.17 3607.38,-72 3782.89,-28.51 5054.74,-56.66 5234.38,-36 5239.55,-35.41 5244.87,-34.64 5250.26,-33.76"/>
<polygon fill="black" stroke="black" points="5250.64,-37.25 5259.89,-32.08 5249.44,-30.35 5250.64,-37.25"/>
</g>
<!-- &#45;1&#45;&gt;Default_desktop_13_ -->
<g id="edge36" class="edge">
<title>&#45;1&#45;&gt;Default_desktop_13_</title>
<path fill="none" stroke="black" d="M3616.81,-74.77C3619.64,-73.66 3622.53,-72.71 3625.38,-72 3797.72,-29.3 5027.14,-55.66 5250.22,-35.94"/>
<polygon fill="black" stroke="black" points="5250.39,-39.44 5259.99,-34.96 5249.69,-32.48 5250.39,-39.44"/>
</g>
<!-- &#45;1&#45;&gt;Default_desktop_13_ -->
<g id="edge37" class="edge">
<title>&#45;1&#45;&gt;Default_desktop_13_</title>
<path fill="none" stroke="black" d="M3616.61,-82.61C3625.69,-78.65 3634.69,-74.15 3643.38,-72 3814.46,-29.61 5027.2,-55.28 5254.71,-37.47"/>
<polygon fill="black" stroke="black" points="5254.81,-40.98 5264.46,-36.61 5254.19,-34.01 5254.81,-40.98"/>
</g>
<!-- Default_desktop_28_ -->
<g id="node44" class="node">
<title>Default_desktop_28_</title>
<polygon fill="none" stroke="black" points="5567.12,-36 5423.62,-36 5423.62,0 5567.12,0 5567.12,-36"/>
<text xml:space="preserve" text-anchor="middle" x="5495.38" y="-12.2" font-family="Helvetica,sans-Serif" font-size="14.00">Default_desktop_28_</text>
</g>
<!-- &#45;1&#45;&gt;Default_desktop_28_ -->
<g id="edge38" class="edge">
<title>&#45;1&#45;&gt;Default_desktop_28_</title>
<path fill="none" stroke="black" d="M3616.81,-74.77C3619.64,-73.66 3622.53,-72.7 3625.38,-72 3815.2,-25.17 5170.74,-57.41 5412.23,-35.95"/>
<polygon fill="black" stroke="black" points="5412.39,-39.45 5421.99,-34.96 5411.69,-32.48 5412.39,-39.45"/>
</g>
<!-- Default_desktop_29_ -->
<g id="node45" class="node">
<title>Default_desktop_29_</title>
<polygon fill="none" stroke="black" points="5729.12,-36 5585.62,-36 5585.62,0 5729.12,0 5729.12,-36"/>
<text xml:space="preserve" text-anchor="middle" x="5657.38" y="-12.2" font-family="Helvetica,sans-Serif" font-size="14.00">Default_desktop_29_</text>
</g>
<!-- &#45;1&#45;&gt;Default_desktop_29_ -->
<g id="edge39" class="edge">
<title>&#45;1&#45;&gt;Default_desktop_29_</title>
<path fill="none" stroke="black" d="M3616.81,-74.76C3619.64,-73.66 3622.53,-72.7 3625.38,-72 3832.73,-21.03 5315.07,-59.18 5574.42,-35.93"/>
<polygon fill="black" stroke="black" points="5574.4,-39.45 5583.99,-34.97 5573.69,-32.49 5574.4,-39.45"/>
</g>
<!-- Default_desktop_30_ -->
<g id="node46" class="node">
<title>Default_desktop_30_</title>
<polygon fill="none" stroke="black" points="5891.12,-36 5747.62,-36 5747.62,0 5891.12,0 5891.12,-36"/>
<text xml:space="preserve" text-anchor="middle" x="5819.38" y="-12.2" font-family="Helvetica,sans-Serif" font-size="14.00">Default_desktop_30_</text>
</g>
<!-- &#45;1&#45;&gt;Default_desktop_30_ -->
<g id="edge40" class="edge">
<title>&#45;1&#45;&gt;Default_desktop_30_</title>
<path fill="none" stroke="black" d="M3616.81,-74.76C3619.64,-73.65 3622.52,-72.7 3625.38,-72 3850.21,-16.9 5458.54,-60.95 5736.36,-35.94"/>
<polygon fill="black" stroke="black" points="5736.4,-39.46 5746,-34.97 5735.7,-32.49 5736.4,-39.46"/>
</g>
<!-- _ -->
<g id="node5" class="node">
<title>_</title>
<polygon fill="none" stroke="black" points="3688.38,-109 3634.38,-109 3634.38,-73 3688.38,-73 3688.38,-109"/>
<text xml:space="preserve" text-anchor="middle" x="3661.38" y="-85.2" font-family="Helvetica,sans-Serif" font-size="14.00">_</text>
</g>
<!-- _Chrome -->
<g id="node6" class="node">
<title>_Chrome</title>
<polygon fill="none" stroke="black" points="3770.75,-110 3706,-110 3706,-72 3770.75,-72 3770.75,-110"/>
<text xml:space="preserve" text-anchor="middle" x="3738.38" y="-92.7" font-family="Helvetica,sans-Serif" font-size="14.00">InApp</text>
<text xml:space="preserve" text-anchor="middle" x="3738.38" y="-77.7" font-family="Helvetica,sans-Serif" font-size="14.00">Chrome</text>
</g>
<!-- _VSCode -->
<g id="node7" class="node">
<title>_VSCode</title>
<polygon fill="none" stroke="black" points="3855.5,-110 3789.25,-110 3789.25,-72 3855.5,-72 3855.5,-110"/>
<text xml:space="preserve" text-anchor="middle" x="3822.38" y="-92.7" font-family="Helvetica,sans-Serif" font-size="14.00">InApp</text>
<text xml:space="preserve" text-anchor="middle" x="3822.38" y="-77.7" font-family="Helvetica,sans-Serif" font-size="14.00">VSCode</text>
</g>
<!-- _iTerm -->
<g id="node8" class="node">
<title>_iTerm</title>
<polygon fill="none" stroke="black" points="3927.38,-110 3873.38,-110 3873.38,-72 3927.38,-72 3927.38,-110"/>
<text xml:space="preserve" text-anchor="middle" x="3900.38" y="-92.7" font-family="Helvetica,sans-Serif" font-size="14.00">InApp</text>
<text xml:space="preserve" text-anchor="middle" x="3900.38" y="-77.7" font-family="Helvetica,sans-Serif" font-size="14.00">iTerm</text>
</g>
<!-- _nil -->
<g id="node9" class="node">
<title>_nil</title>
<polygon fill="none" stroke="black" points="4003.38,-109 3945.38,-109 3945.38,-73 4003.38,-73 4003.38,-109"/>
<text xml:space="preserve" text-anchor="middle" x="3974.38" y="-85.2" font-family="Helvetica,sans-Serif" font-size="14.00">L&#45;Exec</text>
</g>
<!-- Default_desktop_1_0_ -->
<g id="node10" class="node">
<title>Default_desktop_1_0_</title>
<polygon fill="none" stroke="black" points="4172.88,-109 4021.88,-109 4021.88,-73 4172.88,-73 4172.88,-109"/>
<text xml:space="preserve" text-anchor="middle" x="4097.38" y="-85.2" font-family="Helvetica,sans-Serif" font-size="14.00">Default_desktop_1_0_</text>
</g>
<!-- _0_nil -->
<g id="node41" class="node">
<title>_0_nil</title>
<polygon fill="none" stroke="black" points="4273.75,-110 4191,-110 4191,-72 4273.75,-72 4273.75,-110"/>
<text xml:space="preserve" text-anchor="middle" x="4232.38" y="-92.7" font-family="Helvetica,sans-Serif" font-size="14.00">Label</text>
<text xml:space="preserve" text-anchor="middle" x="4232.38" y="-77.7" font-family="Helvetica,sans-Serif" font-size="14.00">return&#45;to=0</text>
</g>
<!-- _1_nil -->
<g id="node42" class="node">
<title>_1_nil</title>
<polygon fill="none" stroke="black" points="4374.75,-110 4292,-110 4292,-72 4374.75,-72 4374.75,-110"/>
<text xml:space="preserve" text-anchor="middle" x="4333.38" y="-92.7" font-family="Helvetica,sans-Serif" font-size="14.00">Label</text>
<text xml:space="preserve" text-anchor="middle" x="4333.38" y="-77.7" font-family="Helvetica,sans-Serif" font-size="14.00">return&#45;to=1</text>
</g>
<!-- _7_nil -->
<g id="node43" class="node">
<title>_7_nil</title>
<polygon fill="none" stroke="black" points="4475.75,-110 4393,-110 4393,-72 4475.75,-72 4475.75,-110"/>
<text xml:space="preserve" text-anchor="middle" x="4434.38" y="-92.7" font-family="Helvetica,sans-Serif" font-size="14.00">Label</text>
<text xml:space="preserve" text-anchor="middle" x="4434.38" y="-77.7" font-family="Helvetica,sans-Serif" font-size="14.00">return&#45;to=7</text>
</g>
<!-- none_nil_nil_nil_nil -->
<g id="node47" class="node">
<title>none_nil_nil_nil_nil</title>
<polygon fill="none" stroke="black" points="318.38,-109 188.38,-109 188.38,-73 318.38,-73 318.38,-109"/>
<text xml:space="preserve" text-anchor="middle" x="253.38" y="-85.2" font-family="Helvetica,sans-Serif" font-size="14.00">none_nil_nil_nil_nil</text>
</g>
<!-- none_nil_nil_nil_nil&#45;&gt;Default_desktop_0_ -->
<g id="edge2" class="edge">
<title>none_nil_nil_nil_nil&#45;&gt;Default_desktop_0_</title>
<path fill="none" stroke="black" d="M232.8,-72.81C222.23,-63.98 209.16,-53.07 197.57,-43.39"/>
<polygon fill="black" stroke="black" points="200.14,-40.97 190.22,-37.25 195.65,-46.34 200.14,-40.97"/>
</g>
<!-- Default_laptop_nil_nil_nil -->
<g id="node48" class="node">
<title>Default_laptop_nil_nil_nil</title>
<polygon fill="none" stroke="black" points="420.38,-36 254.38,-36 254.38,0 420.38,0 420.38,-36"/>
<text xml:space="preserve" text-anchor="middle" x="337.38" y="-12.2" font-family="Helvetica,sans-Serif" font-size="14.00">Default_laptop_nil_nil_nil</text>
</g>
<!-- none_nil_nil_nil_nil&#45;&gt;Default_laptop_nil_nil_nil -->
<g id="edge1" class="edge">
<title>none_nil_nil_nil_nil&#45;&gt;Default_laptop_nil_nil_nil</title>
<path fill="none" stroke="black" d="M273.71,-72.81C284.05,-64.07 296.81,-53.28 308.19,-43.67"/>
<polygon fill="black" stroke="black" points="310.4,-46.38 315.78,-37.25 305.88,-41.03 310.4,-46.38"/>
</g>
</g>
</svg>
