<?xml version="1.0" encoding="UTF-8" standalone="no"?>
<!DOCTYPE svg PUBLIC "-//W3C//DTD SVG 1.1//EN"
 "http://www.w3.org/Graphics/SVG/1.1/DTD/svg11.dtd">
<!-- Generated by graphviz version 14.1.2 (20260124.0452)
 -->
<!-- Title: states Pages: 1 -->
<svg width="3655pt" height="118pt"
 viewBox="0.00 0.00 3655.00 118.00" xmlns="http://www.w3.org/2000/svg" xmlns:xlink="http://www.w3.org/1999/xlink">
<g id="graph0" class="graph" transform="scale(1 1) rotate(0) translate(4 114)">
<title>states</title>
<polygon fill="white" stroke="none" points="-4,4 -4,-114 3651.12,-114 3651.12,4 -4,4"/>
<!-- None_nil_nil_nil_nil_nil -->
<g id="node1" class="node">
<title>None_nil_nil_nil_nil_nil</title>
<polygon fill="none" stroke="black" points="94.75,-110 0,-110 0,-72 94.75,-72 94.75,-110"/>
<text xml:space="preserve" text-anchor="middle" x="47.38" y="-92.7" font-family="Helvetica,sans-Serif" font-size="14.00">None</text>
<text xml:space="preserve" text-anchor="middle" x="47.38" y="-77.7" font-family="Helvetica,sans-Serif" font-size="14.00">(placeholder)</text>
</g>
<!-- Default_laptop_nil_nil_nil_nil -->
<g id="node2" class="node">
<title>Default_laptop_nil_nil_nil_nil</title>
<polygon fill="none" stroke="black" points="170,-109 112.75,-109 112.75,-73 170,-73 170,-109"/>
<text xml:space="preserve" text-anchor="middle" x="141.38" y="-85.2" font-family="Helvetica,sans-Serif" font-size="14.00">Laptop</text>
</g>
<!-- Default_desktop_0_ -->
<g id="node3" class="node">
<title>Default_desktop_0_</title>
<polygon fill="none" stroke="black" points="236.38,-36 100.38,-36 100.38,0 236.38,0 236.38,-36"/>
<text xml:space="preserve" text-anchor="middle" x="168.38" y="-12.2" font-family="Helvetica,sans-Serif" font-size="14.00">Default_desktop_0_</text>
</g>
<!-- &#45;1 -->
<g id="node4" class="node">
<title>&#45;1</title>
<polygon fill="none" stroke="black" points="2395.38,-109 2341.38,-109 2341.38,-73 2395.38,-73 2395.38,-109"/>
<text xml:space="preserve" text-anchor="middle" x="2368.38" y="-85.2" font-family="Helvetica,sans-Serif" font-size="14.00">&#45;1</text>
</g>
<!-- Default_desktop_1_1_ -->
<g id="node11" class="node">
<title>Default_desktop_1_1_</title>
<polygon fill="none" stroke="black" points="589.88,-36 438.88,-36 438.88,0 589.88,0 589.88,-36"/>
<text xml:space="preserve" text-anchor="middle" x="514.38" y="-12.2" font-family="Helvetica,sans-Serif" font-size="14.00">Default_desktop_1_1_</text>
</g>
<!-- &#45;1&#45;&gt;Default_desktop_1_1_ -->
<g id="edge3" class="edge">
<title>&#45;1&#45;&gt;Default_desktop_1_1_</title>
<path fill="none" stroke="black" d="M2340.91,-89.8C2146.93,-88.29 980.34,-77.63 601.54,-36.23"/>
<polygon fill="black" stroke="black" points="602.12,-32.77 591.79,-35.13 601.34,-39.73 602.12,-32.77"/>
</g>
<!-- Default_desktop_1_2_ -->
<g id="node12" class="node">
<title>Default_desktop_1_2_</title>
<polygon fill="none" stroke="black" points="758.88,-36 607.88,-36 607.88,0 758.88,0 758.88,-36"/>
<text xml:space="preserve" text-anchor="middle" x="683.38" y="-12.2" font-family="Helvetica,sans-Serif" font-size="14.00">Default_desktop_1_2_</text>
</g>
<!-- &#45;1&#45;&gt;Default_desktop_1_2_ -->
<g id="edge4" class="edge">
<title>&#45;1&#45;&gt;Default_desktop_1_2_</title>
<path fill="none" stroke="black" d="M2340.92,-89.7C2158.08,-87.59 1113.69,-74.11 770.7,-36.25"/>
<polygon fill="black" stroke="black" points="771.13,-32.78 760.79,-35.12 770.33,-39.73 771.13,-32.78"/>
</g>
<!-- Default_desktop_1_3_ -->
<g id="node13" class="node">
<title>Default_desktop_1_3_</title>
<polygon fill="none" stroke="black" points="927.88,-36 776.88,-36 776.88,0 927.88,0 927.88,-36"/>
<text xml:space="preserve" text-anchor="middle" x="852.38" y="-12.2" font-family="Helvetica,sans-Serif" font-size="14.00">Default_desktop_1_3_</text>
</g>
<!-- &#45;1&#45;&gt;Default_desktop_1_3_ -->
<g id="edge5" class="edge">
<title>&#45;1&#45;&gt;Default_desktop_1_3_</title>
<path fill="none" stroke="black" d="M2341.09,-89.58C2170.34,-86.83 1246.2,-70.61 939.38,-36.22"/>
<polygon fill="black" stroke="black" points="940.13,-32.78 929.8,-35.11 939.33,-39.74 940.13,-32.78"/>
</g>
<!-- Default_desktop_1_4_ -->
<g id="node14" class="node">
<title>Default_desktop_1_4_</title>
<polygon fill="none" stroke="black" points="1096.88,-36 945.88,-36 945.88,0 1096.88,0 1096.88,-36"/>
<text xml:space="preserve" text-anchor="middle" x="1021.38" y="-12.2" font-family="Helvetica,sans-Serif" font-size="14.00">Default_desktop_1_4_</text>
</g>
<!-- &#45;1&#45;&gt;Default_desktop_1_4_ -->
<g id="edge6" class="edge">
<title>&#45;1&#45;&gt;Default_desktop_1_4_</title>
<path fill="none" stroke="black" d="M2341.01,-89.42C2182.48,-85.94 1379.79,-67.14 1108.65,-36.26"/>
<polygon fill="black" stroke="black" points="1109.14,-32.79 1098.8,-35.1 1108.32,-39.74 1109.14,-32.79"/>
</g>
<!-- Default_desktop_1_5_ -->
<g id="node15" class="node">
<title>Default_desktop_1_5_</title>
<polygon fill="none" stroke="black" points="1265.88,-36 1114.88,-36 1114.88,0 1265.88,0 1265.88,-36"/>
<text xml:space="preserve" text-anchor="middle" x="1190.38" y="-12.2" font-family="Helvetica,sans-Serif" font-size="14.00">Default_desktop_1_5_</text>
</g>
<!-- &#45;1&#45;&gt;Default_desktop_1_5_ -->
<g id="edge7" class="edge">
<title>&#45;1&#45;&gt;Default_desktop_1_5_</title>
<path fill="none" stroke="black" d="M2341.18,-90.16C2218.72,-90.56 1706.16,-88.93 1277.67,-36.31"/>
<polygon fill="black" stroke="black" points="1278.15,-32.84 1267.8,-35.08 1277.29,-39.79 1278.15,-32.84"/>
</g>
<!-- Default_desktop_1_6_ -->
<g id="node16" class="node">
<title>Default_desktop_1_6_</title>
<polygon fill="none" stroke="black" points="1434.88,-36 1283.88,-36 1283.88,0 1434.88,0 1434.88,-36"/>
<text xml:space="preserve" text-anchor="middle" x="1359.38" y="-12.2" font-family="Helvetica,sans-Serif" font-size="14.00">Default_desktop_1_6_</text>
</g>
<!-- &#45;1&#45;&gt;Default_desktop_1_6_ -->
<g id="edge8" class="edge">
<title>&#45;1&#45;&gt;Default_desktop_1_6_</title>
<path fill="none" stroke="black" d="M2341.03,-89.79C2230.47,-88.64 1805.65,-81.45 1446.69,-36.18"/>
<polygon fill="black" stroke="black" points="1447.15,-32.71 1436.79,-34.92 1446.27,-39.65 1447.15,-32.71"/>
</g>
<!-- Default_desktop_2_ -->
<g id="node17" class="node">
<title>Default_desktop_2_</title>
<polygon fill="none" stroke="black" points="1589.38,-36 1453.38,-36 1453.38,0 1589.38,0 1589.38,-36"/>
<text xml:space="preserve" text-anchor="middle" x="1521.38" y="-12.2" font-family="Helvetica,sans-Serif" font-size="14.00">Default_desktop_2_</text>
</g>
<!-- &#45;1&#45;&gt;Default_desktop_2_ -->
<g id="edge9" class="edge">
<title>&#45;1&#45;&gt;Default_desktop_2_</title>
<path fill="none" stroke="black" d="M2340.94,-89.53C2242.22,-87.56 1895.79,-77.97 1601.06,-36.26"/>
<polygon fill="black" stroke="black" points="1601.61,-32.8 1591.21,-34.85 1600.61,-39.73 1601.61,-32.8"/>
</g>
<!-- Default_desktop_3_ -->
<g id="node18" class="node">
<title>Default_desktop_3_</title>
<polygon fill="none" stroke="black" points="1743.38,-36 1607.38,-36 1607.38,0 1743.38,0 1743.38,-36"/>
<text xml:space="preserve" text-anchor="middle" x="1675.38" y="-12.2" font-family="Helvetica,sans-Serif" font-size="14.00">Default_desktop_3_</text>
</g>
<!-- &#45;1&#45;&gt;Default_desktop_3_ -->
<g id="edge10" class="edge">
<title>&#45;1&#45;&gt;Default_desktop_3_</title>
<path fill="none" stroke="black" d="M2340.9,-88.87C2255.49,-85.07 1986.97,-71.12 1755.08,-36.3"/>
<polygon fill="black" stroke="black" points="1755.63,-32.84 1745.22,-34.8 1754.58,-39.76 1755.63,-32.84"/>
</g>
<!-- Default_desktop_4_ -->
<g id="node19" class="node">
<title>Default_desktop_4_</title>
<polygon fill="none" stroke="black" points="1897.38,-36 1761.38,-36 1761.38,0 1897.38,0 1897.38,-36"/>
<text xml:space="preserve" text-anchor="middle" x="1829.38" y="-12.2" font-family="Helvetica,sans-Serif" font-size="14.00">Default_desktop_4_</text>
</g>
<!-- &#45;1&#45;&gt;Default_desktop_4_ -->
<g id="edge11" class="edge">
<title>&#45;1&#45;&gt;Default_desktop_4_</title>
<path fill="none" stroke="black" d="M2340.9,-87.76C2270.67,-81.84 2078.71,-64.36 1908.89,-36.33"/>
<polygon fill="black" stroke="black" points="1909.67,-32.91 1899.23,-34.72 1908.52,-39.82 1909.67,-32.91"/>
</g>
<!-- Default_desktop_5_ -->
<g id="node20" class="node">
<title>Default_desktop_5_</title>
<polygon fill="none" stroke="black" points="2051.38,-36 1915.38,-36 1915.38,0 2051.38,0 2051.38,-36"/>
<text xml:space="preserve" text-anchor="middle" x="1983.38" y="-12.2" font-family="Helvetica,sans-Serif" font-size="14.00">Default_desktop_5_</text>
</g>
<!-- &#45;1&#45;&gt;Default_desktop_5_ -->
<g id="edge12" class="edge">
<title>&#45;1&#45;&gt;Default_desktop_5_</title>
<path fill="none" stroke="black" d="M2341.11,-85.63C2289.08,-77.21 2171.82,-57.8 2062.96,-36.47"/>
<polygon fill="black" stroke="black" points="2063.75,-33.06 2053.26,-34.56 2062.4,-39.92 2063.75,-33.06"/>
</g>
<!-- Default_desktop_6_ -->
<g id="node21" class="node">
<title>Default_desktop_6_</title>
<polygon fill="none" stroke="black" points="2205.38,-36 2069.38,-36 2069.38,0 2205.38,0 2205.38,-36"/>
<text xml:space="preserve" text-anchor="middle" x="2137.38" y="-12.2" font-family="Helvetica,sans-Serif" font-size="14.00">Default_desktop_6_</text>
</g>
<!-- &#45;1&#45;&gt;Default_desktop_6_ -->
<g id="edge13" class="edge">
<title>&#45;1&#45;&gt;Default_desktop_6_</title>
<path fill="none" stroke="black" d="M2340.97,-81.58C2307.74,-71.36 2250.55,-53.78 2205.23,-39.86"/>
<polygon fill="black" stroke="black" points="2206.31,-36.53 2195.73,-36.93 2204.26,-43.22 2206.31,-36.53"/>
</g>
<!-- Default_desktop_8_ -->
<g id="node22" class="node">
<title>Default_desktop_8_</title>
<polygon fill="none" stroke="black" points="2359.38,-36 2223.38,-36 2223.38,0 2359.38,0 2359.38,-36"/>
<text xml:space="preserve" text-anchor="middle" x="2291.38" y="-12.2" font-family="Helvetica,sans-Serif" font-size="14.00">Default_desktop_8_</text>
</g>
<!-- &#45;1&#45;&gt;Default_desktop_8_ -->
<g id="edge14" class="edge">
<title>&#45;1&#45;&gt;Default_desktop_8_</title>
<path fill="none" stroke="black" d="M2349.74,-72.81C2340.35,-64.16 2328.79,-53.5 2318.44,-43.96"/>
<polygon fill="black" stroke="black" points="2320.95,-41.51 2311.22,-37.3 2316.2,-46.65 2320.95,-41.51"/>
</g>
<!-- Default_desktop_9_ -->
<g id="node23" class="node">
<title>Default_desktop_9_</title>
<polygon fill="none" stroke="black" points="2513.38,-36 2377.38,-36 2377.38,0 2513.38,0 2513.38,-36"/>
<text xml:space="preserve" text-anchor="middle" x="2445.38" y="-12.2" font-family="Helvetica,sans-Serif" font-size="14.00">Default_desktop_9_</text>
</g>
<!-- &#45;1&#45;&gt;Default_desktop_9_ -->
<g id="edge15" class="edge">
<title>&#45;1&#45;&gt;Default_desktop_9_</title>
<path fill="none" stroke="black" d="M2387.01,-72.81C2396.4,-64.16 2407.96,-53.5 2418.31,-43.96"/>
<polygon fill="black" stroke="black" points="2420.55,-46.65 2425.53,-37.3 2415.8,-41.51 2420.55,-46.65"/>
</g>
<!-- Default_desktop_10_ -->
<g id="node24" class="node">
<title>Default_desktop_10_</title>
<polygon fill="none" stroke="black" points="2675.12,-36 2531.62,-36 2531.62,0 2675.12,0 2675.12,-36"/>
<text xml:space="preserve" text-anchor="middle" x="2603.38" y="-12.2" font-family="Helvetica,sans-Serif" font-size="14.00">Default_desktop_10_</text>
</g>
<!-- &#45;1&#45;&gt;Default_desktop_10_ -->
<g id="edge16" class="edge">
<title>&#45;1&#45;&gt;Default_desktop_10_</title>
<path fill="none" stroke="black" d="M2375.8,-72.61C2376.33,-72.4 2376.85,-72.2 2377.38,-72 2422.74,-54.82 2475.93,-40.96 2519.91,-31.73"/>
<polygon fill="black" stroke="black" points="2520.6,-35.16 2529.7,-29.73 2519.2,-28.31 2520.6,-35.16"/>
</g>
<!-- &#45;1&#45;&gt;Default_desktop_10_ -->
<g id="edge17" class="edge">
<title>&#45;1&#45;&gt;Default_desktop_10_</title>
<path fill="none" stroke="black" d="M2393.8,-72.61C2394.33,-72.4 2394.85,-72.2 2395.38,-72 2435.57,-56.78 2481.89,-44.17 2520.65,-35.07"/>
<polygon fill="black" stroke="black" points="2520.94,-38.6 2529.9,-32.94 2519.37,-31.78 2520.94,-38.6"/>
</g>
<!-- &#45;1&#45;&gt;Default_desktop_10_ -->
<g id="edge18" class="edge">
<title>&#45;1&#45;&gt;Default_desktop_10_</title>
<path fill="none" stroke="black" d="M2395.74,-79.73C2401.57,-76.98 2407.62,-74.18 2413.38,-72 2447.92,-58.92 2487,-47.76 2520.73,-39.11"/>
<polygon fill="black" stroke="black" points="2521.17,-42.61 2530.01,-36.76 2519.46,-35.82 2521.17,-42.61"/>
</g>
<!-- &#45;1&#45;&gt;Default_desktop_10_ -->
<g id="edge19" class="edge">
<title>&#45;1&#45;&gt;Default_desktop_10_</title>
<path fill="none" stroke="black" d="M2395.76,-85.97C2409.47,-82 2420.92,-75.96 2431.38,-72 2465.77,-58.98 2504.66,-47.86 2537.12,-39.22"/>
<polygon fill="black" stroke="black" points="2537.62,-42.71 2546.4,-36.78 2535.84,-35.94 2537.62,-42.71"/>
</g>
<!-- Default_desktop_11_ -->
<g id="node25" class="node">
<title>Default_desktop_11_</title>
<polygon fill="none" stroke="black" points="2837.12,-36 2693.62,-36 2693.62,0 2837.12,0 2837.12,-36"/>
<text xml:space="preserve" text-anchor="middle" x="2765.38" y="-12.2" font-family="Helvetica,sans-Serif" font-size="14.00">Default_desktop_11_</text>
</g>
<!-- &#45;1&#45;&gt;Default_desktop_11_ -->
<g id="edge20" class="edge">
<title>&#45;1&#45;&gt;Default_desktop_11_</title>
<path fill="none" stroke="black" d="M2395.5,-75.26C2398.44,-74.02 2401.43,-72.9 2404.38,-72 2521,-36.47 2558.54,-55.73 2682.39,-36.21"/>
<polygon fill="black" stroke="black" points="2682.64,-39.72 2691.95,-34.65 2681.51,-32.81 2682.64,-39.72"/>
</g>
<!-- Default_desktop_12_ -->
<g id="node26" class="node">
<title>Default_desktop_12_</title>
<polygon fill="none" stroke="black" points="2999.12,-36 2855.62,-36 2855.62,0 2999.12,0 2999.12,-36"/>
<text xml:space="preserve" text-anchor="middle" x="2927.38" y="-12.2" font-family="Helvetica,sans-Serif" font-size="14.00">Default_desktop_12_</text>
</g>
<!-- &#45;1&#45;&gt;Default_desktop_12_ -->
<g id="edge21" class="edge">
<title>&#45;1&#45;&gt;Default_desktop_12_</title>
<path fill="none" stroke="black" d="M2395.86,-74.95C2398.68,-73.8 2401.55,-72.79 2404.38,-72 2590.68,-19.95 2649.16,-62.65 2844.26,-36.16"/>
<polygon fill="black" stroke="black" points="2844.56,-39.65 2853.97,-34.79 2843.58,-32.72 2844.56,-39.65"/>
</g>
<!-- Default_desktop_13_ -->
<g id="node27" class="node">
<title>Default_desktop_13_</title>
<polygon fill="none" stroke="black" points="3161.12,-36 3017.62,-36 3017.62,0 3161.12,0 3161.12,-36"/>
<text xml:space="preserve" text-anchor="middle" x="3089.38" y="-12.2" font-family="Helvetica,sans-Serif" font-size="14.00">Default_desktop_13_</text>
</g>
<!-- &#45;1&#45;&gt;Default_desktop_13_ -->
<g id="edge22" class="edge">
<title>&#45;1&#45;&gt;Default_desktop_13_</title>
<path fill="none" stroke="black" d="M2393.35,-72.58C2394.02,-72.37 2394.7,-72.18 2395.38,-72 2655.15,-2.45 2732.84,-71.72 2999.38,-36 3001.56,-35.71 3003.78,-35.39 3006.02,-35.05"/>
<polygon fill="black" stroke="black" points="3006.55,-38.51 3015.84,-33.42 3005.4,-31.6 3006.55,-38.51"/>
</g>
<!-- &#45;1&#45;&gt;Default_desktop_13_ -->
<g id="edge23" class="edge">
<title>&#45;1&#45;&gt;Default_desktop_13_</title>
<path fill="none" stroke="black" d="M2395.5,-78.97C2401.32,-76.21 2407.44,-73.59 2413.38,-72 2669.34,-3.47 2748.52,-69.72 3005.79,-37.5"/>
<polygon fill="black" stroke="black" points="3006.02,-41 3015.48,-36.25 3005.12,-34.06 3006.02,-41"/>
</g>
<!-- Default_desktop_28_ -->
<g id="node30" class="node">
<title>Default_desktop_28_</title>
<polygon fill="none" stroke="black" points="3323.12,-36 3179.62,-36 3179.62,0 3323.12,0 3323.12,-36"/>
<text xml:space="preserve" text-anchor="middle" x="3251.38" y="-12.2" font-family="Helvetica,sans-Serif" font-size="14.00">Default_desktop_28_</text>
</g>
<!-- &#45;1&#45;&gt;Default_desktop_28_ -->
<g id="edge24" class="edge">
<title>&#45;1&#45;&gt;Default_desktop_28_</title>
<path fill="none" stroke="black" d="M2395.83,-74.85C2398.66,-73.72 2401.54,-72.74 2404.38,-72 2565.88,-29.85 2983.73,-56.43 3168.21,-36.05"/>
<polygon fill="black" stroke="black" points="3168.47,-39.55 3177.98,-34.89 3167.64,-32.6 3168.47,-39.55"/>
</g>
<!-- Default_desktop_29_ -->
<g id="node31" class="node">
<title>Default_desktop_29_</title>
<polygon fill="none" stroke="black" points="3485.12,-36 3341.62,-36 3341.62,0 3485.12,0 3485.12,-36"/>
<text xml:space="preserve" text-anchor="middle" x="3413.38" y="-12.2" font-family="Helvetica,sans-Serif" font-size="14.00">Default_desktop_29_</text>
</g>
<!-- &#45;1&#45;&gt;Default_desktop_29_ -->
<g id="edge25" class="edge">
<title>&#45;1&#45;&gt;Default_desktop_29_</title>
<path fill="none" stroke="black" d="M2395.83,-74.82C2398.65,-73.7 2401.53,-72.73 2404.38,-72 2600.86,-21.58 3109.76,-59.92 3330.26,-36.04"/>
<polygon fill="black" stroke="black" points="3330.46,-39.54 3339.99,-34.92 3329.65,-32.59 3330.46,-39.54"/>
</g>
<!-- Default_desktop_30_ -->
<g id="node32" class="node">
<title>Default_desktop_30_</title>
<polygon fill="none" stroke="black" points="3647.12,-36 3503.62,-36 3503.62,0 3647.12,0 3647.12,-36"/>
<text xml:space="preserve" text-anchor="middle" x="3575.38" y="-12.2" font-family="Helvetica,sans-Serif" font-size="14.00">Default_desktop_30_</text>
</g>
<!-- &#45;1&#45;&gt;Default_desktop_30_ -->
<g id="edge26" class="edge">
<title>&#45;1&#45;&gt;Default_desktop_30_</title>
<path fill="none" stroke="black" d="M2395.82,-74.81C2398.65,-73.69 2401.53,-72.72 2404.38,-72 2635.85,-13.31 3235.84,-63.48 3492.29,-36.04"/>
<polygon fill="black" stroke="black" points="3492.45,-39.54 3501.99,-34.93 3491.66,-32.59 3492.45,-39.54"/>
</g>
<!-- _ -->
<g id="node5" class="node">
<title>_</title>
<polygon fill="none" stroke="black" points="2467.38,-109 2413.38,-109 2413.38,-73 2467.38,-73 2467.38,-109"/>
<text xml:space="preserve" text-anchor="middle" x="2440.38" y="-85.2" font-family="Helvetica,sans-Serif" font-size="14.00">_</text>
</g>
<!-- _Chrome -->
<g id="node6" class="node">
<title>_Chrome</title>
<polygon fill="none" stroke="black" points="2549.75,-110 2485,-110 2485,-72 2549.75,-72 2549.75,-110"/>
<text xml:space="preserve" text-anchor="middle" x="2517.38" y="-92.7" font-family="Helvetica,sans-Serif" font-size="14.00">InApp</text>
<text xml:space="preserve" text-anchor="middle" x="2517.38" y="-77.7" font-family="Helvetica,sans-Serif" font-size="14.00">Chrome</text>
</g>
<!-- _VSCode -->
<g id="node7" class="node">
<title>_VSCode</title>
<polygon fill="none" stroke="black" points="2634.5,-110 2568.25,-110 2568.25,-72 2634.5,-72 2634.5,-110"/>
<text xml:space="preserve" text-anchor="middle" x="2601.38" y="-92.7" font-family="Helvetica,sans-Serif" font-size="14.00">InApp</text>
<text xml:space="preserve" text-anchor="middle" x="2601.38" y="-77.7" font-family="Helvetica,sans-Serif" font-size="14.00">VSCode</text>
</g>
<!-- _iTerm -->
<g id="node8" class="node">
<title>_iTerm</title>
<polygon fill="none" stroke="black" points="2706.38,-110 2652.38,-110 2652.38,-72 2706.38,-72 2706.38,-110"/>
<text xml:space="preserve" text-anchor="middle" x="2679.38" y="-92.7" font-family="Helvetica,sans-Serif" font-size="14.00">InApp</text>
<text xml:space="preserve" text-anchor="middle" x="2679.38" y="-77.7" font-family="Helvetica,sans-Serif" font-size="14.00">iTerm</text>
</g>
<!-- _nil -->
<g id="node9" class="node">
<title>_nil</title>
<polygon fill="none" stroke="black" points="2782.38,-109 2724.38,-109 2724.38,-73 2782.38,-73 2782.38,-109"/>
<text xml:space="preserve" text-anchor="middle" x="2753.38" y="-85.2" font-family="Helvetica,sans-Serif" font-size="14.00">L&#45;Exec</text>
</g>
<!-- Default_desktop_1_0_ -->
<g id="node10" class="node">
<title>Default_desktop_1_0_</title>
<polygon fill="none" stroke="black" points="2951.88,-109 2800.88,-109 2800.88,-73 2951.88,-73 2951.88,-109"/>
<text xml:space="preserve" text-anchor="middle" x="2876.38" y="-85.2" font-family="Helvetica,sans-Serif" font-size="14.00">Default_desktop_1_0_</text>
</g>
<!-- _0_nil -->
<g id="node28" class="node">
<title>_0_nil</title>
<polygon fill="none" stroke="black" points="3052.75,-110 2970,-110 2970,-72 3052.75,-72 3052.75,-110"/>
<text xml:space="preserve" text-anchor="middle" x="3011.38" y="-92.7" font-family="Helvetica,sans-Serif" font-size="14.00">Label</text>
<text xml:space="preserve" text-anchor="middle" x="3011.38" y="-77.7" font-family="Helvetica,sans-Serif" font-size="14.00">return&#45;to=0</text>
</g>
<!-- _1_nil -->
<g id="node29" class="node">
<title>_1_nil</title>
<polygon fill="none" stroke="black" points="3153.75,-110 3071,-110 3071,-72 3153.75,-72 3153.75,-110"/>
<text xml:space="preserve" text-anchor="middle" x="3112.38" y="-92.7" font-family="Helvetica,sans-Serif" font-size="14.00">Label</text>
<text xml:space="preserve" text-anchor="middle" x="3112.38" y="-77.7" font-family="Helvetica,sans-Serif" font-size="14.00">return&#45;to=1</text>
</g>
<!-- none_nil_nil_nil_nil -->
<g id="node33" class="node">
<title>none_nil_nil_nil_nil</title>
<polygon fill="none" stroke="black" points="318.38,-109 188.38,-109 188.38,-73 318.38,-73 318.38,-109"/>
<text xml:space="preserve" text-anchor="middle" x="253.38" y="-85.2" font-family="Helvetica,sans-Serif" font-size="14.00">none_nil_nil_nil_nil</text>
</g>
<!-- none_nil_nil_nil_nil&#45;&gt;Default_desktop_0_ -->
<g id="edge2" class="edge">
<title>none_nil_nil_nil_nil&#45;&gt;Default_desktop_0_</title>
<path fill="none" stroke="black" d="M232.8,-72.81C222.23,-63.98 209.16,-53.07 197.57,-43.39"/>
<polygon fill="black" stroke="black" points="200.14,-40.97 190.22,-37.25 195.65,-46.34 200.14,-40.97"/>
</g>
<!-- Default_laptop_nil_nil_nil -->
<g id="node34" class="node">
<title>Default_laptop_nil_nil_nil</title>
<polygon fill="none" stroke="black" points="420.38,-36 254.38,-36 254.38,0 420.38,0 420.38,-36"/>
<text xml:space="preserve" text-anchor="middle" x="337.38" y="-12.2" font-family="Helvetica,sans-Serif" font-size="14.00">Default_laptop_nil_nil_nil</text>
</g>
<!-- none_nil_nil_nil_nil&#45;&gt;Default_laptop_nil_nil_nil -->
<g id="edge1" class="edge">
<title>none_nil_nil_nil_nil&#45;&gt;Default_laptop_nil_nil_nil</title>
<path fill="none" stroke="black" d="M273.71,-72.81C284.05,-64.07 296.81,-53.28 308.19,-43.67"/>
<polygon fill="black" stroke="black" points="310.4,-46.38 315.78,-37.25 305.88,-41.03 310.4,-46.38"/>
</g>
</g>
</svg>
