<?xml version="1.0" encoding="UTF-8" standalone="no"?>
<!DOCTYPE svg PUBLIC "-//W3C//DTD SVG 1.1//EN"
 "http://www.w3.org/Graphics/SVG/1.1/DTD/svg11.dtd">
<!-- Generated by graphviz version 14.1.2 (20260124.0452)
 -->
<!-- Title: states Pages: 1 -->
<svg width="5369pt" height="118pt"
 viewBox="0.00 0.00 5369.00 118.00" xmlns="http://www.w3.org/2000/svg" xmlns:xlink="http://www.w3.org/1999/xlink">
<g id="graph0" class="graph" transform="scale(1 1) rotate(0) translate(4 114)">
<title>states</title>
<polygon fill="white" stroke="none" points="-4,4 -4,-114 5365.12,-114 5365.12,4 -4,4"/>
<!-- None_nil_nil_nil_nil_nil -->
<g id="node1" class="node">
<title>None_nil_nil_nil_nil_nil</title>
<polygon fill="none" stroke="black" points="94.75,-110 0,-110 0,-72 94.75,-72 94.75,-110"/>
<text xml:space="preserve" text-anchor="middle" x="47.38" y="-92.7" font-family="Helvetica,sans-Serif" font-size="14.00">None</text>
<text xml:space="preserve" text-anchor="middle" x="47.38" y="-77.7" font-family="Helvetica,sans-Serif" font-size="14.00">(placeholder)</text>
</g>
<!-- Default_laptop_nil_nil_nil_nil -->
<g id="node2" class="node">
<title>Default_laptop_nil_nil_nil_nil</title>
<polygon fill="none" stroke="black" points="170,-109 112.75,-109 112.75,-73 170,-73 170,-109"/>
<text xml:space="preserve" text-anchor="middle" x="141.38" y="-85.2" font-family="Helvetica,sans-Serif" font-size="14.00">Laptop</text>
</g>
<!-- Default_desktop_0_ -->
<g id="node3" class="node">
<title>Default_desktop_0_</title>
<polygon fill="none" stroke="black" points="236.38,-36 100.38,-36 100.38,0 236.38,0 236.38,-36"/>
<text xml:space="preserve" text-anchor="middle" x="168.38" y="-12.2" font-family="Helvetica,sans-Serif" font-size="14.00">Default_desktop_0_</text>
</g>
<!-- &#45;1 -->
<g id="node4" class="node">
<title>&#45;1</title>
<polygon fill="none" stroke="black" points="3171.38,-109 3117.38,-109 3117.38,-73 3171.38,-73 3171.38,-109"/>
<text xml:space="preserve" text-anchor="middle" x="3144.38" y="-85.2" font-family="Helvetica,sans-Serif" font-size="14.00">&#45;1</text>
</g>
<!-- Default_desktop_1_1_ -->
<g id="node11" class="node">
<title>Default_desktop_1_1_</title>
<polygon fill="none" stroke="black" points="589.88,-36 438.88,-36 438.88,0 589.88,0 589.88,-36"/>
<text xml:space="preserve" text-anchor="middle" x="514.38" y="-12.2" font-family="Helvetica,sans-Serif" font-size="14.00">Default_desktop_1_1_</text>
</g>
<!-- &#45;1&#45;&gt;Default_desktop_1_1_ -->
<g id="edge3" class="edge">
<title>&#45;1&#45;&gt;Default_desktop_1_1_</title>
<path fill="none" stroke="black" d="M3116.9,-90.09C2877.79,-90.82 1145.75,-94.01 601.36,-36.2"/>
<polygon fill="black" stroke="black" points="602.11,-32.76 591.79,-35.16 601.35,-39.72 602.11,-32.76"/>
</g>
<!-- Default_desktop_1_2_ -->
<g id="node12" class="node">
<title>Default_desktop_1_2_</title>
<polygon fill="none" stroke="black" points="758.88,-36 607.88,-36 607.88,0 758.88,0 758.88,-36"/>
<text xml:space="preserve" text-anchor="middle" x="683.38" y="-12.2" font-family="Helvetica,sans-Serif" font-size="14.00">Default_desktop_1_2_</text>
</g>
<!-- &#45;1&#45;&gt;Default_desktop_1_2_ -->
<g id="edge4" class="edge">
<title>&#45;1&#45;&gt;Default_desktop_1_2_</title>
<path fill="none" stroke="black" d="M3116.93,-90.05C2887.11,-90.34 1279.38,-90.42 770.73,-36.24"/>
<polygon fill="black" stroke="black" points="771.11,-32.76 760.79,-35.15 770.35,-39.72 771.11,-32.76"/>
</g>
<!-- Default_desktop_1_3_ -->
<g id="node13" class="node">
<title>Default_desktop_1_3_</title>
<polygon fill="none" stroke="black" points="927.88,-36 776.88,-36 776.88,0 927.88,0 927.88,-36"/>
<text xml:space="preserve" text-anchor="middle" x="852.38" y="-12.2" font-family="Helvetica,sans-Serif" font-size="14.00">Default_desktop_1_3_</text>
</g>
<!-- &#45;1&#45;&gt;Default_desktop_1_3_ -->
<g id="edge5" class="edge">
<title>&#45;1&#45;&gt;Default_desktop_1_3_</title>
<path fill="none" stroke="black" d="M3117.15,-89.99C2897.6,-89.83 1412.12,-86.86 939.6,-36.23"/>
<polygon fill="black" stroke="black" points="940.11,-32.76 929.79,-35.15 939.35,-39.72 940.11,-32.76"/>
</g>
<!-- Default_desktop_1_4_ -->
<g id="node14" class="node">
<title>Default_desktop_1_4_</title>
<polygon fill="none" stroke="black" points="1096.88,-36 945.88,-36 945.88,0 1096.88,0 1096.88,-36"/>
<text xml:space="preserve" text-anchor="middle" x="1021.38" y="-12.2" font-family="Helvetica,sans-Serif" font-size="14.00">Default_desktop_1_4_</text>
</g>
<!-- &#45;1&#45;&gt;Default_desktop_1_4_ -->
<g id="edge6" class="edge">
<title>&#45;1&#45;&gt;Default_desktop_1_4_</title>
<path fill="none" stroke="black" d="M3116.92,-89.93C2906.43,-89.27 1545.02,-83.28 1108.67,-36.24"/>
<polygon fill="black" stroke="black" points="1109.12,-32.76 1098.79,-35.14 1108.35,-39.72 1109.12,-32.76"/>
</g>
<!-- Default_desktop_1_5_ -->
<g id="node15" class="node">
<title>Default_desktop_1_5_</title>
<polygon fill="none" stroke="black" points="1265.88,-36 1114.88,-36 1114.88,0 1265.88,0 1265.88,-36"/>
<text xml:space="preserve" text-anchor="middle" x="1190.38" y="-12.2" font-family="Helvetica,sans-Serif" font-size="14.00">Default_desktop_1_5_</text>
</g>
<!-- &#45;1&#45;&gt;Default_desktop_1_5_ -->
<g id="edge7" class="edge">
<title>&#45;1&#45;&gt;Default_desktop_1_5_</title>
<path fill="none" stroke="black" d="M3116.99,-89.85C2916.97,-88.67 1677.83,-79.73 1277.6,-36.23"/>
<polygon fill="black" stroke="black" points="1278.12,-32.77 1267.79,-35.14 1277.34,-39.73 1278.12,-32.77"/>
</g>
<!-- Default_desktop_1_6_ -->
<g id="node16" class="node">
<title>Default_desktop_1_6_</title>
<polygon fill="none" stroke="black" points="1434.88,-36 1283.88,-36 1283.88,0 1434.88,0 1434.88,-36"/>
<text xml:space="preserve" text-anchor="middle" x="1359.38" y="-12.2" font-family="Helvetica,sans-Serif" font-size="14.00">Default_desktop_1_6_</text>
</g>
<!-- &#45;1&#45;&gt;Default_desktop_1_6_ -->
<g id="edge8" class="edge">
<title>&#45;1&#45;&gt;Default_desktop_1_6_</title>
<path fill="none" stroke="black" d="M3117.09,-89.75C2928.17,-87.95 1811.76,-75.8 1446.64,-36.1"/>
<polygon fill="black" stroke="black" points="1447.11,-32.63 1436.78,-35 1446.33,-39.59 1447.11,-32.63"/>
</g>
<!-- Default_desktop_2_ -->
<g id="node17" class="node">
<title>Default_desktop_2_</title>
<polygon fill="none" stroke="black" points="1589.38,-36 1453.38,-36 1453.38,0 1589.38,0 1589.38,-36"/>
<text xml:space="preserve" text-anchor="middle" x="1521.38" y="-12.2" font-family="Helvetica,sans-Serif" font-size="14.00">Default_desktop_2_</text>
</g>
<!-- &#45;1&#45;&gt;Default_desktop_2_ -->
<g id="edge9" class="edge">
<title>&#45;1&#45;&gt;Default_desktop_2_</title>
<path fill="none" stroke="black" d="M3116.99,-89.73C2937.97,-87.84 1931.9,-75.65 1600.72,-36.12"/>
<polygon fill="black" stroke="black" points="1601.55,-32.7 1591.2,-34.95 1600.69,-39.64 1601.55,-32.7"/>
</g>
<!-- Default_desktop_3_ -->
<g id="node18" class="node">
<title>Default_desktop_3_</title>
<polygon fill="none" stroke="black" points="1743.38,-36 1607.38,-36 1607.38,0 1743.38,0 1743.38,-36"/>
<text xml:space="preserve" text-anchor="middle" x="1675.38" y="-12.2" font-family="Helvetica,sans-Serif" font-size="14.00">Default_desktop_3_</text>
</g>
<!-- &#45;1&#45;&gt;Default_desktop_3_ -->
<g id="edge10" class="edge">
<title>&#45;1&#45;&gt;Default_desktop_3_</title>
<path fill="none" stroke="black" d="M3117.03,-89.61C2948.95,-87.08 2053.62,-72.19 1754.92,-36.15"/>
<polygon fill="black" stroke="black" points="1755.56,-32.7 1745.2,-34.94 1754.69,-39.65 1755.56,-32.7"/>
</g>
<!-- Default_desktop_4_ -->
<g id="node19" class="node">
<title>Default_desktop_4_</title>
<polygon fill="none" stroke="black" points="1897.38,-36 1761.38,-36 1761.38,0 1897.38,0 1897.38,-36"/>
<text xml:space="preserve" text-anchor="middle" x="1829.38" y="-12.2" font-family="Helvetica,sans-Serif" font-size="14.00">Default_desktop_4_</text>
</g>
<!-- &#45;1&#45;&gt;Default_desktop_4_ -->
<g id="edge11" class="edge">
<title>&#45;1&#45;&gt;Default_desktop_4_</title>
<path fill="none" stroke="black" d="M3117.03,-89.45C2960.38,-86.23 2174.78,-68.74 1908.83,-36.14"/>
<polygon fill="black" stroke="black" points="1909.56,-32.71 1899.2,-34.92 1908.68,-39.65 1909.56,-32.71"/>
</g>
<!-- Default_desktop_5_ -->
<g id="node20" class="node">
<title>Default_desktop_5_</title>
<polygon fill="none" stroke="black" points="2051.38,-36 1915.38,-36 1915.38,0 2051.38,0 2051.38,-36"/>
<text xml:space="preserve" text-anchor="middle" x="1983.38" y="-12.2" font-family="Helvetica,sans-Serif" font-size="14.00">Default_desktop_5_</text>
</g>
<!-- &#45;1&#45;&gt;Default_desktop_5_ -->
<g id="edge12" class="edge">
<title>&#45;1&#45;&gt;Default_desktop_5_</title>
<path fill="none" stroke="black" d="M3116.99,-90.32C2994.82,-91.38 2487.26,-92.12 2062.97,-36.21"/>
<polygon fill="black" stroke="black" points="2063.58,-32.76 2053.2,-34.91 2062.65,-39.7 2063.58,-32.76"/>
</g>
<!-- Default_desktop_6_ -->
<g id="node21" class="node">
<title>Default_desktop_6_</title>
<polygon fill="none" stroke="black" points="2205.38,-36 2069.38,-36 2069.38,0 2205.38,0 2205.38,-36"/>
<text xml:space="preserve" text-anchor="middle" x="2137.38" y="-12.2" font-family="Helvetica,sans-Serif" font-size="14.00">Default_desktop_6_</text>
</g>
<!-- &#45;1&#45;&gt;Default_desktop_6_ -->
<g id="edge13" class="edge">
<title>&#45;1&#45;&gt;Default_desktop_6_</title>
<path fill="none" stroke="black" d="M3117.21,-90C3006.4,-89.67 2577.74,-85.19 2216.9,-36.21"/>
<polygon fill="black" stroke="black" points="2217.59,-32.78 2207.21,-34.88 2216.64,-39.71 2217.59,-32.78"/>
</g>
<!-- Default_desktop_7_0_ -->
<g id="node22" class="node">
<title>Default_desktop_7_0_</title>
<polygon fill="none" stroke="black" points="2374.88,-36 2223.88,-36 2223.88,0 2374.88,0 2374.88,-36"/>
<text xml:space="preserve" text-anchor="middle" x="2299.38" y="-12.2" font-family="Helvetica,sans-Serif" font-size="14.00">Default_desktop_7_0_</text>
</g>
<!-- &#45;1&#45;&gt;Default_desktop_7_0_ -->
<g id="edge14" class="edge">
<title>&#45;1&#45;&gt;Default_desktop_7_0_</title>
<path fill="none" stroke="black" d="M3116.96,-89.42C3018.16,-86.94 2672.4,-75.57 2386.23,-37.59"/>
<polygon fill="black" stroke="black" points="2387.1,-34.18 2376.72,-36.32 2386.17,-41.12 2387.1,-34.18"/>
</g>
<!-- &#45;1&#45;&gt;Default_desktop_7_0_ -->
<g id="edge24" class="edge">
<title>&#45;1&#45;&gt;Default_desktop_7_0_</title>
<path fill="none" stroke="black" d="M3117.11,-89.23C3018.72,-86.36 2674.21,-74.36 2392.38,-36 2390.36,-35.73 2388.32,-35.43 2386.27,-35.12"/>
<polygon fill="black" stroke="black" points="2387.08,-31.71 2376.65,-33.57 2385.96,-38.62 2387.08,-31.71"/>
</g>
<!-- Default_desktop_7_1_ -->
<g id="node23" class="node">
<title>Default_desktop_7_1_</title>
<polygon fill="none" stroke="black" points="2543.88,-36 2392.88,-36 2392.88,0 2543.88,0 2543.88,-36"/>
<text xml:space="preserve" text-anchor="middle" x="2468.38" y="-12.2" font-family="Helvetica,sans-Serif" font-size="14.00">Default_desktop_7_1_</text>
</g>
<!-- &#45;1&#45;&gt;Default_desktop_7_1_ -->
<g id="edge15" class="edge">
<title>&#45;1&#45;&gt;Default_desktop_7_1_</title>
<path fill="none" stroke="black" d="M3116.91,-88.76C3032.85,-84.46 2772.81,-68.73 2555.63,-37.77"/>
<polygon fill="black" stroke="black" points="2556.24,-34.32 2545.84,-36.36 2555.24,-41.25 2556.24,-34.32"/>
</g>
<!-- &#45;1&#45;&gt;Default_desktop_7_1_ -->
<g id="edge25" class="edge">
<title>&#45;1&#45;&gt;Default_desktop_7_1_</title>
<path fill="none" stroke="black" d="M3116.92,-88.33C3033.08,-83.38 2774.29,-67.16 2561.38,-36 2559.36,-35.71 2557.33,-35.39 2555.28,-35.07"/>
<polygon fill="black" stroke="black" points="2556.11,-31.66 2545.66,-33.46 2554.95,-38.56 2556.11,-31.66"/>
</g>
<!-- Default_desktop_7_2_ -->
<g id="node24" class="node">
<title>Default_desktop_7_2_</title>
<polygon fill="none" stroke="black" points="2712.88,-36 2561.88,-36 2561.88,0 2712.88,0 2712.88,-36"/>
<text xml:space="preserve" text-anchor="middle" x="2637.38" y="-12.2" font-family="Helvetica,sans-Serif" font-size="14.00">Default_desktop_7_2_</text>
</g>
<!-- &#45;1&#45;&gt;Default_desktop_7_2_ -->
<g id="edge16" class="edge">
<title>&#45;1&#45;&gt;Default_desktop_7_2_</title>
<path fill="none" stroke="black" d="M3116.94,-87.63C3049.97,-81.16 2873.74,-62.05 2724.42,-37.96"/>
<polygon fill="black" stroke="black" points="2725.19,-34.54 2714.76,-36.39 2724.07,-41.45 2725.19,-34.54"/>
</g>
<!-- &#45;1&#45;&gt;Default_desktop_7_2_ -->
<g id="edge26" class="edge">
<title>&#45;1&#45;&gt;Default_desktop_7_2_</title>
<path fill="none" stroke="black" d="M3116.94,-86.7C3050.27,-79.25 2875.56,-59.93 2730.38,-36 2728.37,-35.67 2726.34,-35.33 2724.29,-34.97"/>
<polygon fill="black" stroke="black" points="2725.16,-31.57 2714.7,-33.25 2723.92,-38.46 2725.16,-31.57"/>
</g>
<!-- Default_desktop_7_3_ -->
<g id="node25" class="node">
<title>Default_desktop_7_3_</title>
<polygon fill="none" stroke="black" points="2881.88,-36 2730.88,-36 2730.88,0 2881.88,0 2881.88,-36"/>
<text xml:space="preserve" text-anchor="middle" x="2806.38" y="-12.2" font-family="Helvetica,sans-Serif" font-size="14.00">Default_desktop_7_3_</text>
</g>
<!-- &#45;1&#45;&gt;Default_desktop_7_3_ -->
<g id="edge17" class="edge">
<title>&#45;1&#45;&gt;Default_desktop_7_3_</title>
<path fill="none" stroke="black" d="M3116.94,-85.01C3068.71,-75.51 2967.22,-54.36 2893.31,-38.54"/>
<polygon fill="black" stroke="black" points="2894.15,-35.14 2883.63,-36.47 2892.68,-41.99 2894.15,-35.14"/>
</g>
<!-- &#45;1&#45;&gt;Default_desktop_7_3_ -->
<g id="edge27" class="edge">
<title>&#45;1&#45;&gt;Default_desktop_7_3_</title>
<path fill="none" stroke="black" d="M3117.01,-83.38C3068.8,-72.68 2967.22,-51.22 2893.27,-36.02"/>
<polygon fill="black" stroke="black" points="2894.09,-32.62 2883.6,-34.04 2892.69,-39.48 2894.09,-32.62"/>
</g>
<!-- Default_desktop_7_4_ -->
<g id="node26" class="node">
<title>Default_desktop_7_4_</title>
<polygon fill="none" stroke="black" points="3050.88,-36 2899.88,-36 2899.88,0 3050.88,0 3050.88,-36"/>
<text xml:space="preserve" text-anchor="middle" x="2975.38" y="-12.2" font-family="Helvetica,sans-Serif" font-size="14.00">Default_desktop_7_4_</text>
</g>
<!-- &#45;1&#45;&gt;Default_desktop_7_4_ -->
<g id="edge18" class="edge">
<title>&#45;1&#45;&gt;Default_desktop_7_4_</title>
<path fill="none" stroke="black" d="M3117.17,-80.57C3091.28,-70.52 3052.03,-54.24 3021.33,-40.95"/>
<polygon fill="black" stroke="black" points="3022.81,-37.78 3012.25,-36.99 3020.02,-44.2 3022.81,-37.78"/>
</g>
<!-- &#45;1&#45;&gt;Default_desktop_7_4_ -->
<g id="edge28" class="edge">
<title>&#45;1&#45;&gt;Default_desktop_7_4_</title>
<path fill="none" stroke="black" d="M3117.25,-76.31C3094.65,-66.23 3061.82,-52.33 3033.4,-40.74"/>
<polygon fill="black" stroke="black" points="3034.74,-37.51 3024.16,-36.99 3032.11,-43.99 3034.74,-37.51"/>
</g>
<!-- Default_desktop_7_5_ -->
<g id="node27" class="node">
<title>Default_desktop_7_5_</title>
<polygon fill="none" stroke="black" points="3219.88,-36 3068.88,-36 3068.88,0 3219.88,0 3219.88,-36"/>
<text xml:space="preserve" text-anchor="middle" x="3144.38" y="-12.2" font-family="Helvetica,sans-Serif" font-size="14.00">Default_desktop_7_5_</text>
</g>
<!-- &#45;1&#45;&gt;Default_desktop_7_5_ -->
<g id="edge19" class="edge">
<title>&#45;1&#45;&gt;Default_desktop_7_5_</title>
<path fill="none" stroke="black" d="M3138.5,-72.81C3137.69,-65.14 3137.45,-55.89 3137.75,-47.24"/>
<polygon fill="black" stroke="black" points="3141.23,-47.75 3138.41,-37.54 3134.24,-47.28 3141.23,-47.75"/>
</g>
<!-- &#45;1&#45;&gt;Default_desktop_7_5_ -->
<g id="edge29" class="edge">
<title>&#45;1&#45;&gt;Default_desktop_7_5_</title>
<path fill="none" stroke="black" d="M3150.25,-72.81C3151.06,-65.14 3151.3,-55.89 3151,-47.24"/>
<polygon fill="black" stroke="black" points="3154.51,-47.28 3150.34,-37.54 3147.52,-47.75 3154.51,-47.28"/>
</g>
<!-- Default_desktop_7_6_ -->
<g id="node28" class="node">
<title>Default_desktop_7_6_</title>
<polygon fill="none" stroke="black" points="3388.88,-36 3237.88,-36 3237.88,0 3388.88,0 3388.88,-36"/>
<text xml:space="preserve" text-anchor="middle" x="3313.38" y="-12.2" font-family="Helvetica,sans-Serif" font-size="14.00">Default_desktop_7_6_</text>
</g>
<!-- &#45;1&#45;&gt;Default_desktop_7_6_ -->
<g id="edge20" class="edge">
<title>&#45;1&#45;&gt;Default_desktop_7_6_</title>
<path fill="none" stroke="black" d="M3170.22,-72.52C3170.61,-72.34 3170.99,-72.17 3171.38,-72 3196.07,-60.93 3223.82,-49.69 3248.25,-40.42"/>
<polygon fill="black" stroke="black" points="3249.3,-43.77 3257.44,-36.98 3246.85,-37.21 3249.3,-43.77"/>
</g>
<!-- &#45;1&#45;&gt;Default_desktop_7_6_ -->
<g id="edge30" class="edge">
<title>&#45;1&#45;&gt;Default_desktop_7_6_</title>
<path fill="none" stroke="black" d="M3171.53,-80.36C3177.48,-77.56 3183.64,-74.57 3189.38,-72 3213.85,-61.03 3241.32,-49.89 3264.24,-40.67"/>
<polygon fill="black" stroke="black" points="3265.38,-43.99 3273.36,-37.01 3262.77,-37.49 3265.38,-43.99"/>
</g>
<!-- Default_desktop_7_10_ -->
<g id="node29" class="node">
<title>Default_desktop_7_10_</title>
<polygon fill="none" stroke="black" points="3565.62,-36 3407.12,-36 3407.12,0 3565.62,0 3565.62,-36"/>
<text xml:space="preserve" text-anchor="middle" x="3486.38" y="-12.2" font-family="Helvetica,sans-Serif" font-size="14.00">Default_desktop_7_10_</text>
</g>
<!-- &#45;1&#45;&gt;Default_desktop_7_10_ -->
<g id="edge21" class="edge">
<title>&#45;1&#45;&gt;Default_desktop_7_10_</title>
<path fill="none" stroke="black" d="M3169.77,-72.54C3170.31,-72.35 3170.84,-72.17 3171.38,-72 3264.79,-41.7 3292.71,-53.31 3389.38,-36 3391.41,-35.64 3393.47,-35.26 3395.56,-34.88"/>
<polygon fill="black" stroke="black" points="3396.14,-38.34 3405.34,-33.08 3394.87,-31.45 3396.14,-38.34"/>
</g>
<!-- &#45;1&#45;&gt;Default_desktop_7_10_ -->
<g id="edge31" class="edge">
<title>&#45;1&#45;&gt;Default_desktop_7_10_</title>
<path fill="none" stroke="black" d="M3171.62,-79.37C3177.44,-76.62 3183.53,-73.9 3189.38,-72 3278.87,-42.97 3308.26,-52.41 3395.57,-38.03"/>
<polygon fill="black" stroke="black" points="3396.05,-41.5 3405.32,-36.36 3394.87,-34.6 3396.05,-41.5"/>
</g>
<!-- Default_desktop_7_11_ -->
<g id="node30" class="node">
<title>Default_desktop_7_11_</title>
<polygon fill="none" stroke="black" points="3742.62,-36 3584.12,-36 3584.12,0 3742.62,0 3742.62,-36"/>
<text xml:space="preserve" text-anchor="middle" x="3663.38" y="-12.2" font-family="Helvetica,sans-Serif" font-size="14.00">Default_desktop_7_11_</text>
</g>
<!-- &#45;1&#45;&gt;Default_desktop_7_11_ -->
<g id="edge22" class="edge">
<title>&#45;1&#45;&gt;Default_desktop_7_11_</title>
<path fill="none" stroke="black" d="M3169.35,-72.61C3170.03,-72.4 3170.7,-72.19 3171.38,-72 3340.49,-23.85 3391.25,-60.52 3565.38,-36 3567.84,-35.65 3570.35,-35.28 3572.87,-34.89"/>
<polygon fill="black" stroke="black" points="3573.26,-38.38 3582.57,-33.33 3572.15,-31.47 3573.26,-38.38"/>
</g>
<!-- &#45;1&#45;&gt;Default_desktop_7_11_ -->
<g id="edge32" class="edge">
<title>&#45;1&#45;&gt;Default_desktop_7_11_</title>
<path fill="none" stroke="black" d="M3171.53,-79.09C3177.36,-76.34 3183.46,-73.68 3189.38,-72 3354.86,-24.88 3407.02,-58.99 3572.76,-37.44"/>
<polygon fill="black" stroke="black" points="3572.9,-40.95 3582.34,-36.14 3571.96,-34.01 3572.9,-40.95"/>
</g>
<!-- Default_desktop_7_12_ -->
<g id="node31" class="node">
<title>Default_desktop_7_12_</title>
<polygon fill="none" stroke="black" points="3919.62,-36 3761.12,-36 3761.12,0 3919.62,0 3919.62,-36"/>
<text xml:space="preserve" text-anchor="middle" x="3840.38" y="-12.2" font-family="Helvetica,sans-Serif" font-size="14.00">Default_desktop_7_12_</text>
</g>
<!-- &#45;1&#45;&gt;Default_desktop_7_12_ -->
<g id="edge23" class="edge">
<title>&#45;1&#45;&gt;Default_desktop_7_12_</title>
<path fill="none" stroke="black" d="M3169.35,-72.58C3170.02,-72.38 3170.7,-72.18 3171.38,-72 3416.89,-5.82 3490.1,-67.92 3742.38,-36 3744.85,-35.69 3747.36,-35.35 3749.89,-34.99"/>
<polygon fill="black" stroke="black" points="3750.24,-38.47 3759.6,-33.5 3749.18,-31.55 3750.24,-38.47"/>
</g>
<!-- &#45;1&#45;&gt;Default_desktop_7_12_ -->
<g id="edge33" class="edge">
<title>&#45;1&#45;&gt;Default_desktop_7_12_</title>
<path fill="none" stroke="black" d="M3171.5,-78.99C3177.33,-76.23 3183.44,-73.6 3189.38,-72 3431.18,-6.82 3505.85,-66.07 3749.49,-37.33"/>
<polygon fill="black" stroke="black" points="3749.84,-40.81 3759.34,-36.12 3748.99,-33.86 3749.84,-40.81"/>
</g>
<!-- Default_desktop_8_ -->
<g id="node32" class="node">
<title>Default_desktop_8_</title>
<polygon fill="none" stroke="black" points="4073.38,-36 3937.38,-36 3937.38,0 4073.38,0 4073.38,-36"/>
<text xml:space="preserve" text-anchor="middle" x="4005.38" y="-12.2" font-family="Helvetica,sans-Serif" font-size="14.00">Default_desktop_8_</text>
</g>
<!-- &#45;1&#45;&gt;Default_desktop_8_ -->
<g id="edge34" class="edge">
<title>&#45;1&#45;&gt;Default_desktop_8_</title>
<path fill="none" stroke="black" d="M3171.83,-74.85C3174.66,-73.73 3177.54,-72.74 3180.38,-72 3337.99,-30.77 3745.82,-56.87 3925.79,-36.11"/>
<polygon fill="black" stroke="black" points="3926.05,-39.61 3935.55,-34.9 3925.19,-32.66 3926.05,-39.61"/>
</g>
<!-- Default_desktop_9_ -->
<g id="node33" class="node">
<title>Default_desktop_9_</title>
<polygon fill="none" stroke="black" points="4227.38,-36 4091.38,-36 4091.38,0 4227.38,0 4227.38,-36"/>
<text xml:space="preserve" text-anchor="middle" x="4159.38" y="-12.2" font-family="Helvetica,sans-Serif" font-size="14.00">Default_desktop_9_</text>
</g>
<!-- &#45;1&#45;&gt;Default_desktop_9_ -->
<g id="edge35" class="edge">
<title>&#45;1&#45;&gt;Default_desktop_9_</title>
<path fill="none" stroke="black" d="M3171.83,-74.83C3174.65,-73.71 3177.53,-72.73 3180.38,-72 3371.24,-22.9 3865.64,-60.36 4079.83,-36.11"/>
<polygon fill="black" stroke="black" points="4080.04,-39.6 4089.55,-34.93 4079.2,-32.66 4080.04,-39.6"/>
</g>
<!-- Default_desktop_10_ -->
<g id="node34" class="node">
<title>Default_desktop_10_</title>
<polygon fill="none" stroke="black" points="4389.12,-36 4245.62,-36 4245.62,0 4389.12,0 4389.12,-36"/>
<text xml:space="preserve" text-anchor="middle" x="4317.38" y="-12.2" font-family="Helvetica,sans-Serif" font-size="14.00">Default_desktop_10_</text>
</g>
<!-- &#45;1&#45;&gt;Default_desktop_10_ -->
<g id="edge36" class="edge">
<title>&#45;1&#45;&gt;Default_desktop_10_</title>
<path fill="none" stroke="black" d="M3151.34,-72.56C3152.02,-72.36 3152.7,-72.17 3153.38,-72 3380.94,-14.17 3976.27,-64.22 4209.38,-36 4217.31,-35.04 4225.62,-33.69 4234.05,-32.18"/>
<polygon fill="black" stroke="black" points="4234.49,-35.65 4243.68,-30.38 4233.21,-28.77 4234.49,-35.65"/>
</g>
<!-- &#45;1&#45;&gt;Default_desktop_10_ -->
<g id="edge37" class="edge">
<title>&#45;1&#45;&gt;Default_desktop_10_</title>
<path fill="none" stroke="black" d="M3169.34,-72.56C3170.02,-72.36 3170.7,-72.17 3171.38,-72 3398.94,-14.17 3994.27,-64.22 4227.38,-36 4229.57,-35.73 4231.79,-35.44 4234.03,-35.12"/>
<polygon fill="black" stroke="black" points="4234.53,-38.58 4243.86,-33.57 4233.44,-31.67 4234.53,-38.58"/>
</g>
<!-- &#45;1&#45;&gt;Default_desktop_10_ -->
<g id="edge38" class="edge">
<title>&#45;1&#45;&gt;Default_desktop_10_</title>
<path fill="none" stroke="black" d="M3171.87,-78.69C3177.58,-76 3183.55,-73.48 3189.38,-72 3413.28,-15.1 3993.19,-62.64 4233.83,-37.3"/>
<polygon fill="black" stroke="black" points="4233.98,-40.81 4243.53,-36.21 4233.2,-33.85 4233.98,-40.81"/>
</g>
<!-- &#45;1&#45;&gt;Default_desktop_10_ -->
<g id="edge39" class="edge">
<title>&#45;1&#45;&gt;Default_desktop_10_</title>
<path fill="none" stroke="black" d="M3171.86,-85.38C3185.33,-81.02 3196.61,-74.74 3207.38,-72 3430.08,-15.4 4004.97,-62.13 4247.92,-37.71"/>
<polygon fill="black" stroke="black" points="4248.17,-41.2 4257.74,-36.65 4247.42,-34.24 4248.17,-41.2"/>
</g>
<!-- Default_desktop_11_ -->
<g id="node35" class="node">
<title>Default_desktop_11_</title>
<polygon fill="none" stroke="black" points="4551.12,-36 4407.62,-36 4407.62,0 4551.12,0 4551.12,-36"/>
<text xml:space="preserve" text-anchor="middle" x="4479.38" y="-12.2" font-family="Helvetica,sans-Serif" font-size="14.00">Default_desktop_11_</text>
</g>
<!-- &#45;1&#45;&gt;Default_desktop_11_ -->
<g id="edge40" class="edge">
<title>&#45;1&#45;&gt;Default_desktop_11_</title>
<path fill="none" stroke="black" d="M3171.82,-74.8C3174.65,-73.68 3177.53,-72.72 3180.38,-72 3439.51,-6.77 4111.45,-66.32 4396.29,-36.04"/>
<polygon fill="black" stroke="black" points="4396.45,-39.54 4405.99,-34.95 4395.66,-32.59 4396.45,-39.54"/>
</g>
<!-- Default_desktop_12_ -->
<g id="node36" class="node">
<title>Default_desktop_12_</title>
<polygon fill="none" stroke="black" points="4713.12,-36 4569.62,-36 4569.62,0 4713.12,0 4713.12,-36"/>
<text xml:space="preserve" text-anchor="middle" x="4641.38" y="-12.2" font-family="Helvetica,sans-Serif" font-size="14.00">Default_desktop_12_</text>
</g>
<!-- &#45;1&#45;&gt;Default_desktop_12_ -->
<g id="edge41" class="edge">
<title>&#45;1&#45;&gt;Default_desktop_12_</title>
<path fill="none" stroke="black" d="M3171.82,-74.79C3174.65,-73.67 3177.53,-72.71 3180.38,-72 3474.51,1.5 4237.52,-69.94 4558.28,-36.04"/>
<polygon fill="black" stroke="black" points="4558.44,-39.54 4567.99,-34.96 4557.67,-32.59 4558.44,-39.54"/>
</g>
<!-- Default_desktop_13_ -->
<g id="node37" class="node">
<title>Default_desktop_13_</title>
<polygon fill="none" stroke="black" points="4875.12,-36 4731.62,-36 4731.62,0 4875.12,0 4875.12,-36"/>
<text xml:space="preserve" text-anchor="middle" x="4803.38" y="-12.2" font-family="Helvetica,sans-Serif" font-size="14.00">Default_desktop_13_</text>
</g>
<!-- &#45;1&#45;&gt;Default_desktop_13_ -->
<g id="edge42" class="edge">
<title>&#45;1&#45;&gt;Default_desktop_13_</title>
<path fill="none" stroke="black" d="M3160.34,-72.55C3161.02,-72.35 3161.7,-72.17 3162.38,-72 3328.7,-30.68 4534.13,-55.68 4704.38,-36 4709.54,-35.4 4714.87,-34.63 4720.26,-33.75"/>
<polygon fill="black" stroke="black" points="4720.64,-37.24 4729.89,-32.07 4719.44,-30.35 4720.64,-37.24"/>
</g>
<!-- &#45;1&#45;&gt;Default_desktop_13_ -->
<g id="edge43" class="edge">
<title>&#45;1&#45;&gt;Default_desktop_13_</title>
<path fill="none" stroke="black" d="M3171.81,-74.78C3174.64,-73.67 3177.53,-72.71 3180.38,-72 3343.53,-31.47 4506.6,-54.76 4720.15,-35.94"/>
<polygon fill="black" stroke="black" points="4720.39,-39.44 4729.99,-34.95 4719.69,-32.47 4720.39,-39.44"/>
</g>
<!-- &#45;1&#45;&gt;Default_desktop_13_ -->
<g id="edge44" class="edge">
<title>&#45;1&#45;&gt;Default_desktop_13_</title>
<path fill="none" stroke="black" d="M3171.61,-82.62C3180.69,-78.66 3189.69,-74.16 3198.38,-72 3360.26,-31.78 4506.5,-54.4 4724.56,-37.48"/>
<polygon fill="black" stroke="black" points="4724.76,-40.98 4734.41,-36.61 4724.15,-34.01 4724.76,-40.98"/>
</g>
<!-- Default_desktop_28_ -->
<g id="node41" class="node">
<title>Default_desktop_28_</title>
<polygon fill="none" stroke="black" points="5037.12,-36 4893.62,-36 4893.62,0 5037.12,0 5037.12,-36"/>
<text xml:space="preserve" text-anchor="middle" x="4965.38" y="-12.2" font-family="Helvetica,sans-Serif" font-size="14.00">Default_desktop_28_</text>
</g>
<!-- &#45;1&#45;&gt;Default_desktop_28_ -->
<g id="edge45" class="edge">
<title>&#45;1&#45;&gt;Default_desktop_28_</title>
<path fill="none" stroke="black" d="M3171.81,-74.77C3174.64,-73.66 3177.53,-72.7 3180.38,-72 3360.98,-27.35 4649.75,-56.48 4882.06,-35.96"/>
<polygon fill="black" stroke="black" points="4882.39,-39.44 4891.99,-34.96 4881.69,-32.48 4882.39,-39.44"/>
</g>
<!-- Default_desktop_29_ -->
<g id="node42" class="node">
<title>Default_desktop_29_</title>
<polygon fill="none" stroke="black" points="5199.12,-36 5055.62,-36 5055.62,0 5199.12,0 5199.12,-36"/>
<text xml:space="preserve" text-anchor="middle" x="5127.38" y="-12.2" font-family="Helvetica,sans-Serif" font-size="14.00">Default_desktop_29_</text>
</g>
<!-- &#45;1&#45;&gt;Default_desktop_29_ -->
<g id="edge46" class="edge">
<title>&#45;1&#45;&gt;Default_desktop_29_</title>
<path fill="none" stroke="black" d="M3171.81,-74.77C3174.64,-73.66 3177.53,-72.7 3180.38,-72 3378.49,-23.21 4793.65,-58.23 5044.14,-35.96"/>
<polygon fill="black" stroke="black" points="5044.39,-39.45 5053.99,-34.97 5043.69,-32.48 5044.39,-39.45"/>
</g>
<!-- Default_desktop_30_ -->
<g id="node43" class="node">
<title>Default_desktop_30_</title>
<polygon fill="none" stroke="black" points="5361.12,-36 5217.62,-36 5217.62,0 5361.12,0 5361.12,-36"/>
<text xml:space="preserve" text-anchor="middle" x="5289.38" y="-12.2" font-family="Helvetica,sans-Serif" font-size="14.00">Default_desktop_30_</text>
</g>
<!-- &#45;1&#45;&gt;Default_desktop_30_ -->
<g id="edge47" class="edge">
<title>&#45;1&#45;&gt;Default_desktop_30_</title>
<path fill="none" stroke="black" d="M3171.81,-74.76C3174.64,-73.65 3177.52,-72.7 3180.38,-72 3396.04,-19.06 4938.28,-60.02 5206.4,-35.94"/>
<polygon fill="black" stroke="black" points="5206.4,-39.46 5215.99,-34.97 5205.69,-32.49 5206.4,-39.46"/>
</g>
<!-- _ -->
<g id="node5" class="node">
<title>_</title>
<polygon fill="none" stroke="black" points="3243.38,-109 3189.38,-109 3189.38,-73 3243.38,-73 3243.38,-109"/>
<text xml:space="preserve" text-anchor="middle" x="3216.38" y="-85.2" font-family="Helvetica,sans-Serif" font-size="14.00">_</text>
</g>
<!-- _Chrome -->
<g id="node6" class="node">
<title>_Chrome</title>
<polygon fill="none" stroke="black" points="3325.75,-110 3261,-110 3261,-72 3325.75,-72 3325.75,-110"/>
<text xml:space="preserve" text-anchor="middle" x="3293.38" y="-92.7" font-family="Helvetica,sans-Serif" font-size="14.00">InApp</text>
<text xml:space="preserve" text-anchor="middle" x="3293.38" y="-77.7" font-family="Helvetica,sans-Serif" font-size="14.00">Chrome</text>
</g>
<!-- _VSCode -->
<g id="node7" class="node">
<title>_VSCode</title>
<polygon fill="none" stroke="black" points="3410.5,-110 3344.25,-110 3344.25,-72 3410.5,-72 3410.5,-110"/>
<text xml:space="preserve" text-anchor="middle" x="3377.38" y="-92.7" font-family="Helvetica,sans-Serif" font-size="14.00">InApp</text>
<text xml:space="preserve" text-anchor="middle" x="3377.38" y="-77.7" font-family="Helvetica,sans-Serif" font-size="14.00">VSCode</text>
</g>
<!-- _iTerm -->
<g id="node8" class="node">
<title>_iTerm</title>
<polygon fill="none" stroke="black" points="3482.38,-110 3428.38,-110 3428.38,-72 3482.38,-72 3482.38,-110"/>
<text xml:space="preserve" text-anchor="middle" x="3455.38" y="-92.7" font-family="Helvetica,sans-Serif" font-size="14.00">InApp</text>
<text xml:space="preserve" text-anchor="middle" x="3455.38" y="-77.7" font-family="Helvetica,sans-Serif" font-size="14.00">iTerm</text>
</g>
<!-- _nil -->
<g id="node9" class="node">
<title>_nil</title>
<polygon fill="none" stroke="black" points="3558.38,-109 3500.38,-109 3500.38,-73 3558.38,-73 3558.38,-109"/>
<text xml:space="preserve" text-anchor="middle" x="3529.38" y="-85.2" font-family="Helvetica,sans-Serif" font-size="14.00">L&#45;Exec</text>
</g>
<!-- Default_desktop_1_0_ -->
<g id="node10" class="node">
<title>Default_desktop_1_0_</title>
<polygon fill="none" stroke="black" points="3727.88,-109 3576.88,-109 3576.88,-73 3727.88,-73 3727.88,-109"/>
<text xml:space="preserve" text-anchor="middle" x="3652.38" y="-85.2" font-family="Helvetica,sans-Serif" font-size="14.00">Default_desktop_1_0_</text>
</g>
<!-- _0_nil -->
<g id="node38" class="node">
<title>_0_nil</title>
<polygon fill="none" stroke="black" points="3828.75,-110 3746,-110 3746,-72 3828.75,-72 3828.75,-110"/>
<text xml:space="preserve" text-anchor="middle" x="3787.38" y="-92.7" font-family="Helvetica,sans-Serif" font-size="14.00">Label</text>
<text xml:space="preserve" text-anchor="middle" x="3787.38" y="-77.7" font-family="Helvetica,sans-Serif" font-size="14.00">return&#45;to=0</text>
</g>
<!-- _1_nil -->
<g id="node39" class="node">
<title>_1_nil</title>
<polygon fill="none" stroke="black" points="3929.75,-110 3847,-110 3847,-72 3929.75,-72 3929.75,-110"/>
<text xml:space="preserve" text-anchor="middle" x="3888.38" y="-92.7" font-family="Helvetica,sans-Serif" font-size="14.00">Label</text>
<text xml:space="preserve" text-anchor="middle" x="3888.38" y="-77.7" font-family="Helvetica,sans-Serif" font-size="14.00">return&#45;to=1</text>
</g>
<!-- _7_nil -->
<g id="node40" class="node">
<title>_7_nil</title>
<polygon fill="none" stroke="black" points="4030.75,-110 3948,-110 3948,-72 4030.75,-72 4030.75,-110"/>
<text xml:space="preserve" text-anchor="middle" x="3989.38" y="-92.7" font-family="Helvetica,sans-Serif" font-size="14.00">Label</text>
<text xml:space="preserve" text-anchor="middle" x="3989.38" y="-77.7" font-family="Helvetica,sans-Serif" font-size="14.00">return&#45;to=7</text>
</g>
<!-- none_nil_nil_nil_nil -->
<g id="node44" class="node">
<title>none_nil_nil_nil_nil</title>
<polygon fill="none" stroke="black" points="318.38,-109 188.38,-109 188.38,-73 318.38,-73 318.38,-109"/>
<text xml:space="preserve" text-anchor="middle" x="253.38" y="-85.2" font-family="Helvetica,sans-Serif" font-size="14.00">none_nil_nil_nil_nil</text>
</g>
<!-- none_nil_nil_nil_nil&#45;&gt;Default_desktop_0_ -->
<g id="edge2" class="edge">
<title>none_nil_nil_nil_nil&#45;&gt;Default_desktop_0_</title>
<path fill="none" stroke="black" d="M232.8,-72.81C222.23,-63.98 209.16,-53.07 197.57,-43.39"/>
<polygon fill="black" stroke="black" points="200.14,-40.97 190.22,-37.25 195.65,-46.34 200.14,-40.97"/>
</g>
<!-- Default_laptop_nil_nil_nil -->
<g id="node45" class="node">
<title>Default_laptop_nil_nil_nil</title>
<polygon fill="none" stroke="black" points="420.38,-36 254.38,-36 254.38,0 420.38,0 420.38,-36"/>
<text xml:space="preserve" text-anchor="middle" x="337.38" y="-12.2" font-family="Helvetica,sans-Serif" font-size="14.00">Default_laptop_nil_nil_nil</text>
</g>
<!-- none_nil_nil_nil_nil&#45;&gt;Default_laptop_nil_nil_nil -->
<g id="edge1" class="edge">
<title>none_nil_nil_nil_nil&#45;&gt;Default_laptop_nil_nil_nil</title>
<path fill="none" stroke="black" d="M273.71,-72.81C284.05,-64.07 296.81,-53.28 308.19,-43.67"/>
<polygon fill="black" stroke="black" points="310.4,-46.38 315.78,-37.25 305.88,-41.03 310.4,-46.38"/>
</g>
</g>
</svg>
