<?xml version="1.0" encoding="UTF-8" standalone="no"?>
<!DOCTYPE svg PUBLIC "-//W3C//DTD SVG 1.1//EN"
 "http://www.w3.org/Graphics/SVG/1.1/DTD/svg11.dtd">
<!-- Generated by graphviz version 14.1.2 (20260124.0452)
 -->
<!-- Title: states Pages: 1 -->
<svg width="3317pt" height="118pt"
 viewBox="0.00 0.00 3317.00 118.00" xmlns="http://www.w3.org/2000/svg" xmlns:xlink="http://www.w3.org/1999/xlink">
<g id="graph0" class="graph" transform="scale(1 1) rotate(0) translate(4 114)">
<title>states</title>
<polygon fill="white" stroke="none" points="-4,4 -4,-114 3313.12,-114 3313.12,4 -4,4"/>
<!-- None_nil_nil_nil_nil_nil -->
<g id="node1" class="node">
<title>None_nil_nil_nil_nil_nil</title>
<polygon fill="none" stroke="black" points="94.75,-110 0,-110 0,-72 94.75,-72 94.75,-110"/>
<text xml:space="preserve" text-anchor="middle" x="47.38" y="-92.7" font-family="Helvetica,sans-Serif" font-size="14.00">None</text>
<text xml:space="preserve" text-anchor="middle" x="47.38" y="-77.7" font-family="Helvetica,sans-Serif" font-size="14.00">(placeholder)</text>
</g>
<!-- Default_laptop_nil_nil_nil_nil -->
<g id="node2" class="node">
<title>Default_laptop_nil_nil_nil_nil</title>
<polygon fill="none" stroke="black" points="170,-109 112.75,-109 112.75,-73 170,-73 170,-109"/>
<text xml:space="preserve" text-anchor="middle" x="141.38" y="-85.2" font-family="Helvetica,sans-Serif" font-size="14.00">Laptop</text>
</g>
<!-- Default_desktop_0_ -->
<g id="node3" class="node">
<title>Default_desktop_0_</title>
<polygon fill="none" stroke="black" points="236.38,-36 100.38,-36 100.38,0 236.38,0 236.38,-36"/>
<text xml:space="preserve" text-anchor="middle" x="168.38" y="-12.2" font-family="Helvetica,sans-Serif" font-size="14.00">Default_desktop_0_</text>
</g>
<!-- &#45;1 -->
<g id="node4" class="node">
<title>&#45;1</title>
<polygon fill="none" stroke="black" points="2213.38,-109 2159.38,-109 2159.38,-73 2213.38,-73 2213.38,-109"/>
<text xml:space="preserve" text-anchor="middle" x="2186.38" y="-85.2" font-family="Helvetica,sans-Serif" font-size="14.00">&#45;1</text>
</g>
<!-- Default_desktop_1_1_ -->
<g id="node11" class="node">
<title>Default_desktop_1_1_</title>
<polygon fill="none" stroke="black" points="589.88,-36 438.88,-36 438.88,0 589.88,0 589.88,-36"/>
<text xml:space="preserve" text-anchor="middle" x="514.38" y="-12.2" font-family="Helvetica,sans-Serif" font-size="14.00">Default_desktop_1_1_</text>
</g>
<!-- &#45;1&#45;&gt;Default_desktop_1_1_ -->
<g id="edge3" class="edge">
<title>&#45;1&#45;&gt;Default_desktop_1_1_</title>
<path fill="none" stroke="black" d="M2159.14,-89.69C1977.79,-87.55 941.88,-73.86 601.61,-36.24"/>
<polygon fill="black" stroke="black" points="602.13,-32.78 591.79,-35.12 601.33,-39.73 602.13,-32.78"/>
</g>
<!-- Default_desktop_1_2_ -->
<g id="node12" class="node">
<title>Default_desktop_1_2_</title>
<polygon fill="none" stroke="black" points="758.88,-36 607.88,-36 607.88,0 758.88,0 758.88,-36"/>
<text xml:space="preserve" text-anchor="middle" x="683.38" y="-12.2" font-family="Helvetica,sans-Serif" font-size="14.00">Default_desktop_1_2_</text>
</g>
<!-- &#45;1&#45;&gt;Default_desktop_1_2_ -->
<g id="edge4" class="edge">
<title>&#45;1&#45;&gt;Default_desktop_1_2_</title>
<path fill="none" stroke="black" d="M2159.06,-89.56C1989.22,-86.76 1075.12,-70.35 770.73,-36.26"/>
<polygon fill="black" stroke="black" points="771.13,-32.78 760.8,-35.11 770.33,-39.74 771.13,-32.78"/>
</g>
<!-- Default_desktop_1_3_ -->
<g id="node13" class="node">
<title>Default_desktop_1_3_</title>
<polygon fill="none" stroke="black" points="927.88,-36 776.88,-36 776.88,0 927.88,0 927.88,-36"/>
<text xml:space="preserve" text-anchor="middle" x="852.38" y="-12.2" font-family="Helvetica,sans-Serif" font-size="14.00">Default_desktop_1_3_</text>
</g>
<!-- &#45;1&#45;&gt;Default_desktop_1_3_ -->
<g id="edge5" class="edge">
<title>&#45;1&#45;&gt;Default_desktop_1_3_</title>
<path fill="none" stroke="black" d="M2159.04,-89.4C2001.52,-85.87 1207.81,-66.87 939.53,-36.25"/>
<polygon fill="black" stroke="black" points="940.14,-32.79 929.8,-35.1 939.32,-39.75 940.14,-32.79"/>
</g>
<!-- Default_desktop_1_4_ -->
<g id="node14" class="node">
<title>Default_desktop_1_4_</title>
<polygon fill="none" stroke="black" points="1096.88,-36 945.88,-36 945.88,0 1096.88,0 1096.88,-36"/>
<text xml:space="preserve" text-anchor="middle" x="1021.38" y="-12.2" font-family="Helvetica,sans-Serif" font-size="14.00">Default_desktop_1_4_</text>
</g>
<!-- &#45;1&#45;&gt;Default_desktop_1_4_ -->
<g id="edge6" class="edge">
<title>&#45;1&#45;&gt;Default_desktop_1_4_</title>
<path fill="none" stroke="black" d="M2159.12,-90.11C2037.51,-90.31 1532.21,-87.86 1108.54,-36.15"/>
<polygon fill="black" stroke="black" points="1109.14,-32.69 1098.79,-34.94 1108.28,-39.64 1109.14,-32.69"/>
</g>
<!-- Default_desktop_2_ -->
<g id="node15" class="node">
<title>Default_desktop_2_</title>
<polygon fill="none" stroke="black" points="1251.38,-36 1115.38,-36 1115.38,0 1251.38,0 1251.38,-36"/>
<text xml:space="preserve" text-anchor="middle" x="1183.38" y="-12.2" font-family="Helvetica,sans-Serif" font-size="14.00">Default_desktop_2_</text>
</g>
<!-- &#45;1&#45;&gt;Default_desktop_2_ -->
<g id="edge7" class="edge">
<title>&#45;1&#45;&gt;Default_desktop_2_</title>
<path fill="none" stroke="black" d="M2158.95,-89.99C2048.05,-89.61 1621.97,-84.98 1263.11,-36.24"/>
<polygon fill="black" stroke="black" points="1263.59,-32.78 1253.21,-34.88 1262.64,-39.71 1263.59,-32.78"/>
</g>
<!-- Default_desktop_3_ -->
<g id="node16" class="node">
<title>Default_desktop_3_</title>
<polygon fill="none" stroke="black" points="1405.38,-36 1269.38,-36 1269.38,0 1405.38,0 1405.38,-36"/>
<text xml:space="preserve" text-anchor="middle" x="1337.38" y="-12.2" font-family="Helvetica,sans-Serif" font-size="14.00">Default_desktop_3_</text>
</g>
<!-- &#45;1&#45;&gt;Default_desktop_3_ -->
<g id="edge8" class="edge">
<title>&#45;1&#45;&gt;Default_desktop_3_</title>
<path fill="none" stroke="black" d="M2159.21,-89.55C2060.71,-87.6 1712.91,-78.1 1417.1,-36.27"/>
<polygon fill="black" stroke="black" points="1417.61,-32.8 1407.21,-34.85 1416.61,-39.73 1417.61,-32.8"/>
</g>
<!-- Default_desktop_4_ -->
<g id="node17" class="node">
<title>Default_desktop_4_</title>
<polygon fill="none" stroke="black" points="1559.38,-36 1423.38,-36 1423.38,0 1559.38,0 1559.38,-36"/>
<text xml:space="preserve" text-anchor="middle" x="1491.38" y="-12.2" font-family="Helvetica,sans-Serif" font-size="14.00">Default_desktop_4_</text>
</g>
<!-- &#45;1&#45;&gt;Default_desktop_4_ -->
<g id="edge9" class="edge">
<title>&#45;1&#45;&gt;Default_desktop_4_</title>
<path fill="none" stroke="black" d="M2159.12,-88.89C2073.73,-85.13 1803.74,-71.23 1570.79,-36.25"/>
<polygon fill="black" stroke="black" points="1571.63,-32.84 1561.22,-34.8 1570.58,-39.76 1571.63,-32.84"/>
</g>
<!-- Default_desktop_5_ -->
<g id="node18" class="node">
<title>Default_desktop_5_</title>
<polygon fill="none" stroke="black" points="1713.38,-36 1577.38,-36 1577.38,0 1713.38,0 1713.38,-36"/>
<text xml:space="preserve" text-anchor="middle" x="1645.38" y="-12.2" font-family="Helvetica,sans-Serif" font-size="14.00">Default_desktop_5_</text>
</g>
<!-- &#45;1&#45;&gt;Default_desktop_5_ -->
<g id="edge10" class="edge">
<title>&#45;1&#45;&gt;Default_desktop_5_</title>
<path fill="none" stroke="black" d="M2159.04,-87.79C2088.73,-81.92 1895.66,-64.47 1724.95,-36.34"/>
<polygon fill="black" stroke="black" points="1725.67,-32.91 1715.23,-34.72 1724.52,-39.82 1725.67,-32.91"/>
</g>
<!-- Default_desktop_6_ -->
<g id="node19" class="node">
<title>Default_desktop_6_</title>
<polygon fill="none" stroke="black" points="1867.38,-36 1731.38,-36 1731.38,0 1867.38,0 1867.38,-36"/>
<text xml:space="preserve" text-anchor="middle" x="1799.38" y="-12.2" font-family="Helvetica,sans-Serif" font-size="14.00">Default_desktop_6_</text>
</g>
<!-- &#45;1&#45;&gt;Default_desktop_6_ -->
<g id="edge11" class="edge">
<title>&#45;1&#45;&gt;Default_desktop_6_</title>
<path fill="none" stroke="black" d="M2158.93,-85.64C2106.56,-77.24 1988.54,-57.87 1879.03,-36.48"/>
<polygon fill="black" stroke="black" points="1879.75,-33.05 1869.26,-34.56 1878.4,-39.92 1879.75,-33.05"/>
</g>
<!-- Default_desktop_8_ -->
<g id="node20" class="node">
<title>Default_desktop_8_</title>
<polygon fill="none" stroke="black" points="2021.38,-36 1885.38,-36 1885.38,0 2021.38,0 2021.38,-36"/>
<text xml:space="preserve" text-anchor="middle" x="1953.38" y="-12.2" font-family="Helvetica,sans-Serif" font-size="14.00">Default_desktop_8_</text>
</g>
<!-- &#45;1&#45;&gt;Default_desktop_8_ -->
<g id="edge12" class="edge">
<title>&#45;1&#45;&gt;Default_desktop_8_</title>
<path fill="none" stroke="black" d="M2159.19,-81.72C2125.63,-71.49 2067.35,-53.73 2021.35,-39.71"/>
<polygon fill="black" stroke="black" points="2022.58,-36.43 2012,-36.86 2020.54,-43.13 2022.58,-36.43"/>
</g>
<!-- Default_desktop_9_ -->
<g id="node21" class="node">
<title>Default_desktop_9_</title>
<polygon fill="none" stroke="black" points="2175.38,-36 2039.38,-36 2039.38,0 2175.38,0 2175.38,-36"/>
<text xml:space="preserve" text-anchor="middle" x="2107.38" y="-12.2" font-family="Helvetica,sans-Serif" font-size="14.00">Default_desktop_9_</text>
</g>
<!-- &#45;1&#45;&gt;Default_desktop_9_ -->
<g id="edge13" class="edge">
<title>&#45;1&#45;&gt;Default_desktop_9_</title>
<path fill="none" stroke="black" d="M2167.25,-72.81C2157.62,-64.16 2145.76,-53.5 2135.14,-43.96"/>
<polygon fill="black" stroke="black" points="2137.5,-41.37 2127.72,-37.29 2132.82,-46.57 2137.5,-41.37"/>
</g>
<!-- Default_desktop_10_ -->
<g id="node22" class="node">
<title>Default_desktop_10_</title>
<polygon fill="none" stroke="black" points="2337.12,-36 2193.62,-36 2193.62,0 2337.12,0 2337.12,-36"/>
<text xml:space="preserve" text-anchor="middle" x="2265.38" y="-12.2" font-family="Helvetica,sans-Serif" font-size="14.00">Default_desktop_10_</text>
</g>
<!-- &#45;1&#45;&gt;Default_desktop_10_ -->
<g id="edge14" class="edge">
<title>&#45;1&#45;&gt;Default_desktop_10_</title>
<path fill="none" stroke="black" d="M2187.86,-72.81C2194.99,-63.9 2206.72,-52.86 2219.26,-43.1"/>
<polygon fill="black" stroke="black" points="2221.32,-45.94 2227.27,-37.18 2217.15,-40.31 2221.32,-45.94"/>
</g>
<!-- &#45;1&#45;&gt;Default_desktop_10_ -->
<g id="edge15" class="edge">
<title>&#45;1&#45;&gt;Default_desktop_10_</title>
<path fill="none" stroke="black" d="M2199.62,-72.81C2208.43,-64.07 2220.24,-53.28 2231.46,-43.67"/>
<polygon fill="black" stroke="black" points="2233.7,-46.36 2239.11,-37.25 2229.2,-41 2233.7,-46.36"/>
</g>
<!-- &#45;1&#45;&gt;Default_desktop_10_ -->
<g id="edge16" class="edge">
<title>&#45;1&#45;&gt;Default_desktop_10_</title>
<path fill="none" stroke="black" d="M2211.38,-72.81C2221.81,-64.24 2233.73,-53.71 2243.78,-44.24"/>
<polygon fill="black" stroke="black" points="2246.18,-46.79 2250.95,-37.33 2241.32,-41.75 2246.18,-46.79"/>
</g>
<!-- &#45;1&#45;&gt;Default_desktop_10_ -->
<g id="edge17" class="edge">
<title>&#45;1&#45;&gt;Default_desktop_10_</title>
<path fill="none" stroke="black" d="M2213.65,-79.06C2228.52,-69.92 2244.91,-56.52 2256.33,-44.7"/>
<polygon fill="black" stroke="black" points="2258.63,-47.37 2262.67,-37.58 2253.41,-42.72 2258.63,-47.37"/>
</g>
<!-- Default_desktop_11_ -->
<g id="node23" class="node">
<title>Default_desktop_11_</title>
<polygon fill="none" stroke="black" points="2499.12,-36 2355.62,-36 2355.62,0 2499.12,0 2499.12,-36"/>
<text xml:space="preserve" text-anchor="middle" x="2427.38" y="-12.2" font-family="Helvetica,sans-Serif" font-size="14.00">Default_desktop_11_</text>
</g>
<!-- &#45;1&#45;&gt;Default_desktop_11_ -->
<g id="edge18" class="edge">
<title>&#45;1&#45;&gt;Default_desktop_11_</title>
<path fill="none" stroke="black" d="M2213.63,-75.63C2216.54,-74.32 2219.5,-73.08 2222.38,-72 2244.84,-63.59 2297.7,-49.97 2344.11,-38.65"/>
<polygon fill="black" stroke="black" points="2344.77,-42.09 2353.66,-36.33 2343.12,-35.29 2344.77,-42.09"/>
</g>
<!-- Default_desktop_12_ -->
<g id="node24" class="node">
<title>Default_desktop_12_</title>
<polygon fill="none" stroke="black" points="2661.12,-36 2517.62,-36 2517.62,0 2661.12,0 2661.12,-36"/>
<text xml:space="preserve" text-anchor="middle" x="2589.38" y="-12.2" font-family="Helvetica,sans-Serif" font-size="14.00">Default_desktop_12_</text>
</g>
<!-- &#45;1&#45;&gt;Default_desktop_12_ -->
<g id="edge19" class="edge">
<title>&#45;1&#45;&gt;Default_desktop_12_</title>
<path fill="none" stroke="black" d="M2213.5,-75.25C2216.44,-74.01 2219.43,-72.89 2222.38,-72 2341.5,-35.87 2379.86,-55.96 2506.17,-36.24"/>
<polygon fill="black" stroke="black" points="2506.64,-39.71 2515.95,-34.66 2505.52,-32.8 2506.64,-39.71"/>
</g>
<!-- Default_desktop_13_ -->
<g id="node25" class="node">
<title>Default_desktop_13_</title>
<polygon fill="none" stroke="black" points="2823.12,-36 2679.62,-36 2679.62,0 2823.12,0 2823.12,-36"/>
<text xml:space="preserve" text-anchor="middle" x="2751.38" y="-12.2" font-family="Helvetica,sans-Serif" font-size="14.00">Default_desktop_13_</text>
</g>
<!-- &#45;1&#45;&gt;Default_desktop_13_ -->
<g id="edge20" class="edge">
<title>&#45;1&#45;&gt;Default_desktop_13_</title>
<path fill="none" stroke="black" d="M2211.35,-72.6C2212.03,-72.39 2212.7,-72.19 2213.38,-72 2405.79,-18.35 2463.68,-64.57 2661.38,-36 2663.56,-35.68 2665.78,-35.34 2668.01,-34.99"/>
<polygon fill="black" stroke="black" points="2668.56,-38.44 2677.83,-33.3 2667.38,-31.54 2668.56,-38.44"/>
</g>
<!-- &#45;1&#45;&gt;Default_desktop_13_ -->
<g id="edge21" class="edge">
<title>&#45;1&#45;&gt;Default_desktop_13_</title>
<path fill="none" stroke="black" d="M2213.52,-79.05C2219.35,-76.29 2225.45,-73.65 2231.38,-72 2420.03,-19.4 2479.36,-62.81 2667.95,-37.59"/>
<polygon fill="black" stroke="black" points="2668.16,-41.09 2677.59,-36.25 2667.2,-34.16 2668.16,-41.09"/>
</g>
<!-- Default_desktop_28_ -->
<g id="node28" class="node">
<title>Default_desktop_28_</title>
<polygon fill="none" stroke="black" points="2985.12,-36 2841.62,-36 2841.62,0 2985.12,0 2985.12,-36"/>
<text xml:space="preserve" text-anchor="middle" x="2913.38" y="-12.2" font-family="Helvetica,sans-Serif" font-size="14.00">Default_desktop_28_</text>
</g>
<!-- &#45;1&#45;&gt;Default_desktop_28_ -->
<g id="edge22" class="edge">
<title>&#45;1&#45;&gt;Default_desktop_28_</title>
<path fill="none" stroke="black" d="M2213.84,-74.88C2216.67,-73.75 2219.54,-72.76 2222.38,-72 2481.15,-2.8 2561.01,-70.1 2830.18,-36.14"/>
<polygon fill="black" stroke="black" points="2830.52,-39.62 2839.98,-34.86 2829.61,-32.68 2830.52,-39.62"/>
</g>
<!-- Default_desktop_29_ -->
<g id="node29" class="node">
<title>Default_desktop_29_</title>
<polygon fill="none" stroke="black" points="3147.12,-36 3003.62,-36 3003.62,0 3147.12,0 3147.12,-36"/>
<text xml:space="preserve" text-anchor="middle" x="3075.38" y="-12.2" font-family="Helvetica,sans-Serif" font-size="14.00">Default_desktop_29_</text>
</g>
<!-- &#45;1&#45;&gt;Default_desktop_29_ -->
<g id="edge23" class="edge">
<title>&#45;1&#45;&gt;Default_desktop_29_</title>
<path fill="none" stroke="black" d="M2213.83,-74.85C2216.66,-73.72 2219.54,-72.74 2222.38,-72 2385.15,-29.55 2806.26,-56.55 2992.13,-36.06"/>
<polygon fill="black" stroke="black" points="2992.47,-39.55 3001.98,-34.89 2991.64,-32.59 2992.47,-39.55"/>
</g>
<!-- Default_desktop_30_ -->
<g id="node30" class="node">
<title>Default_desktop_30_</title>
<polygon fill="none" stroke="black" points="3309.12,-36 3165.62,-36 3165.62,0 3309.12,0 3309.12,-36"/>
<text xml:space="preserve" text-anchor="middle" x="3237.38" y="-12.2" font-family="Helvetica,sans-Serif" font-size="14.00">Default_desktop_30_</text>
</g>
<!-- &#45;1&#45;&gt;Default_desktop_30_ -->
<g id="edge24" class="edge">
<title>&#45;1&#45;&gt;Default_desktop_30_</title>
<path fill="none" stroke="black" d="M2213.83,-74.82C2216.65,-73.7 2219.53,-72.73 2222.38,-72 2420.13,-21.28 2932.32,-60.05 3154.19,-36.05"/>
<polygon fill="black" stroke="black" points="3154.46,-39.54 3163.99,-34.92 3153.65,-32.59 3154.46,-39.54"/>
</g>
<!-- _ -->
<g id="node5" class="node">
<title>_</title>
<polygon fill="none" stroke="black" points="2285.38,-109 2231.38,-109 2231.38,-73 2285.38,-73 2285.38,-109"/>
<text xml:space="preserve" text-anchor="middle" x="2258.38" y="-85.2" font-family="Helvetica,sans-Serif" font-size="14.00">_</text>
</g>
<!-- _Chrome -->
<g id="node6" class="node">
<title>_Chrome</title>
<polygon fill="none" stroke="black" points="2367.75,-110 2303,-110 2303,-72 2367.75,-72 2367.75,-110"/>
<text xml:space="preserve" text-anchor="middle" x="2335.38" y="-92.7" font-family="Helvetica,sans-Serif" font-size="14.00">InApp</text>
<text xml:space="preserve" text-anchor="middle" x="2335.38" y="-77.7" font-family="Helvetica,sans-Serif" font-size="14.00">Chrome</text>
</g>
<!-- _VSCode -->
<g id="node7" class="node">
<title>_VSCode</title>
<polygon fill="none" stroke="black" points="2452.5,-110 2386.25,-110 2386.25,-72 2452.5,-72 2452.5,-110"/>
<text xml:space="preserve" text-anchor="middle" x="2419.38" y="-92.7" font-family="Helvetica,sans-Serif" font-size="14.00">InApp</text>
<text xml:space="preserve" text-anchor="middle" x="2419.38" y="-77.7" font-family="Helvetica,sans-Serif" font-size="14.00">VSCode</text>
</g>
<!-- _iTerm -->
<g id="node8" class="node">
<title>_iTerm</title>
<polygon fill="none" stroke="black" points="2524.38,-110 2470.38,-110 2470.38,-72 2524.38,-72 2524.38,-110"/>
<text xml:space="preserve" text-anchor="middle" x="2497.38" y="-92.7" font-family="Helvetica,sans-Serif" font-size="14.00">InApp</text>
<text xml:space="preserve" text-anchor="middle" x="2497.38" y="-77.7" font-family="Helvetica,sans-Serif" font-size="14.00">iTerm</text>
</g>
<!-- _nil -->
<g id="node9" class="node">
<title>_nil</title>
<polygon fill="none" stroke="black" points="2600.38,-109 2542.38,-109 2542.38,-73 2600.38,-73 2600.38,-109"/>
<text xml:space="preserve" text-anchor="middle" x="2571.38" y="-85.2" font-family="Helvetica,sans-Serif" font-size="14.00">L&#45;Exec</text>
</g>
<!-- Default_desktop_1_0_ -->
<g id="node10" class="node">
<title>Default_desktop_1_0_</title>
<polygon fill="none" stroke="black" points="2769.88,-109 2618.88,-109 2618.88,-73 2769.88,-73 2769.88,-109"/>
<text xml:space="preserve" text-anchor="middle" x="2694.38" y="-85.2" font-family="Helvetica,sans-Serif" font-size="14.00">Default_desktop_1_0_</text>
</g>
<!-- _0_nil -->
<g id="node26" class="node">
<title>_0_nil</title>
<polygon fill="none" stroke="black" points="2870.75,-110 2788,-110 2788,-72 2870.75,-72 2870.75,-110"/>
<text xml:space="preserve" text-anchor="middle" x="2829.38" y="-92.7" font-family="Helvetica,sans-Serif" font-size="14.00">Label</text>
<text xml:space="preserve" text-anchor="middle" x="2829.38" y="-77.7" font-family="Helvetica,sans-Serif" font-size="14.00">return&#45;to=0</text>
</g>
<!-- _1_nil -->
<g id="node27" class="node">
<title>_1_nil</title>
<polygon fill="none" stroke="black" points="2971.75,-110 2889,-110 2889,-72 2971.75,-72 2971.75,-110"/>
<text xml:space="preserve" text-anchor="middle" x="2930.38" y="-92.7" font-family="Helvetica,sans-Serif" font-size="14.00">Label</text>
<text xml:space="preserve" text-anchor="middle" x="2930.38" y="-77.7" font-family="Helvetica,sans-Serif" font-size="14.00">return&#45;to=1</text>
</g>
<!-- none_nil_nil_nil_nil -->
<g id="node31" class="node">
<title>none_nil_nil_nil_nil</title>
<polygon fill="none" stroke="black" points="318.38,-109 188.38,-109 188.38,-73 318.38,-73 318.38,-109"/>
<text xml:space="preserve" text-anchor="middle" x="253.38" y="-85.2" font-family="Helvetica,sans-Serif" font-size="14.00">none_nil_nil_nil_nil</text>
</g>
<!-- none_nil_nil_nil_nil&#45;&gt;Default_desktop_0_ -->
<g id="edge2" class="edge">
<title>none_nil_nil_nil_nil&#45;&gt;Default_desktop_0_</title>
<path fill="none" stroke="black" d="M232.8,-72.81C222.23,-63.98 209.16,-53.07 197.57,-43.39"/>
<polygon fill="black" stroke="black" points="200.14,-40.97 190.22,-37.25 195.65,-46.34 200.14,-40.97"/>
</g>
<!-- Default_laptop_nil_nil_nil -->
<g id="node32" class="node">
<title>Default_laptop_nil_nil_nil</title>
<polygon fill="none" stroke="black" points="420.38,-36 254.38,-36 254.38,0 420.38,0 420.38,-36"/>
<text xml:space="preserve" text-anchor="middle" x="337.38" y="-12.2" font-family="Helvetica,sans-Serif" font-size="14.00">Default_laptop_nil_nil_nil</text>
</g>
<!-- none_nil_nil_nil_nil&#45;&gt;Default_laptop_nil_nil_nil -->
<g id="edge1" class="edge">
<title>none_nil_nil_nil_nil&#45;&gt;Default_laptop_nil_nil_nil</title>
<path fill="none" stroke="black" d="M273.71,-72.81C284.05,-64.07 296.81,-53.28 308.19,-43.67"/>
<polygon fill="black" stroke="black" points="310.4,-46.38 315.78,-37.25 305.88,-41.03 310.4,-46.38"/>
</g>
</g>
</svg>
